<?xml version="1.0" encoding="UTF-8"?>
<!DOCTYPE svg PUBLIC "-//W3C//DTD SVG 1.1//EN" "http://www.w3.org/Graphics/SVG/1.1/DTD/svg11.dtd">
<svg xmlns="http://www.w3.org/2000/svg" version="1.1" width="6243px" height="2012px" style="shape-rendering:geometricPrecision; text-rendering:geometricPrecision; image-rendering:optimizeQuality; fill-rule:evenodd; clip-rule:evenodd" xmlns:xlink="http://www.w3.org/1999/xlink">
<g><path style="opacity:0.941" fill="#fefefd" d="M 1148.5,58.5 C 1148.17,58.5 1147.83,58.5 1147.5,58.5C 1146.88,58.6107 1146.38,58.944 1146,59.5C 1145.5,63.8206 1145.33,68.1539 1145.5,72.5C 1144.89,73.391 1144.56,74.391 1144.5,75.5C 1142.98,79.8029 1141.31,84.1362 1139.5,88.5C 1130.78,103.23 1118.11,112.563 1101.5,116.5C 1093.11,116.773 1084.78,116.44 1076.5,115.5C 1074.83,115.5 1073.17,115.5 1071.5,115.5C 1070.2,118.684 1069.2,122.017 1068.5,125.5C 1066.91,127.113 1065.91,129.113 1065.5,131.5C 1065.5,131.833 1065.5,132.167 1065.5,132.5C 1063.47,135.906 1061.8,139.573 1060.5,143.5C 1058.72,145.824 1057.72,148.491 1057.5,151.5C 1054.75,155.347 1052.75,159.681 1051.5,164.5C 1040.68,189.601 1030.01,214.935 1019.5,240.5C 1017.91,242.113 1016.91,244.113 1016.5,246.5C 1005.32,273.217 993.817,299.884 982,326.5C 981.263,330.207 980.429,333.873 979.5,337.5C 974.243,348.935 969.243,360.935 964.5,373.5C 963.77,374.934 962.77,376.1 961.5,377C 961.833,377.333 962.167,377.667 962.5,378C 959.462,383.572 957.129,389.406 955.5,395.5C 954.414,395.62 953.747,396.287 953.5,397.5C 951.547,401.628 950.047,405.962 949,410.5C 916.657,484.588 884.824,559.088 853.5,634C 850.675,639.641 848.342,645.474 846.5,651.5C 844.235,651.441 843.902,652.274 845.5,654C 834.871,677.477 824.538,701.143 814.5,725C 822.355,729.572 829.355,735.072 835.5,741.5C 841.977,751.138 845.644,761.804 846.5,773.5C 841.632,817.195 817.299,836.695 773.5,832C 753.556,824.241 740.89,810.074 735.5,789.5C 735.125,783.991 734.458,778.658 733.5,773.5C 733.167,773.5 732.833,773.5 732.5,773.5C 733.418,760.975 737.751,749.642 745.5,739.5C 745.121,737.787 744.121,736.787 742.5,736.5C 693.758,678.729 644.758,621.063 595.5,563.5C 595.649,562.448 595.483,561.448 595,560.5C 569.675,529.847 543.675,499.847 517,470.5C 503.102,479.095 487.935,481.928 471.5,479C 461.177,476.001 452.177,470.668 444.5,463C 443.5,462.333 442.5,462.333 441.5,463C 420.122,480.713 398.455,498.047 376.5,515C 374.393,516.264 373.393,518.097 373.5,520.5C 358.155,532.19 343.155,544.19 328.5,556.5C 295.233,582.345 262.733,608.345 231,634.5C 230.667,634.167 230.333,633.833 230,633.5C 229.333,634.833 229.333,636.167 230,637.5C 234.604,645.924 237.104,654.924 237.5,664.5C 236.046,689.181 224.379,707.681 202.5,720C 176.074,728.688 153.908,722.521 136,701.5C 128.772,690.177 124.605,677.844 123.5,664.5C 124.577,645.288 132.577,630.288 147.5,619.5C 174.122,603.398 198.622,605.731 221,626.5C 222.14,624.721 223.307,623.054 224.5,621.5C 237.957,612.446 250.623,602.446 262.5,591.5C 300.12,562.872 337.12,533.539 373.5,503.5C 395.452,488.079 416.785,471.579 437.5,454C 431.604,443.58 428.271,432.413 427.5,420.5C 430.027,395.085 443.527,377.752 468,368.5C 498.488,362.164 521.655,372.331 537.5,399C 540.324,406.231 541.991,413.398 542.5,420.5C 541.409,436.548 535.742,450.882 525.5,463.5C 547.49,489.99 569.657,516.323 592,542.5C 592.816,543.823 593.983,544.489 595.5,544.5C 627.452,581.014 659.286,618.347 691,656.5C 695.752,661.083 700.252,665.749 704.5,670.5C 720.557,690.734 737.223,710.567 754.5,730C 761.419,726.246 768.752,723.079 776.5,720.5C 780.818,719.982 785.151,719.649 789.5,719.5C 793.858,719.302 798.025,719.968 802,721.5C 847.934,615.002 892.934,509.002 937,403.5C 938.457,399.28 940.623,395.446 943.5,392C 942.978,391.439 942.645,390.772 942.5,390C 955.092,361.545 967.425,333.379 979.5,305.5C 980.492,305.672 981.158,305.338 981.5,304.5C 983.074,302.898 983.741,300.898 983.5,298.5C 986.289,290.921 989.623,283.588 993.5,276.5C 995.38,274.245 996.38,271.578 996.5,268.5C 997.404,267.791 997.737,266.791 997.5,265.5C 999.379,264.105 1000.38,262.105 1000.5,259.5C 1005.28,246.604 1010.61,233.938 1016.5,221.5C 1018.25,219.967 1019.25,217.967 1019.5,215.5C 1026.83,197.877 1034.17,180.21 1041.5,162.5C 1044.38,159.481 1046.05,155.814 1046.5,151.5C 1046.75,148.771 1047.75,146.438 1049.5,144.5C 1052.44,140.812 1054.11,136.479 1054.5,131.5C 1057.37,124.936 1060.37,118.436 1063.5,112C 1059.06,108.239 1054.56,104.405 1050,100.5C 1046.22,96.5659 1043.06,92.2325 1040.5,87.5C 1036.64,77.8572 1034.3,67.8572 1033.5,57.5C 1035.61,35.0066 1046.94,18.6733 1067.5,8.5C 1102.64,-2.31251 1128.3,8.68749 1144.5,41.5C 1145.85,47.2523 1147.18,52.919 1148.5,58.5 Z"/></g>
<g><path style="opacity:0.004" fill="#fefffe" d="M 1118.5,9.5 C 1119.83,10.1667 1119.83,10.1667 1118.5,9.5 Z"/></g>
<g><path style="opacity:0.974" fill="#fe0301" d="M 1033.5,57.5 C 1034.3,67.8572 1036.64,77.8572 1040.5,87.5C 1043.06,92.2325 1046.22,96.5659 1050,100.5C 1054.56,104.405 1059.06,108.239 1063.5,112C 1060.37,118.436 1057.37,124.936 1054.5,131.5C 1052.42,135.612 1050.75,139.946 1049.5,144.5C 1047.75,146.438 1046.75,148.771 1046.5,151.5C 1044.48,154.899 1042.82,158.566 1041.5,162.5C 1034.17,180.21 1026.83,197.877 1019.5,215.5C 1017.75,217.033 1016.75,219.033 1016.5,221.5C 1010.61,233.938 1005.28,246.604 1000.5,259.5C 998.912,261.113 997.912,263.113 997.5,265.5C 997.737,266.791 997.404,267.791 996.5,268.5C 994.62,270.755 993.62,273.422 993.5,276.5C 989.623,283.588 986.289,290.921 983.5,298.5C 981.926,300.102 981.259,302.102 981.5,304.5C 981.158,305.338 980.492,305.672 979.5,305.5C 979.5,222.833 979.5,140.167 979.5,57.5C 997.709,57.5337 1015.71,57.5337 1033.5,57.5 Z"/></g>
<g><path style="opacity:0.99" fill="#fe0000" d="M 979.5,1071.5 C 979.5,826.833 979.5,582.167 979.5,337.5C 980.429,333.873 981.263,330.207 982,326.5C 993.817,299.884 1005.32,273.217 1016.5,246.5C 1018.38,245.105 1019.38,243.105 1019.5,240.5C 1030.01,214.935 1040.68,189.601 1051.5,164.5C 1054.75,160.92 1056.75,156.586 1057.5,151.5C 1057.72,148.491 1058.72,145.824 1060.5,143.5C 1063.38,140.481 1065.05,136.814 1065.5,132.5C 1065.5,132.167 1065.5,131.833 1065.5,131.5C 1067.38,130.105 1068.38,128.105 1068.5,125.5C 1069.2,122.017 1070.2,118.684 1071.5,115.5C 1073.17,115.5 1074.83,115.5 1076.5,115.5C 1076.61,116.117 1076.94,116.617 1077.5,117C 1085.68,117.823 1093.68,117.656 1101.5,116.5C 1118.11,112.563 1130.78,103.23 1139.5,88.5C 1142.86,84.9302 1144.53,80.5969 1144.5,75.5C 1144.56,74.391 1144.89,73.391 1145.5,72.5C 1146.27,67.9714 1146.94,63.3047 1147.5,58.5C 1147.83,58.5 1148.17,58.5 1148.5,58.5C 1166.09,57.5143 1183.76,57.181 1201.5,57.5C 1201.83,437.501 1201.5,817.501 1200.5,1197.5C 1134.27,1143.23 1060.6,1101.23 979.5,1071.5 Z"/></g>
<g><path style="opacity:1" fill="#ff8684" d="M 1147.5,58.5 C 1146.94,63.3047 1146.27,67.9714 1145.5,72.5C 1145.33,68.1539 1145.5,63.8206 1146,59.5C 1146.38,58.944 1146.88,58.6107 1147.5,58.5 Z"/></g>
<g><path style="opacity:1" fill="#ff675f" d="M 1144.5,75.5 C 1144.53,80.5969 1142.86,84.9302 1139.5,88.5C 1141.31,84.1362 1142.98,79.8029 1144.5,75.5 Z"/></g>
<g><path style="opacity:1" fill="#ff9c9b" d="M 1076.5,115.5 C 1084.78,116.44 1093.11,116.773 1101.5,116.5C 1093.68,117.656 1085.68,117.823 1077.5,117C 1076.94,116.617 1076.61,116.117 1076.5,115.5 Z"/></g>
<g><path style="opacity:1" fill="#ff7470" d="M 1068.5,125.5 C 1068.38,128.105 1067.38,130.105 1065.5,131.5C 1065.91,129.113 1066.91,127.113 1068.5,125.5 Z"/></g>
<g><path style="opacity:1" fill="#ff9e9b" d="M 1054.5,131.5 C 1054.11,136.479 1052.44,140.812 1049.5,144.5C 1050.75,139.946 1052.42,135.612 1054.5,131.5 Z"/></g>
<g><path style="opacity:1" fill="#ff5c52" d="M 1065.5,132.5 C 1065.05,136.814 1063.38,140.481 1060.5,143.5C 1061.8,139.573 1063.47,135.906 1065.5,132.5 Z"/></g>
<g><path style="opacity:1" fill="#ffadaa" d="M 1046.5,151.5 C 1046.05,155.814 1044.38,159.481 1041.5,162.5C 1042.82,158.566 1044.48,154.899 1046.5,151.5 Z"/></g>
<g><path style="opacity:1" fill="#ff6157" d="M 1057.5,151.5 C 1056.75,156.586 1054.75,160.92 1051.5,164.5C 1052.75,159.681 1054.75,155.347 1057.5,151.5 Z"/></g>
<g><path style="opacity:1" fill="#ff9a98" d="M 1019.5,215.5 C 1019.25,217.967 1018.25,219.967 1016.5,221.5C 1016.75,219.033 1017.75,217.033 1019.5,215.5 Z"/></g>
<g><path style="opacity:1" fill="#ff7470" d="M 1019.5,240.5 C 1019.38,243.105 1018.38,245.105 1016.5,246.5C 1016.91,244.113 1017.91,242.113 1019.5,240.5 Z"/></g>
<g><path style="opacity:1" fill="#ff9794" d="M 1000.5,259.5 C 1000.38,262.105 999.379,264.105 997.5,265.5C 997.912,263.113 998.912,261.113 1000.5,259.5 Z"/></g>
<g><path style="opacity:1" fill="#ff9b99" d="M 996.5,268.5 C 996.38,271.578 995.38,274.245 993.5,276.5C 993.62,273.422 994.62,270.755 996.5,268.5 Z"/></g>
<g><path style="opacity:0.981" fill="#fefefe" d="M 2362.5,329.5 C 2362.5,331.5 2363.5,332.5 2365.5,332.5C 2381.9,354.009 2395.07,377.009 2405,401.5C 2419.97,443.09 2436.31,484.09 2454,524.5C 2458.22,536.408 2462.89,548.075 2468,559.5C 2502.7,645.384 2537.2,731.384 2571.5,817.5C 2572.35,818.948 2573.35,820.281 2574.5,821.5C 2574.07,824.032 2574.9,826.366 2577,828.5C 2585.01,849.23 2593.01,869.897 2601,890.5C 2622.39,941.994 2643.39,993.661 2664,1045.5C 2669.92,1063.43 2673.75,1081.76 2675.5,1100.5C 2675.62,1113.35 2672.62,1125.35 2666.5,1136.5C 2638.79,1178.68 2601.13,1191.18 2553.5,1174C 2549.18,1170.96 2545.01,1168.46 2541,1166.5C 2537.17,1162.67 2533.33,1158.83 2529.5,1155C 2514.4,1130.47 2502.06,1104.47 2492.5,1077C 2491.23,1075.69 2490.23,1074.19 2489.5,1072.5C 2475.97,1036.77 2462.63,1001.27 2449.5,966C 2448.99,964.831 2448.16,963.998 2447,963.5C 2332.53,964.833 2218.03,964.833 2103.5,963.5C 2089.64,998.448 2076.48,1034.11 2064,1070.5C 2057.28,1086 2050.94,1101.66 2045,1117.5C 2041.41,1124.6 2037.58,1131.6 2033.5,1138.5C 2019.52,1171.36 1994.18,1185.53 1957.5,1181C 1923.85,1176.25 1899.85,1158.09 1885.5,1126.5C 1883.37,1118.25 1881.7,1109.92 1880.5,1101.5C 1883.63,1073.94 1891.3,1047.78 1903.5,1023C 1903.17,1022.67 1902.83,1022.33 1902.5,1022C 1917.81,986.151 1932.31,949.651 1946,912.5C 2014.75,740.154 2082.92,567.154 2150.5,393.5C 2158.44,374.315 2168.61,355.982 2181,338.5C 2198.95,317.471 2221.12,304.138 2247.5,298.5C 2268.28,295.48 2288.94,295.98 2309.5,300C 2310.42,301.756 2311.59,301.923 2313,300.5C 2320.12,303.457 2327.29,306.29 2334.5,309C 2344.42,315.116 2353.75,321.949 2362.5,329.5 Z M 2150.5,829.5 C 2154.68,818.354 2158.51,806.688 2162,794.5C 2168.94,774.904 2176.44,755.404 2184.5,736C 2184.36,735.228 2184.02,734.561 2183.5,734C 2184.77,732.693 2185.77,731.193 2186.5,729.5C 2192.68,713.446 2198.18,697.113 2203,680.5C 2207.02,671.207 2210.85,661.874 2214.5,652.5C 2214.17,651.833 2213.83,651.167 2213.5,650.5C 2217.5,640.834 2221.5,631.167 2225.5,621.5C 2225.39,620.558 2225.06,619.725 2224.5,619C 2226.14,616.871 2227.47,614.538 2228.5,612C 2243.51,569.613 2258.68,526.779 2274,483.5C 2315.63,598.771 2357.79,714.104 2400.5,829.5C 2317.34,829.507 2234.01,829.507 2150.5,829.5 Z"/></g>
<g><path style="opacity:0.983" fill="#fefefe" d="M 3085.5,1145.5 C 3078.69,1152.6 3071.36,1159.27 3063.5,1165.5C 3049.07,1175.32 3033.07,1180.48 3015.5,1181C 2974.87,1185.93 2942.87,1171.93 2919.5,1139C 2913.64,1129.93 2908.97,1120.6 2905.5,1111C 2901.95,1100.79 2898.45,1090.63 2895,1080.5C 2840.2,859.947 2785.7,639.28 2731.5,418.5C 2727.23,397.27 2726.56,375.937 2729.5,354.5C 2732.76,344.878 2737.26,335.878 2743,327.5C 2748.78,321.554 2754.61,315.888 2760.5,310.5C 2771.02,304.339 2782.02,300.005 2793.5,297.5C 2816.6,293.718 2837.93,297.385 2857.5,308.5C 2867.44,317.041 2874.94,327.375 2880,339.5C 2882.49,346.24 2885.16,352.907 2888,359.5C 2890.35,367.898 2892.85,376.231 2895.5,384.5C 2934.67,558.463 2973.83,732.796 3013,907.5C 3057.92,742.497 3102.25,577.164 3146,411.5C 3149.67,400.18 3153.33,388.847 3157,377.5C 3180.89,313.953 3226.39,287.453 3293.5,298C 3317.91,303.044 3337.74,315.544 3353,335.5C 3363.77,350.043 3371.6,366.043 3376.5,383.5C 3395.52,448.381 3413.35,513.714 3430,579.5C 3431.24,582.277 3432.41,585.11 3433.5,588C 3433.17,588.333 3432.83,588.667 3432.5,589C 3433.72,591.052 3434.72,593.219 3435.5,595.5C 3441.48,620.214 3448.15,644.714 3455.5,669C 3457.62,676.024 3459.12,683.191 3460,690.5C 3461,692.5 3462,694.5 3463,696.5C 3463.72,698.112 3463.55,699.612 3462.5,701C 3464.36,703.717 3465.69,706.717 3466.5,710C 3472.31,730.314 3477.48,750.814 3482,771.5C 3486.4,782.895 3490.07,794.562 3493,806.5C 3493.74,808.441 3493.58,810.274 3492.5,812C 3495.48,817.504 3497.65,823.338 3499,829.5C 3499.67,833.5 3500.33,837.5 3501,841.5C 3506.04,854.73 3509.71,868.396 3512,882.5C 3514.88,889.948 3517.21,897.614 3519,905.5C 3520.31,904.088 3521.14,902.421 3521.5,900.5C 3559.39,732.328 3596.89,563.995 3634,395.5C 3637.59,381.88 3641.25,368.213 3645,354.5C 3665.29,304.826 3701.12,286.826 3752.5,300.5C 3792.02,317.907 3809.52,348.241 3805,391.5C 3798.81,430.57 3790.15,468.903 3779,506.5C 3778.33,511.167 3777.67,515.833 3777,520.5C 3771.7,538.943 3767.03,557.61 3763,576.5C 3762,578.833 3761,581.167 3760,583.5C 3758.45,592.552 3756.62,601.552 3754.5,610.5C 3753.81,612.274 3752.98,613.941 3752,615.5C 3747.48,638.102 3742.31,660.602 3736.5,683C 3735.6,686.578 3734.27,689.911 3732.5,693C 3733.06,693.725 3733.39,694.558 3733.5,695.5C 3730.47,702.865 3728.63,710.531 3728,718.5C 3724.99,728.892 3721.99,739.225 3719,749.5C 3714.66,769.207 3710.16,788.874 3705.5,808.5C 3704.93,810.917 3703.93,813.084 3702.5,815C 3703.06,815.725 3703.39,816.558 3703.5,817.5C 3700.26,831.327 3696.43,844.993 3692,858.5C 3687.36,881.063 3682.19,903.563 3676.5,926C 3675.6,929.578 3674.27,932.911 3672.5,936C 3673.06,936.725 3673.39,937.558 3673.5,938.5C 3672.27,941.481 3671.1,944.481 3670,947.5C 3668.45,956.552 3666.62,965.552 3664.5,974.5C 3663.81,976.274 3662.98,977.941 3662,979.5C 3659.86,988.019 3658.19,996.685 3657,1005.5C 3652.12,1020.18 3648.28,1035.18 3645.5,1050.5C 3644.87,1052.57 3643.87,1054.4 3642.5,1056C 3643.55,1057.39 3643.72,1058.89 3643,1060.5C 3637.43,1080.31 3631.27,1099.98 3624.5,1119.5C 3614.33,1142.48 3598.66,1159.98 3577.5,1172C 3544.81,1184.66 3512.14,1184.66 3479.5,1172C 3454.33,1157.5 3436.83,1136.67 3427,1109.5C 3419.48,1085.61 3412.15,1061.61 3405,1037.5C 3359.24,867.351 3313.57,697.351 3268,527.5C 3265.76,533.515 3263.42,539.515 3261,545.5C 3259.92,553.716 3258.08,561.716 3255.5,569.5C 3254.87,571.567 3253.87,573.4 3252.5,575C 3252.96,575.414 3253.29,575.914 3253.5,576.5C 3210.28,732.962 3167.62,889.296 3125.5,1045.5C 3118.87,1066.79 3112.2,1088.12 3105.5,1109.5C 3100.47,1122.5 3093.8,1134.5 3085.5,1145.5 Z"/></g>
<g><path style="opacity:0.981" fill="#fefefe" d="M 4481.5,389.5 C 4486.41,396.417 4491.74,403.084 4497.5,409.5C 4517.63,437.982 4528.96,469.649 4531.5,504.5C 4530.5,532.672 4519.16,555.839 4497.5,574C 4471.56,590.725 4444.56,592.725 4416.5,580C 4413.46,576.953 4410.12,574.287 4406.5,572C 4395.84,559.161 4386.18,545.661 4377.5,531.5C 4363.27,498.392 4342.94,470.225 4316.5,447C 4299.63,435.71 4281.13,428.543 4261,425.5C 4225.28,420.774 4189.78,421.94 4154.5,429C 4132.16,435.226 4112.16,445.893 4094.5,461C 4090.22,465.103 4086.55,469.603 4083.5,474.5C 4082.62,474.369 4081.96,474.702 4081.5,475.5C 4062.51,504.413 4061.85,533.746 4079.5,563.5C 4093.14,580.495 4109.8,592.828 4129.5,600.5C 4145.11,609.594 4161.78,615.927 4179.5,619.5C 4189.88,623.147 4200.55,625.98 4211.5,628C 4225.46,633.137 4239.8,636.804 4254.5,639C 4278.34,645.704 4302.34,652.038 4326.5,658C 4348.72,664.684 4370.55,671.851 4392,679.5C 4418.82,690.162 4444.66,702.829 4469.5,717.5C 4477.09,723.112 4484.75,728.445 4492.5,733.5C 4502.86,743.194 4512.86,753.194 4522.5,763.5C 4532.83,777.891 4541.83,792.724 4549.5,808C 4552.08,814.126 4554.58,820.293 4557,826.5C 4573.21,884.459 4572.21,942.125 4554,999.5C 4528.12,1063.49 4483.95,1110.99 4421.5,1142C 4360.01,1169.83 4295.35,1183 4227.5,1181.5C 4161.75,1183.11 4098.91,1170.78 4039,1144.5C 3980.97,1115.17 3937.47,1071.84 3908.5,1014.5C 3903.86,1004.42 3899.69,994.083 3896,983.5C 3892.54,971.275 3889.88,958.941 3888,946.5C 3883.53,908.607 3897.36,879.607 3929.5,859.5C 3976.07,841.735 4011.57,854.735 4036,898.5C 4044.25,919.129 4053.25,939.463 4063,959.5C 4072.16,977.663 4083.66,994.163 4097.5,1009C 4123.92,1032.89 4155.26,1046.56 4191.5,1050C 4212.83,1050.67 4234.17,1050.67 4255.5,1050C 4301.38,1046.14 4340.21,1027.64 4372,994.5C 4396.85,960.263 4401.52,923.263 4386,883.5C 4375.44,864.107 4360.61,848.773 4341.5,837.5C 4322.5,826.915 4302.5,818.748 4281.5,813C 4234.07,800.768 4186.57,788.601 4139,776.5C 4103.32,765.829 4068.48,752.996 4034.5,738C 3934.5,687.843 3892,607.01 3907,495.5C 3920.24,432.146 3953.58,383.813 4007,350.5C 4027.36,337.831 4048.53,327.498 4070.5,319.5C 4145.54,296.502 4222.2,290.335 4300.5,301C 4348.45,308.524 4392.78,324.69 4433.5,349.5C 4442.31,355.808 4450.97,362.308 4459.5,369C 4466.77,376.176 4474.1,383.009 4481.5,389.5 Z"/></g>
<g><path style="opacity:0.982" fill="#fefefe" d="M 4677.5,321.5 C 4683.07,317.777 4688.23,313.444 4693,308.5C 4693.33,308.833 4693.67,309.167 4694,309.5C 4704.32,302.125 4715.82,297.959 4728.5,297C 4747.63,294.688 4765.8,297.521 4783,305.5C 4792.45,310.949 4799.62,318.115 4804.5,327C 4807.5,331.344 4810.5,335.678 4813.5,340C 4813.17,340.333 4812.83,340.667 4812.5,341C 4817.13,348.477 4821.13,356.31 4824.5,364.5C 4850.79,438.745 4875.95,513.078 4900,587.5C 4901.4,589.518 4902.56,591.684 4903.5,594C 4919.26,642.795 4935.59,691.462 4952.5,740C 4952.17,740.333 4951.83,740.667 4951.5,741C 4952.86,742.204 4953.86,743.704 4954.5,745.5C 4964.46,776.556 4974.79,807.056 4985.5,837C 4987.48,844.765 4990.15,852.265 4993.5,859.5C 4993.39,860.442 4993.06,861.275 4992.5,862C 4993.85,863.718 4995.02,865.552 4996,867.5C 5008.09,904.651 5020.42,941.651 5033,978.5C 5102.14,772.41 5171.47,566.41 5241,360.5C 5246.94,340.791 5257.77,324.291 5273.5,311C 5290.45,298.677 5309.78,294.01 5331.5,297C 5370.45,303.508 5394.79,326.008 5404.5,364.5C 5404.83,368.5 5405.17,372.5 5405.5,376.5C 5404.82,385.561 5403.65,394.561 5402,403.5C 5387.25,449.671 5370.75,495.171 5352.5,540C 5353.02,540.561 5353.36,541.228 5353.5,542C 5352.24,543.806 5351.07,545.639 5350,547.5C 5320.6,628.701 5290.6,709.701 5260,790.5C 5237.38,852.304 5214.88,913.804 5192.5,975C 5187.73,987.262 5182.9,999.429 5178,1011.5C 5167.68,1043.49 5156.01,1074.82 5143,1105.5C 5134.49,1121.85 5123.99,1136.85 5111.5,1150.5C 5101.42,1158.81 5091.08,1165.97 5080.5,1172C 5001.6,1197.4 4945.1,1172.9 4911,1098.5C 4901.09,1074.38 4891.75,1050.05 4883,1025.5C 4809.96,824.107 4736.3,622.774 4662,421.5C 4657.18,405.123 4654.51,388.457 4654,371.5C 4655.91,357.78 4660.57,345.113 4668,333.5C 4671.42,329.621 4674.59,325.621 4677.5,321.5 Z"/></g>
<g><path style="opacity:0.981" fill="#fefefe" d="M 6066.5,362.5 C 6089.71,381.583 6109.21,403.916 6125,429.5C 6128.26,437.735 6131.92,445.735 6136,453.5C 6138.55,462.66 6141.22,471.66 6144,480.5C 6145.35,492.809 6145.68,505.142 6145,517.5C 6144.18,524.113 6142.51,530.446 6140,536.5C 6137.38,542.283 6134.55,547.949 6131.5,553.5C 6125.18,560.599 6118.52,567.432 6111.5,574C 6087.68,590.186 6062.35,592.853 6035.5,582C 6023.77,575.103 6014.1,565.936 6006.5,554.5C 5992.73,530.763 5978.9,507.096 5965,483.5C 5954.08,469.081 5941.58,456.081 5927.5,444.5C 5910.13,434.319 5891.47,427.819 5871.5,425C 5842.65,421.592 5813.81,421.759 5785,425.5C 5762.19,429.992 5741.02,438.492 5721.5,451C 5684.96,476.782 5673.79,510.948 5688,553.5C 5691.35,559.661 5695.52,564.994 5700.5,569.5C 5702.89,573.402 5705.89,576.902 5709.5,580C 5716.73,586.046 5724.07,591.213 5731.5,595.5C 5743.48,601.913 5755.81,607.58 5768.5,612.5C 5783.68,616.793 5798.68,621.293 5813.5,626C 5821.89,627.553 5830.22,629.386 5838.5,631.5C 5840.27,632.187 5841.94,633.02 5843.5,634C 5851.03,635.555 5858.53,637.055 5866,638.5C 5869.58,639.398 5872.91,640.731 5876,642.5C 5876.72,641.941 5877.56,641.608 5878.5,641.5C 5885.43,644.664 5892.76,646.497 5900.5,647C 5906.72,648.273 5912.72,650.273 5918.5,653C 5972.2,665.254 6023.03,684.088 6071,709.5C 6147.15,754.489 6184.65,821.156 6183.5,909.5C 6182.79,934.185 6179.46,958.518 6173.5,982.5C 6171.02,989.395 6168.69,996.395 6166.5,1003.5C 6160.36,1019.3 6152.7,1033.8 6143.5,1047C 6143.83,1047.33 6144.17,1047.67 6144.5,1048C 6141.83,1049.83 6140.17,1052.33 6139.5,1055.5C 6136.12,1058.56 6133.46,1062.23 6131.5,1066.5C 6114.14,1086.37 6094.8,1104.2 6073.5,1120C 6031.95,1147.23 5986.62,1165.23 5937.5,1174C 5870.02,1184.5 5802.69,1183.84 5735.5,1172C 5693.9,1163.12 5655.4,1147.62 5620,1125.5C 5566.16,1088.18 5528.99,1038.51 5508.5,976.5C 5504.13,958.499 5501.96,940.165 5502,921.5C 5505.44,897.473 5516.6,878.639 5535.5,865C 5561.06,848.939 5587.73,847.273 5615.5,860C 5631.94,871.109 5644.44,885.609 5653,903.5C 5662.47,928.941 5673.97,953.441 5687.5,977C 5695.26,990.501 5705.26,1002.83 5717.5,1014C 5721.46,1017.48 5725.8,1020.31 5730.5,1022.5C 5730.37,1023.38 5730.7,1024.04 5731.5,1024.5C 5753.97,1039.12 5778.63,1047.62 5805.5,1050C 5827.17,1050.67 5848.83,1050.67 5870.5,1050C 5904.47,1046.7 5935.14,1035.53 5962.5,1016.5C 5964.51,1015.03 5966.18,1013.36 5967.5,1011.5C 5975.5,1006.83 5981.83,1000.5 5986.5,992.5C 6001.58,974.616 6009.25,953.283 6009.5,928.5C 6009.87,902.166 6001.37,879.166 5984,859.5C 5974.99,851.409 5965.49,843.909 5955.5,837C 5945.1,831.422 5934.43,826.422 5923.5,822C 5908.17,817.06 5892.84,812.227 5877.5,807.5C 5838.8,797.888 5800.13,788.388 5761.5,779C 5729.67,769.583 5698.34,758.75 5667.5,746.5C 5623.42,728.295 5586.42,700.628 5556.5,663.5C 5529.78,625.819 5517.11,583.652 5518.5,537C 5519.22,461.549 5549.89,401.549 5610.5,357C 5636.58,340.141 5663.92,326.808 5692.5,317C 5761.67,296.831 5832.34,291.165 5904.5,300C 5905,300.5 5905.5,301 5906,301.5C 5909.07,300.383 5912.24,300.216 5915.5,301C 5955.92,307.903 5994.09,320.403 6030,338.5C 6042.61,345.96 6054.77,353.96 6066.5,362.5 Z"/></g>
<g><path style="opacity:1" fill="#ff9b98" d="M 983.5,298.5 C 983.741,300.898 983.074,302.898 981.5,304.5C 981.259,302.102 981.926,300.102 983.5,298.5 Z"/></g>
<g><path style="opacity:0.004" fill="#fefffe" d="M 2773.5,301.5 C 2774.83,302.167 2774.83,302.167 2773.5,301.5 Z"/></g>
<g><path style="opacity:0.004" fill="#fefffe" d="M 2760.5,310.5 C 2759.83,309.167 2759.83,309.167 2760.5,310.5 Z"/></g>
<g><path style="opacity:0.004" fill="#fefffe" d="M 4677.5,321.5 C 4676.83,320.167 4676.83,320.167 4677.5,321.5 Z"/></g>
<g><path style="opacity:0.004" fill="#fefffe" d="M 2362.5,328.5 C 2363.83,329.167 2363.83,329.167 2362.5,328.5 Z"/></g>
<g><path style="opacity:0.004" fill="#fefffe" d="M 2365.5,331.5 C 2366.83,332.167 2366.83,332.167 2365.5,331.5 Z"/></g>
<g><path style="opacity:0.004" fill="#fefffe" d="M 4036.5,331.5 C 4037.83,332.167 4037.83,332.167 4036.5,331.5 Z"/></g>
<g><path style="opacity:0.004" fill="#fefffe" d="M 4437.5,350.5 C 4438.83,351.167 4438.83,351.167 4437.5,350.5 Z"/></g>
<g><path style="opacity:0.004" fill="#000000" d="M 6066.5,361.5 C 6067.83,362.167 6067.83,362.167 6066.5,361.5 Z"/></g>
<g><path style="opacity:0.004" fill="#fefffe" d="M 4481.5,388.5 C 4482.83,389.167 4482.83,389.167 4481.5,388.5 Z"/></g>
<g><path style="opacity:0.004" fill="#fefffe" d="M 940.5,391.5 C 941.833,392.167 941.833,392.167 940.5,391.5 Z"/></g>
<g><path style="opacity:0.004" fill="#fefffe" d="M 6101.5,394.5 C 6102.83,395.167 6102.83,395.167 6101.5,394.5 Z"/></g>
<g><path style="opacity:0.004" fill="#fefffe" d="M 955.5,395.5 C 956.833,396.167 956.833,396.167 955.5,395.5 Z"/></g>
<g><path style="opacity:0.004" fill="#00fffe" d="M 595.5,419.5 C 596.833,420.167 596.833,420.167 595.5,419.5 Z"/></g>
<g><path style="opacity:1" fill="#08b0f0" d="M 427.5,420.5 C 428.271,432.413 431.604,443.58 437.5,454C 416.785,471.579 395.452,488.079 373.5,503.5C 372.336,476.336 372.17,449.003 373,421.5C 391.09,420.508 409.257,420.174 427.5,420.5 Z"/></g>
<g><path style="opacity:1" fill="#08b0f0" d="M 542.5,420.5 C 560.167,420.5 577.833,420.5 595.5,420.5C 595.5,461.833 595.5,503.167 595.5,544.5C 593.983,544.489 592.816,543.823 592,542.5C 569.657,516.323 547.49,489.99 525.5,463.5C 535.742,450.882 541.409,436.548 542.5,420.5 Z"/></g>
<g><path style="opacity:0.004" fill="#fefffe" d="M 4325.5,457.5 C 4326.83,458.167 4326.83,458.167 4325.5,457.5 Z"/></g>
<g><path style="opacity:1" fill="#01b0f0" d="M 595.5,563.5 C 595.5,710.833 595.5,858.167 595.5,1005.5C 533.904,1007.61 473.07,1015.28 413,1028.5C 400.979,1031.73 388.979,1035.06 377,1038.5C 375.564,1038.44 374.231,1038.11 373,1037.5C 372.168,865.097 372.335,692.764 373.5,520.5C 373.393,518.097 374.393,516.264 376.5,515C 398.455,498.047 420.122,480.713 441.5,463C 442.5,462.333 443.5,462.333 444.5,463C 452.177,470.668 461.177,476.001 471.5,479C 487.935,481.928 503.102,479.095 517,470.5C 543.675,499.847 569.675,529.847 595,560.5C 595.483,561.448 595.649,562.448 595.5,563.5 Z"/></g>
<g><path style="opacity:0.004" fill="#000000" d="M 4083.5,474.5 C 4084.83,475.167 4084.83,475.167 4083.5,474.5 Z"/></g>
<g><path style="opacity:0.004" fill="#fefffe" d="M 891.5,506.5 C 892.833,507.167 892.833,507.167 891.5,506.5 Z"/></g>
<g><path style="opacity:0.004" fill="#fefffe" d="M 5362.5,517.5 C 5363.83,518.167 5363.83,518.167 5362.5,517.5 Z"/></g>
<g><path style="opacity:0.004" fill="#fefffe" d="M 368.5,525.5 C 369.833,526.167 369.833,526.167 368.5,525.5 Z"/></g>
<g><path style="opacity:0.004" fill="#fefffe" d="M 4377.5,531.5 C 4376.83,532.167 4376.83,532.167 4377.5,531.5 Z"/></g>
<g><path style="opacity:0.004" fill="#fefffe" d="M 332.5,533.5 C 333.833,534.167 333.833,534.167 332.5,533.5 Z"/></g>
<g><path style="opacity:0.004" fill="#fefffe" d="M 895.5,536.5 C 896.833,537.167 896.833,537.167 895.5,536.5 Z"/></g>
<g><path style="opacity:0.004" fill="#fefffe" d="M 6139.5,539.5 C 6140.83,540.167 6140.83,540.167 6139.5,539.5 Z"/></g>
<g><path style="opacity:0.004" fill="#fefffe" d="M 5689.5,552.5 C 5690.83,553.167 5690.83,553.167 5689.5,552.5 Z"/></g>
<g><path style="opacity:0.004" fill="#fefffe" d="M 6131.5,553.5 C 6132.83,554.167 6132.83,554.167 6131.5,553.5 Z"/></g>
<g><path style="opacity:0.004" fill="#fefffe" d="M 328.5,556.5 C 329.833,557.167 329.833,557.167 328.5,556.5 Z"/></g>
<g><path style="opacity:0.004" fill="#fefffe" d="M 869.5,558.5 C 870.833,559.167 870.833,559.167 869.5,558.5 Z"/></g>
<g><path style="opacity:0.004" fill="#fefffe" d="M 5700.5,568.5 C 5701.83,569.167 5701.83,569.167 5700.5,568.5 Z"/></g>
<g><path style="opacity:0.004" fill="#fefffe" d="M 6016.5,569.5 C 6017.83,570.167 6017.83,570.167 6016.5,569.5 Z"/></g>
<g><path style="opacity:0.004" fill="#fefffe" d="M 262.5,591.5 C 261.833,590.167 261.833,590.167 262.5,591.5 Z"/></g>
<g><path style="opacity:0.004" fill="#fefffe" d="M 5727.5,590.5 C 5728.83,591.167 5728.83,591.167 5727.5,590.5 Z"/></g>
<g><path style="opacity:0.004" fill="#fefffe" d="M 868.5,599.5 C 869.833,600.167 869.833,600.167 868.5,599.5 Z"/></g>
<g><path style="opacity:0.004" fill="#fefffe" d="M 224.5,621.5 C 223.833,620.167 223.833,620.167 224.5,621.5 Z"/></g>
<g><path style="opacity:0.004" fill="#fefffe" d="M 130.5,634.5 C 131.833,635.167 131.833,635.167 130.5,634.5 Z"/></g>
<g><path style="opacity:0.004" fill="#fefffe" d="M 4920.5,642.5 C 4921.83,643.167 4921.83,643.167 4920.5,642.5 Z"/></g>
<g><path style="opacity:0.004" fill="#fefffe" d="M 846.5,651.5 C 847.833,652.167 847.833,652.167 846.5,651.5 Z"/></g>
<g><path style="opacity:0.004" fill="#000000" d="M 68.5,662.5 C 69.8333,663.167 69.8333,663.167 68.5,662.5 Z"/></g>
<g><path style="opacity:0.999" fill="#92d050" d="M 123.5,664.5 C 124.605,677.844 128.772,690.177 136,701.5C 153.908,722.521 176.074,728.688 202.5,720C 224.379,707.681 236.046,689.181 237.5,664.5C 255.833,664.5 274.167,664.5 292.5,664.5C 292.833,797.835 292.5,931.168 291.5,1064.5C 230.058,1088.66 172.225,1118.66 118,1154.5C 103.627,1165.58 89.4604,1176.92 75.5,1188.5C 73.6984,1189.99 71.6984,1190.99 69.5,1191.5C 69.5,1015.83 69.5,840.167 69.5,664.5C 87.5,664.5 105.5,664.5 123.5,664.5 Z"/></g>
<g><path style="opacity:1" fill="#9cde55" d="M 71.5,665.5 C 88.5033,665.333 105.503,665.5 122.5,666C 105.837,666.5 89.17,666.667 72.5,666.5C 72.6667,840.167 72.5,1013.83 72,1187.5C 71.5,1013.5 71.3333,839.5 71.5,665.5 Z"/></g>
<g><path style="opacity:0.004" fill="#fefffe" d="M 704.5,669.5 C 705.833,670.167 705.833,670.167 704.5,669.5 Z"/></g>
<g><path style="opacity:0.004" fill="#fefffe" d="M 5585.5,697.5 C 5586.83,698.167 5586.83,698.167 5585.5,697.5 Z"/></g>
<g><path style="opacity:0.004" fill="#fefffe" d="M 4492.5,732.5 C 4493.83,733.167 4493.83,733.167 4492.5,732.5 Z"/></g>
<g><path style="opacity:0.004" fill="#fefffe" d="M 742.5,736.5 C 741.833,737.167 741.833,737.167 742.5,736.5 Z"/></g>
<g><path style="opacity:0.004" fill="#fefffe" d="M 835.5,740.5 C 836.833,741.167 836.833,741.167 835.5,740.5 Z"/></g>
<g><path style="opacity:0.004" fill="#fefffe" d="M 5272.5,760.5 C 5273.83,761.167 5273.83,761.167 5272.5,760.5 Z"/></g>
<g><path style="opacity:0.004" fill="#fefffe" d="M 4522.5,762.5 C 4523.83,763.167 4523.83,763.167 4522.5,762.5 Z"/></g>
<g><path style="opacity:0.004" fill="#fefffe" d="M 6139.5,765.5 C 6140.83,766.167 6140.83,766.167 6139.5,765.5 Z"/></g>
<g><path style="opacity:0.99" fill="#fec000" d="M 732.5,773.5 C 732.833,773.5 733.167,773.5 733.5,773.5C 733.334,778.179 733.501,782.845 734,787.5C 734.278,788.416 734.778,789.082 735.5,789.5C 740.89,810.074 753.556,824.241 773.5,832C 817.299,836.695 841.632,817.195 846.5,773.5C 863.5,773.5 880.5,773.5 897.5,773.5C 897.5,862.167 897.5,950.833 897.5,1039.5C 824.811,1020.08 750.811,1009.08 675.5,1006.5C 675.5,928.833 675.5,851.167 675.5,773.5C 694.5,773.5 713.5,773.5 732.5,773.5 Z"/></g>
<g><path style="opacity:1" fill="#ffe6a1" d="M 733.5,773.5 C 734.458,778.658 735.125,783.991 735.5,789.5C 734.778,789.082 734.278,788.416 734,787.5C 733.501,782.845 733.334,778.179 733.5,773.5 Z"/></g>
<g><path style="opacity:0.004" fill="#fefffe" d="M 4544.5,795.5 C 4545.83,796.167 4545.83,796.167 4544.5,795.5 Z"/></g>
<g><path style="opacity:0.004" fill="#fefffe" d="M 5533.5,863.5 C 5534.83,864.167 5534.83,864.167 5533.5,863.5 Z"/></g>
<g><path style="opacity:0.004" fill="#fefffe" d="M 5986.5,992.5 C 5985.83,991.167 5985.83,991.167 5986.5,992.5 Z"/></g>
<g><path style="opacity:0.004" fill="#fefffe" d="M 5708.5,1002.5 C 5709.83,1003.17 5709.83,1003.17 5708.5,1002.5 Z"/></g>
<g><path style="opacity:0.004" fill="#0000ff" d="M 595.5,1005.5 C 596.833,1006.17 596.833,1006.17 595.5,1005.5 Z"/></g>
<g><path style="opacity:0.004" fill="#fefffe" d="M 5967.5,1011.5 C 5966.83,1010.17 5966.83,1010.17 5967.5,1011.5 Z"/></g>
<g><path style="opacity:0.004" fill="#fefffe" d="M 4105.5,1013.5 C 4106.83,1014.17 4106.83,1014.17 4105.5,1013.5 Z"/></g>
<g><path style="opacity:0.004" fill="#fefffe" d="M 4347.5,1013.5 C 4348.83,1014.17 4348.83,1014.17 4347.5,1013.5 Z"/></g>
<g><path style="opacity:0.004" fill="#fefffe" d="M 3908.5,1014.5 C 3907.83,1015.17 3907.83,1015.17 3908.5,1014.5 Z"/></g>
<g><path style="opacity:0.004" fill="#fefffe" d="M 5730.5,1021.5 C 5731.83,1022.17 5731.83,1022.17 5730.5,1021.5 Z"/></g>
<g><path style="opacity:0.004" fill="#fefffe" d="M 5950.5,1021.5 C 5951.83,1022.17 5951.83,1022.17 5950.5,1021.5 Z"/></g>
<g><path style="opacity:0.004" fill="#fefffe" d="M 6150.5,1038.5 C 6151.83,1039.17 6151.83,1039.17 6150.5,1038.5 Z"/></g>
<g><path style="opacity:0.004" fill="#fefffe" d="M 6139.5,1055.5 C 6140.83,1056.17 6140.83,1056.17 6139.5,1055.5 Z"/></g>
<g><path style="opacity:0.957" fill="#fefefe" d="M -0.5,1326.5 C -0.5,1323.83 -0.5,1321.17 -0.5,1318.5C 45.4777,1274.24 95.1444,1234.74 148.5,1200C 149.793,1199.51 151.127,1199.34 152.5,1199.5C 152.5,1198.5 152.5,1197.5 152.5,1196.5C 153.552,1196.65 154.552,1196.48 155.5,1196C 198.246,1169.46 242.58,1146.46 288.5,1127C 293.164,1126.68 297.164,1125.02 300.5,1122C 306.217,1120.31 311.884,1118.65 317.5,1117C 322.519,1114.63 327.519,1112.3 332.5,1110C 336.833,1109 341.167,1108 345.5,1107C 346.167,1106.33 346.833,1105.67 347.5,1105C 355.574,1103.61 363.241,1101.28 370.5,1098C 378.11,1096.93 385.277,1094.76 392,1091.5C 392.772,1091.64 393.439,1091.98 394,1092.5C 396.93,1090.93 400.097,1090.1 403.5,1090C 404.167,1089.33 404.833,1088.67 405.5,1088C 408.5,1087.67 411.5,1087.33 414.5,1087C 415.167,1086.33 415.833,1085.67 416.5,1085C 430.209,1081.38 444.209,1078.71 458.5,1077C 459.328,1076.09 460.328,1075.42 461.5,1075C 469.897,1074.48 478.23,1073.48 486.5,1072C 487.328,1071.09 488.328,1070.42 489.5,1070C 507.324,1069.13 524.991,1067.47 542.5,1065C 543.328,1064.09 544.328,1063.42 545.5,1063C 555.17,1062.38 564.836,1061.71 574.5,1061C 614.833,1060.33 655.167,1060.33 695.5,1061C 705.17,1061.62 714.836,1062.29 724.5,1063C 725.672,1063.42 726.672,1064.09 727.5,1065C 734.167,1065.33 740.833,1065.67 747.5,1066C 749.246,1066.47 750.913,1067.14 752.5,1068C 762.164,1068.71 771.83,1069.38 781.5,1070C 782.328,1070.91 783.328,1071.58 784.5,1072C 800.8,1073.52 816.8,1076.19 832.5,1080C 842.977,1083.15 853.643,1085.82 864.5,1088C 868.296,1089.68 872.129,1091.18 876,1092.5C 879.264,1091.47 882.097,1092.31 884.5,1095C 892.29,1096.42 899.957,1098.09 907.5,1100C 908.167,1100.67 908.833,1101.33 909.5,1102C 913.833,1103 918.167,1104 922.5,1105C 923.167,1105.67 923.833,1106.33 924.5,1107C 928.876,1107.82 933.209,1108.82 937.5,1110C 937.957,1110.41 938.291,1110.91 938.5,1111.5C 945.229,1113.48 951.896,1115.65 958.5,1118C 961.702,1120.39 965.369,1121.73 969.5,1122C 972.836,1125.02 976.836,1126.68 981.5,1127C 987.472,1130.48 993.805,1133.15 1000.5,1135C 1008.44,1138.63 1016.1,1142.63 1023.5,1147C 1029.3,1148.82 1034.64,1151.49 1039.5,1155C 1042.17,1155.67 1044.83,1156.33 1047.5,1157C 1061.67,1165.61 1076.67,1173.95 1092.5,1182C 1107,1191.32 1121.67,1200.49 1136.5,1209.5C 1158.54,1224.91 1180.21,1240.58 1201.5,1256.5C 1201.5,1257.5 1201.5,1258.5 1201.5,1259.5C 1202.55,1259.35 1203.55,1259.52 1204.5,1260C 1226.92,1278.08 1248.42,1297.25 1269,1317.5C 1271.47,1320.4 1271.97,1323.56 1270.5,1327C 1240.39,1355.77 1210.73,1384.77 1181.5,1414C 1180.83,1414.17 1180.17,1414.33 1179.5,1414.5C 1145.34,1381.99 1109,1352.16 1070.5,1325C 1006.24,1282.13 937.075,1248.96 863,1225.5C 860.212,1226.17 857.712,1225.33 855.5,1223C 847.128,1221.22 838.795,1219.55 830.5,1218C 829.833,1217.33 829.167,1216.67 828.5,1216C 821.669,1214.79 815.002,1213.12 808.5,1211C 796.722,1208.29 784.722,1206.29 772.5,1205C 771.833,1204.33 771.167,1203.67 770.5,1203C 761.011,1201.3 751.344,1200.3 741.5,1200C 740.167,1199.33 738.833,1198.67 737.5,1198C 715.852,1197.3 694.352,1195.46 673,1192.5C 647.597,1192.53 622.097,1192.53 596.5,1192.5C 575.31,1195.41 553.976,1197.24 532.5,1198C 531.167,1198.67 529.833,1199.33 528.5,1200C 518.802,1200.86 509.136,1202.03 499.5,1203.5C 498.975,1204.19 498.308,1204.69 497.5,1205C 489.456,1205.84 481.456,1207.01 473.5,1208.5C 473.291,1209.09 472.957,1209.59 472.5,1210C 462.133,1212.1 451.8,1214.1 441.5,1216C 440.833,1216.67 440.167,1217.33 439.5,1218C 425.303,1220.62 411.636,1223.95 398.5,1228C 397.833,1228.67 397.167,1229.33 396.5,1230C 383.026,1233.94 369.693,1238.27 356.5,1243C 353.5,1244.67 350.5,1246.33 347.5,1248C 340.5,1250.33 333.5,1252.67 326.5,1255C 314.078,1261.4 301.411,1267.4 288.5,1273C 287.531,1274.76 286.364,1275.26 285,1274.5C 283.333,1275.83 281.667,1277.17 280,1278.5C 279.667,1278.17 279.333,1277.83 279,1277.5C 273.887,1280.74 268.721,1283.91 263.5,1287C 260.898,1288.14 258.231,1288.97 255.5,1289.5C 255.5,1290.5 255.5,1291.5 255.5,1292.5C 253.712,1292.21 252.045,1292.55 250.5,1293.5C 193.445,1326.29 141.111,1366.13 93.5,1413C 92.3914,1413.64 91.2247,1414.14 90,1414.5C 59.6193,1385.28 29.4526,1355.95 -0.5,1326.5 Z"/></g>
<g><path style="opacity:0.004" fill="#fefffe" d="M 6131.5,1066.5 C 6132.83,1067.17 6132.83,1067.17 6131.5,1066.5 Z"/></g>
<g><path style="opacity:0.004" fill="#fefffe" d="M 5555.5,1068.5 C 5556.83,1069.17 5556.83,1069.17 5555.5,1068.5 Z"/></g>
<g><path style="opacity:0.004" fill="#fe0000" d="M 979.5,1071.5 C 978.833,1072.17 978.833,1072.17 979.5,1071.5 Z"/></g>
<g><path style="opacity:0.004" fill="#fefffe" d="M 5141.5,1109.5 C 5142.83,1110.17 5142.83,1110.17 5141.5,1109.5 Z"/></g>
<g><path style="opacity:0.004" fill="#000000" d="M 5133.5,1123.5 C 5134.83,1124.17 5134.83,1124.17 5133.5,1123.5 Z"/></g>
<g><path style="opacity:0.004" fill="#fefffe" d="M 5130.5,1128.5 C 5131.83,1129.17 5131.83,1129.17 5130.5,1128.5 Z"/></g>
<g><path style="opacity:0.004" fill="#fefffe" d="M 3085.5,1145.5 C 3086.83,1146.17 3086.83,1146.17 3085.5,1145.5 Z"/></g>
<g><path style="opacity:0.004" fill="#000000" d="M 1159.5,1167.5 C 1160.83,1168.17 1160.83,1168.17 1159.5,1167.5 Z"/></g>
<g><path style="opacity:0.004" fill="#fefffe" d="M 4966.5,1167.5 C 4967.83,1168.17 4967.83,1168.17 4966.5,1167.5 Z"/></g>
<g><path style="opacity:0.955" fill="#fefefe" d="M 595.5,1313.5 C 621.835,1313.33 648.169,1313.5 674.5,1314C 676.246,1314.47 677.913,1315.14 679.5,1316C 699.876,1317.06 720.209,1318.73 740.5,1321C 741.672,1321.42 742.672,1322.09 743.5,1323C 751.5,1324 759.5,1325 767.5,1326C 768.167,1326.67 768.833,1327.33 769.5,1328C 776.302,1328.52 782.969,1329.52 789.5,1331C 793.026,1332.8 796.693,1334.13 800.5,1335C 803.167,1335.33 805.833,1335.67 808.5,1336C 811.028,1338.06 814.028,1339.06 817.5,1339C 821.268,1339.98 824.768,1341.48 828,1343.5C 830.885,1342.68 833.385,1343.52 835.5,1346C 839.5,1346.67 843.5,1347.33 847.5,1348C 858.42,1353.2 869.753,1357.53 881.5,1361C 883.505,1362.87 885.839,1364.2 888.5,1365C 890.134,1365.49 891.801,1365.66 893.5,1365.5C 893.5,1366.5 893.5,1367.5 893.5,1368.5C 898.44,1368.88 902.94,1370.55 907,1373.5C 909.021,1372.76 910.521,1373.6 911.5,1376C 914.167,1376.67 916.833,1377.33 919.5,1378C 925.221,1381.66 930.888,1384.99 936.5,1388C 941.431,1389.31 945.764,1391.64 949.5,1395C 950.793,1395.49 952.127,1395.66 953.5,1395.5C 953.5,1396.5 953.5,1397.5 953.5,1398.5C 957.508,1398.99 961.008,1400.65 964,1403.5C 964.333,1403.17 964.667,1402.83 965,1402.5C 1009.6,1429.87 1051.1,1461.87 1089.5,1498.5C 1091.26,1500.19 1091.76,1502.19 1091,1504.5C 1070.78,1523.72 1050.95,1543.22 1031.5,1563C 1020.67,1573.32 1009.67,1583.49 998.5,1593.5C 997.062,1593.28 995.729,1592.78 994.5,1592C 955.601,1553.75 911.768,1522.58 863,1498.5C 861.057,1498.96 859.724,1497.96 859,1495.5C 857.951,1496.52 856.784,1496.68 855.5,1496C 847.684,1491.81 839.684,1487.81 831.5,1484C 822.769,1480.87 814.102,1477.53 805.5,1474C 784.897,1467.67 764.23,1462.01 743.5,1457C 739.833,1456.67 736.167,1456.33 732.5,1456C 727.288,1454.12 721.955,1452.79 716.5,1452C 711.5,1451.67 706.5,1451.33 701.5,1451C 700.328,1450.58 699.328,1449.91 698.5,1449C 680.481,1448.28 662.481,1447.44 644.5,1446.5C 509.171,1445.23 390.837,1489.06 289.5,1578C 285.012,1582.32 280.679,1586.82 276.5,1591.5C 274.378,1593.11 272.045,1593.61 269.5,1593C 238.924,1562.92 208.591,1532.76 178.5,1502.5C 181.803,1498.1 185.47,1493.93 189.5,1490C 227.384,1454.79 268.05,1424.62 311.5,1399.5C 313.045,1398.55 314.712,1398.21 316.5,1398.5C 316.5,1397.5 316.5,1396.5 316.5,1395.5C 320.021,1395.17 323.021,1393.67 325.5,1391C 340.892,1383.56 356.225,1376.23 371.5,1369C 373.134,1368.51 374.801,1368.34 376.5,1368.5C 376.5,1367.5 376.5,1366.5 376.5,1365.5C 378.199,1365.66 379.866,1365.49 381.5,1365C 395.036,1358.47 409.036,1352.81 423.5,1348C 427.147,1347.23 430.814,1346.56 434.5,1346C 436.523,1343.38 439.023,1342.54 442,1343.5C 445.268,1341.47 448.768,1339.97 452.5,1339C 462.312,1336.79 471.978,1334.12 481.5,1331C 487.812,1329.87 494.146,1328.87 500.5,1328C 501.328,1327.09 502.328,1326.42 503.5,1326C 511.11,1324.7 518.777,1323.7 526.5,1323C 527.672,1322.58 528.672,1321.91 529.5,1321C 549.779,1318.72 570.112,1317.05 590.5,1316C 592.315,1315.24 593.981,1314.41 595.5,1313.5 Z"/></g>
<g><path style="opacity:0.901" fill="#fefefe" d="M 5022.5,1448.5 C 5032.75,1448.18 5042.92,1448.51 5053,1449.5C 5053.5,1507.5 5053.67,1565.5 5053.5,1623.5C 5042.92,1623.82 5032.42,1623.49 5022,1622.5C 5021.17,1564.43 5021.34,1506.43 5022.5,1448.5 Z"/></g>
<g><path style="opacity:0.915" fill="#fefefe" d="M 6074.5,1448.5 C 6084.5,1448.5 6094.5,1448.5 6104.5,1448.5C 6104.5,1506.83 6104.5,1565.17 6104.5,1623.5C 6094.5,1623.5 6084.5,1623.5 6074.5,1623.5C 6074.5,1565.17 6074.5,1506.83 6074.5,1448.5 Z"/></g>
<g><path style="opacity:0.904" fill="#fefefe" d="M 5490.5,1584.5 C 5494.19,1590.7 5499.53,1595.04 5506.5,1597.5C 5517.84,1601.63 5529.18,1601.46 5540.5,1597C 5549.24,1590.66 5552.24,1582.16 5549.5,1571.5C 5545.76,1564.86 5540.26,1560.2 5533,1557.5C 5519.48,1553.66 5506.32,1548.83 5493.5,1543C 5474.34,1529.07 5468.18,1510.57 5475,1487.5C 5484.9,1468.87 5500.06,1458.37 5520.5,1456C 5533.99,1454.56 5547.16,1455.73 5560,1459.5C 5568.32,1462.38 5575.82,1467.22 5582.5,1474C 5575.01,1481 5568.01,1488.5 5561.5,1496.5C 5555.24,1488.07 5546.91,1483.24 5536.5,1482C 5528.1,1481.73 5520.1,1483.4 5512.5,1487C 5501.46,1498.12 5501.96,1508.62 5514,1518.5C 5525.85,1523.77 5538.01,1528.11 5550.5,1531.5C 5576.65,1541.79 5587.15,1560.79 5582,1588.5C 5575.3,1608.87 5561.46,1621.53 5540.5,1626.5C 5517.01,1630.85 5495.35,1626.68 5475.5,1614C 5472.98,1611.32 5470.32,1608.82 5467.5,1606.5C 5466.53,1604.6 5466.2,1602.6 5466.5,1600.5C 5473.9,1595.13 5480.9,1589.13 5487.5,1582.5C 5488.27,1583.61 5489.27,1584.28 5490.5,1584.5 Z"/></g>
<g><path style="opacity:0.861" fill="#fefefe" d="M 4298.5,1464.5 C 4300.74,1463.11 4302.91,1461.44 4305,1459.5C 4324.94,1454.68 4334.1,1462.35 4332.5,1482.5C 4325.08,1492.99 4315.41,1495.66 4303.5,1490.5C 4295.16,1483.14 4293.49,1474.47 4298.5,1464.5 Z"/></g>
<g><path style="opacity:0.859" fill="#fefefe" d="M 4767.5,1457.5 C 4783.56,1458.26 4790.06,1466.59 4787,1482.5C 4780.67,1492.41 4771.84,1495.41 4760.5,1491.5C 4746.07,1481.09 4745.9,1470.43 4760,1459.5C 4762.67,1458.98 4765.17,1458.32 4767.5,1457.5 Z"/></g>
<g><path style="opacity:0.864" fill="#fefefe" d="M 5622.5,1457.5 C 5634.6,1457.61 5641.27,1463.61 5642.5,1475.5C 5641.22,1486.67 5634.88,1492.67 5623.5,1493.5C 5608.29,1491.07 5602.62,1482.4 5606.5,1467.5C 5608.5,1465.17 5610.5,1462.83 5612.5,1460.5C 5615.83,1459.13 5619.16,1458.13 5622.5,1457.5 Z"/></g>
<g><path style="opacity:0.912" fill="#fefefe" d="M 4508.5,1458.5 C 4520.04,1459.11 4531.54,1459.78 4543,1460.5C 4550.95,1491.88 4559.28,1523.21 4568,1554.5C 4568.85,1558.47 4569.52,1562.47 4570,1566.5C 4570.84,1568.84 4572.17,1570.84 4574,1572.5C 4585.33,1534.86 4596.49,1497.2 4607.5,1459.5C 4618.5,1459.5 4629.5,1459.5 4640.5,1459.5C 4651.01,1498.36 4662.18,1537.03 4674,1575.5C 4684.21,1536.86 4694.38,1498.2 4704.5,1459.5C 4715.55,1459.81 4726.55,1459.48 4737.5,1458.5C 4737.83,1459.17 4738.17,1459.83 4738.5,1460.5C 4730.62,1487.06 4722.96,1513.73 4715.5,1540.5C 4712.77,1546.31 4710.61,1552.31 4709,1558.5C 4702.95,1580.11 4697.12,1601.78 4691.5,1623.5C 4680.83,1623.5 4670.17,1623.5 4659.5,1623.5C 4648.2,1583.98 4636.04,1544.65 4623,1505.5C 4610.79,1544.47 4598.79,1583.47 4587,1622.5C 4576.58,1623.49 4566.08,1623.82 4555.5,1623.5C 4542.86,1577.11 4529.36,1531.11 4515,1485.5C 4512.51,1476.57 4510.35,1467.57 4508.5,1458.5 Z"/></g>
<g><path style="opacity:0.917" fill="#fefefe" d="M 3434.5,1459.5 C 3443.86,1459.17 3453.19,1459.5 3462.5,1460.5C 3462.81,1461.31 3463.31,1461.97 3464,1462.5C 3483.09,1508.06 3502.92,1553.73 3523.5,1599.5C 3523.29,1600.09 3522.96,1600.59 3522.5,1601C 3524.03,1602.69 3525.36,1604.53 3526.5,1606.5C 3528.66,1612.17 3530.66,1617.84 3532.5,1623.5C 3520.5,1623.5 3508.5,1623.5 3496.5,1623.5C 3491.84,1611.51 3487.17,1599.51 3482.5,1587.5C 3459.5,1586.17 3436.5,1586.17 3413.5,1587.5C 3409.13,1599.69 3404.46,1611.69 3399.5,1623.5C 3387.81,1623.83 3376.15,1623.5 3364.5,1622.5C 3387.85,1568.13 3411.18,1513.79 3434.5,1459.5 Z M 3447.5,1498.5 C 3455.19,1518.65 3463.19,1538.82 3471.5,1559C 3455.83,1559.67 3440.17,1559.67 3424.5,1559C 3427.35,1552.23 3430.35,1545.56 3433.5,1539C 3433.17,1538.67 3432.83,1538.33 3432.5,1538C 3435.93,1530.72 3438.76,1523.22 3441,1515.5C 3442.07,1513.64 3443.24,1511.81 3444.5,1510C 3444.36,1509.23 3444.02,1508.56 3443.5,1508C 3446.05,1505.34 3447.38,1502.18 3447.5,1498.5 Z"/></g>
<g><path style="opacity:0.004" fill="#fefffe" d="M 4298.5,1464.5 C 4297.83,1463.17 4297.83,1463.17 4298.5,1464.5 Z"/></g>
<g><path style="opacity:0.89" fill="#fefefe" d="M 3681.5,1478.5 C 3691.17,1478.5 3700.83,1478.5 3710.5,1478.5C 3710.5,1489.5 3710.5,1500.5 3710.5,1511.5C 3719.84,1511.33 3729.17,1511.5 3738.5,1512C 3739.83,1519.67 3739.83,1527.33 3738.5,1535C 3729.17,1535.5 3719.84,1535.67 3710.5,1535.5C 3710.17,1554.51 3710.5,1573.51 3711.5,1592.5C 3712.77,1598.23 3716.77,1601.23 3723.5,1601.5C 3727.56,1601.28 3731.4,1600.28 3735,1598.5C 3735.77,1598.64 3736.44,1598.98 3737,1599.5C 3737.5,1607.49 3737.67,1615.49 3737.5,1623.5C 3731.05,1624.56 3724.72,1625.89 3718.5,1627.5C 3714.4,1625.82 3710.07,1624.98 3705.5,1625C 3690.73,1620.25 3682.73,1610.08 3681.5,1594.5C 3680.5,1574.84 3680.17,1555.18 3680.5,1535.5C 3674.49,1535.67 3668.49,1535.5 3662.5,1535C 3661.17,1527.33 3661.17,1519.67 3662.5,1512C 3668.83,1511.67 3675.17,1511.33 3681.5,1511C 3680.2,1500.2 3680.2,1489.36 3681.5,1478.5 Z"/></g>
<g><path style="opacity:0.9" fill="#fefefe" d="M 4224.5,1478.5 C 4234.17,1478.33 4243.84,1478.5 4253.5,1479C 4254.83,1489.67 4254.83,1500.33 4253.5,1511C 4262.49,1511.5 4271.49,1511.67 4280.5,1511.5C 4280.5,1519.5 4280.5,1527.5 4280.5,1535.5C 4271.83,1535.5 4263.17,1535.5 4254.5,1535.5C 4254.19,1555.19 4254.52,1574.86 4255.5,1594.5C 4257.55,1599.63 4261.38,1601.96 4267,1601.5C 4271.61,1600.85 4276.11,1599.85 4280.5,1598.5C 4280.5,1606.83 4280.5,1615.17 4280.5,1623.5C 4274.05,1624.56 4267.72,1625.89 4261.5,1627.5C 4253,1626.73 4245,1624.23 4237.5,1620C 4229.31,1613.09 4225.14,1604.26 4225,1593.5C 4224.5,1574.17 4224.33,1554.84 4224.5,1535.5C 4218.17,1535.5 4211.83,1535.5 4205.5,1535.5C 4205.5,1527.5 4205.5,1519.5 4205.5,1511.5C 4211.83,1511.5 4218.17,1511.5 4224.5,1511.5C 4224.5,1500.5 4224.5,1489.5 4224.5,1478.5 Z"/></g>
<g><path style="opacity:0.903" fill="#fefefe" d="M 3769.5,1521.5 C 3777.6,1516.25 3786.27,1512.08 3795.5,1509C 3824.78,1504.01 3847.61,1513.17 3864,1536.5C 3877.19,1564.47 3873.36,1589.64 3852.5,1612C 3827.14,1630.97 3800.8,1632.31 3773.5,1616C 3757.74,1603.48 3749.4,1587.14 3748.5,1567C 3749.93,1548.65 3756.93,1533.48 3769.5,1521.5 Z M 3803.5,1533.5 C 3827.48,1532.16 3839.82,1543.49 3840.5,1567.5C 3839.81,1591.03 3827.81,1602.2 3804.5,1601C 3787.94,1595.94 3779.94,1584.6 3780.5,1567C 3780.39,1550.35 3788.06,1539.18 3803.5,1533.5 Z"/></g>
<g><path style="opacity:0.89" fill="#fefefe" d="M 3895.5,1511.5 C 3904.84,1511.33 3914.17,1511.5 3923.5,1512C 3924.3,1516.41 3924.8,1520.91 3925,1525.5C 3930.31,1517.74 3937.48,1512.24 3946.5,1509C 3966.05,1504.83 3981.22,1510.99 3992,1527.5C 3997.55,1518.48 4005.38,1512.48 4015.5,1509.5C 4035.15,1504.9 4051.15,1510.4 4063.5,1526C 4063.17,1526.33 4062.83,1526.67 4062.5,1527C 4064.27,1528.48 4065.6,1530.31 4066.5,1532.5C 4067.02,1535.6 4067.85,1538.6 4069,1541.5C 4070.4,1568.81 4070.9,1596.14 4070.5,1623.5C 4060.17,1623.5 4049.83,1623.5 4039.5,1623.5C 4039.67,1599.16 4039.5,1574.83 4039,1550.5C 4037.14,1540.14 4030.98,1534.48 4020.5,1533.5C 4009.8,1534.37 4002.8,1539.87 3999.5,1550C 3998.52,1574.48 3998.19,1598.98 3998.5,1623.5C 3987.83,1623.5 3977.17,1623.5 3966.5,1623.5C 3966.67,1597.5 3966.5,1571.5 3966,1545.5C 3960.91,1534.88 3952.24,1531.55 3940,1535.5C 3934.64,1538.03 3930.81,1542.03 3928.5,1547.5C 3928.08,1551.01 3927.24,1554.34 3926,1557.5C 3925.5,1579.5 3925.33,1601.5 3925.5,1623.5C 3915.5,1623.5 3905.5,1623.5 3895.5,1623.5C 3895.5,1586.17 3895.5,1548.83 3895.5,1511.5 Z"/></g>
<g><path style="opacity:0.889" fill="#fefefe" d="M 4130.5,1508.5 C 4140.84,1508.33 4151.17,1508.5 4161.5,1509C 4184.41,1515.26 4195.91,1530.43 4196,1554.5C 4196.5,1577.5 4196.67,1600.5 4196.5,1623.5C 4186.83,1623.5 4177.17,1623.5 4167.5,1623.5C 4167.67,1620.15 4167.5,1616.82 4167,1613.5C 4146.98,1630.81 4125.81,1631.98 4103.5,1617C 4089.76,1603.29 4087.93,1588.12 4098,1571.5C 4102.45,1567.43 4106.95,1564.1 4111.5,1561.5C 4114.95,1560.47 4118.28,1559.14 4121.5,1557.5C 4128.56,1557.12 4135.23,1555.62 4141.5,1553C 4150.08,1552.18 4158.58,1552.35 4167,1553.5C 4167.67,1551.17 4167.67,1548.83 4167,1546.5C 4164.96,1540.81 4161.46,1536.98 4156.5,1535C 4140.03,1529.87 4125.7,1533.37 4113.5,1545.5C 4108.26,1540.02 4103.26,1534.35 4098.5,1528.5C 4097.42,1527.64 4097.25,1526.64 4098,1525.5C 4100.99,1524.37 4103.49,1522.53 4105.5,1520C 4113.57,1515.27 4121.9,1511.44 4130.5,1508.5 Z M 4152.5,1573.5 C 4157.5,1573.5 4162.5,1573.5 4167.5,1573.5C 4168.17,1592.83 4158.83,1602.83 4139.5,1603.5C 4136,1602 4132.33,1601.17 4128.5,1601C 4126.64,1599.31 4124.64,1597.81 4122.5,1596.5C 4122.57,1592.63 4122.57,1588.8 4122.5,1585C 4126.5,1581.18 4131.17,1578.35 4136.5,1576.5C 4142.07,1576.02 4147.4,1575.02 4152.5,1573.5 Z"/></g>
<g><path style="opacity:0.893" fill="#fefefe" d="M 4440.5,1592.5 C 4440.5,1594.5 4441.5,1595.5 4443.5,1595.5C 4445.17,1599.17 4447.83,1601.83 4451.5,1603.5C 4451.5,1605.5 4452.5,1606.5 4454.5,1606.5C 4455.11,1607.8 4455.77,1609.13 4456.5,1610.5C 4450.11,1617.82 4442.11,1622.65 4432.5,1625C 4404.76,1631.36 4382.1,1624.19 4364.5,1603.5C 4348.86,1577.36 4350.03,1552.03 4368,1527.5C 4384.66,1511.37 4404.49,1505.21 4427.5,1509C 4430.13,1510.33 4432.96,1511.16 4436,1511.5C 4440.39,1514.19 4444.89,1516.69 4449.5,1519C 4452.04,1521.38 4454.38,1523.88 4456.5,1526.5C 4450.57,1532.69 4444.24,1538.69 4437.5,1544.5C 4434.65,1542.57 4431.98,1540.41 4429.5,1538C 4409.66,1529.17 4395.49,1534.67 4387,1554.5C 4381.99,1572.23 4386.49,1586.73 4400.5,1598C 4413.26,1603.71 4424.93,1602.21 4435.5,1593.5C 4437.05,1592.55 4438.71,1592.21 4440.5,1592.5 Z"/></g>
<g><path style="opacity:0.862" fill="#fefefe" d="M 4864.5,1508.5 C 4871.09,1508.19 4877.59,1508.52 4884,1509.5C 4884.67,1518.5 4884.67,1527.5 4884,1536.5C 4883.28,1537.06 4882.44,1537.39 4881.5,1537.5C 4865.81,1532.98 4854.48,1537.98 4847.5,1552.5C 4846.52,1576.14 4846.19,1599.81 4846.5,1623.5C 4835.83,1623.5 4825.17,1623.5 4814.5,1623.5C 4814.5,1586.17 4814.5,1548.83 4814.5,1511.5C 4824.5,1511.5 4834.5,1511.5 4844.5,1511.5C 4844.33,1516.18 4844.5,1520.85 4845,1525.5C 4846.93,1522.06 4849.43,1519.06 4852.5,1516.5C 4856.24,1513.12 4860.24,1510.45 4864.5,1508.5 Z"/></g>
<g><path style="opacity:0.895" fill="#fefefe" d="M 4929.5,1508.5 C 4957.96,1503.38 4978.96,1513.38 4992.5,1538.5C 4996.99,1551.43 4998.66,1564.76 4997.5,1578.5C 4969.93,1578.83 4942.43,1578.5 4915,1577.5C 4916.45,1590.3 4923.62,1598.13 4936.5,1601C 4947.44,1603.12 4957.44,1601.12 4966.5,1595C 4969.08,1592.93 4971.08,1590.43 4972.5,1587.5C 4979.41,1592.25 4986.41,1597.58 4993.5,1603.5C 4987.21,1612.51 4979.38,1618.85 4970,1622.5C 4944.3,1631.76 4921.3,1628.09 4901,1611.5C 4889.27,1599.61 4883.77,1585.27 4884.5,1568.5C 4883.75,1546.47 4892.42,1529.31 4910.5,1517C 4916.71,1513.56 4923.04,1510.72 4929.5,1508.5 Z M 4932.5,1532.5 C 4939.17,1532.33 4945.84,1532.5 4952.5,1533C 4963.03,1537.31 4968.03,1545.14 4967.5,1556.5C 4949.83,1556.67 4932.16,1556.5 4914.5,1556C 4914.17,1555.67 4913.83,1555.33 4913.5,1555C 4914.96,1550.67 4916.79,1546.5 4919,1542.5C 4923.12,1538.53 4927.62,1535.2 4932.5,1532.5 Z"/></g>
<g><path style="opacity:0.894" fill="#fefefe" d="M 5122.5,1508.5 C 5147.18,1504.27 5167.01,1511.94 5182,1531.5C 5189.48,1546.22 5192.31,1561.89 5190.5,1578.5C 5162.83,1578.33 5135.16,1578.5 5107.5,1579C 5111.93,1594.07 5122.09,1601.57 5138,1601.5C 5150.02,1601.68 5159.52,1597.01 5166.5,1587.5C 5172.02,1592.19 5177.69,1596.69 5183.5,1601C 5185.21,1602.13 5185.71,1603.63 5185,1605.5C 5177.51,1614.89 5167.68,1621.39 5155.5,1625C 5130.37,1631.23 5108.54,1625.4 5090,1607.5C 5072.79,1582.71 5072.12,1557.38 5088,1531.5C 5096.75,1520.5 5107.91,1513.33 5121.5,1510C 5122.06,1509.62 5122.39,1509.12 5122.5,1508.5 Z M 5125.5,1532.5 C 5132.17,1532.33 5138.84,1532.5 5145.5,1533C 5155.92,1537.27 5160.92,1545.11 5160.5,1556.5C 5142.49,1556.83 5124.49,1556.5 5106.5,1555.5C 5108.27,1552.43 5109.44,1549.09 5110,1545.5C 5114.36,1540.09 5119.53,1535.76 5125.5,1532.5 Z"/></g>
<g><path style="opacity:0.882" fill="#fefefe" d="M 5239.5,1508.5 C 5257.74,1505.55 5274.41,1509.05 5289.5,1519C 5291.86,1521.36 5294.19,1523.69 5296.5,1526C 5289.66,1532.21 5283.16,1538.05 5277,1543.5C 5272.93,1539.11 5268.1,1535.61 5262.5,1533C 5256.17,1532.33 5249.83,1532.33 5243.5,1533C 5236.67,1536.14 5234.67,1541.3 5237.5,1548.5C 5248.44,1551.76 5259.44,1554.92 5270.5,1558C 5293.94,1566.98 5301.27,1583.15 5292.5,1606.5C 5284.76,1617.76 5274.09,1624.42 5260.5,1626.5C 5237.72,1629.85 5218.06,1623.68 5201.5,1608C 5207.5,1602 5213.5,1596 5219.5,1590C 5220.94,1589.22 5222.28,1589.39 5223.5,1590.5C 5230.1,1598.45 5238.6,1602.78 5249,1603.5C 5253.07,1602.15 5257.24,1600.98 5261.5,1600C 5263.75,1597.36 5265.42,1594.36 5266.5,1591C 5265,1589.51 5264.16,1587.68 5264,1585.5C 5262.67,1584.51 5261.34,1583.51 5260,1582.5C 5250.91,1579.73 5241.75,1577.23 5232.5,1575C 5210.72,1566.74 5203.55,1551.57 5211,1529.5C 5217.45,1519.19 5226.62,1512.69 5238.5,1510C 5239.06,1509.62 5239.39,1509.12 5239.5,1508.5 Z"/></g>
<g><path style="opacity:0.885" fill="#fefefe" d="M 5315.5,1595.5 C 5318.1,1593.74 5320.6,1591.74 5323,1589.5C 5325.99,1592.09 5328.99,1594.76 5332,1597.5C 5334.62,1598.41 5337.12,1599.58 5339.5,1601C 5343.47,1601.23 5347.3,1602.07 5351,1603.5C 5355.07,1602.15 5359.24,1600.98 5363.5,1600C 5369.08,1593.92 5368.74,1588.25 5362.5,1583C 5351.55,1579.58 5340.55,1576.25 5329.5,1573C 5310.62,1563.27 5305.46,1548.1 5314,1527.5C 5320.92,1517.96 5330.09,1511.79 5341.5,1509C 5350.83,1508.33 5360.17,1508.33 5369.5,1509C 5380.07,1511.55 5389.24,1516.72 5397,1524.5C 5397.67,1525.83 5397.67,1527.17 5397,1528.5C 5390.8,1533.27 5384.8,1538.27 5379,1543.5C 5374.74,1539.24 5369.9,1535.74 5364.5,1533C 5357.09,1532.11 5349.75,1532.44 5342.5,1534C 5338.08,1538.11 5337.41,1542.77 5340.5,1548C 5353.08,1552.61 5365.75,1556.78 5378.5,1560.5C 5399.18,1573.33 5403.35,1590.33 5391,1611.5C 5385.36,1618.4 5378.19,1622.9 5369.5,1625C 5345.22,1630.77 5323.72,1625.6 5305,1609.5C 5304.33,1608.17 5304.33,1606.83 5305,1605.5C 5309.13,1602.71 5312.63,1599.38 5315.5,1595.5 Z"/></g>
<g><path style="opacity:0.897" fill="#fefefe" d="M 5755.5,1511.5 C 5765.08,1511.18 5774.58,1511.51 5784,1512.5C 5784.83,1550.5 5784.67,1588.5 5783.5,1626.5C 5781.65,1638.06 5777.65,1648.72 5771.5,1658.5C 5757.96,1672.69 5741.13,1679.69 5721,1679.5C 5703.57,1679.1 5687.4,1674.6 5672.5,1666C 5669.03,1664.36 5666.36,1661.86 5664.5,1658.5C 5670.16,1651.18 5675.83,1643.84 5681.5,1636.5C 5697.7,1650.89 5716.7,1655.06 5738.5,1649C 5745.5,1644.72 5750,1638.55 5752,1630.5C 5752.6,1623.85 5752.93,1617.51 5753,1611.5C 5740.34,1623.83 5725.17,1628.33 5707.5,1625C 5682.15,1617.99 5667.32,1601.49 5663,1575.5C 5660.26,1542.65 5674.09,1520.48 5704.5,1509C 5716.89,1507.43 5728.89,1508.6 5740.5,1512.5C 5746.13,1515.96 5750.96,1520.3 5755,1525.5C 5755.5,1520.85 5755.67,1516.18 5755.5,1511.5 Z M 5717.5,1533.5 C 5740.94,1532.44 5753.61,1543.61 5755.5,1567C 5754.53,1577.79 5750.2,1586.96 5742.5,1594.5C 5725.64,1604.56 5711.14,1601.89 5699,1586.5C 5693.01,1573.21 5693.01,1559.88 5699,1546.5C 5703.96,1539.59 5710.13,1535.26 5717.5,1533.5 Z"/></g>
<g><path style="opacity:0.92" fill="#fefefe" d="M 5865.5,1508.5 C 5888.95,1504.37 5905.62,1513.04 5915.5,1534.5C 5915.93,1538.33 5916.76,1542 5918,1545.5C 5918.5,1571.5 5918.67,1597.5 5918.5,1623.5C 5908.5,1623.5 5898.5,1623.5 5888.5,1623.5C 5888.67,1600.83 5888.5,1578.16 5888,1555.5C 5886.76,1552.36 5886.09,1549.03 5886,1545.5C 5878.27,1532.21 5867.44,1530.05 5853.5,1539C 5849.84,1542.5 5847.34,1546.66 5846,1551.5C 5844.56,1575.46 5844.06,1599.46 5844.5,1623.5C 5834.5,1623.5 5824.5,1623.5 5814.5,1623.5C 5814.5,1586.17 5814.5,1548.83 5814.5,1511.5C 5824.17,1511.33 5833.84,1511.5 5843.5,1512C 5844.3,1515.75 5844.8,1519.58 5845,1523.5C 5850.59,1516.64 5857.42,1511.64 5865.5,1508.5 Z"/></g>
<g><path style="opacity:0.895" fill="#fefefe" d="M 6033.5,1521.5 C 6038.91,1529.32 6042.41,1537.99 6044,1547.5C 6044.5,1572.83 6044.67,1598.16 6044.5,1623.5C 6035.17,1623.5 6025.83,1623.5 6016.5,1623.5C 6016.67,1619.49 6016.5,1615.49 6016,1611.5C 6012.95,1615.79 6009.12,1619.29 6004.5,1622C 5986.87,1629.84 5969.87,1628.67 5953.5,1618.5C 5939.82,1606.33 5936.66,1591.66 5944,1574.5C 5950.56,1567.14 5958.39,1561.64 5967.5,1558C 5975.05,1557.15 5982.38,1555.65 5989.5,1553.5C 5998.15,1552.67 6006.81,1552.17 6015.5,1552C 6015.36,1541.43 6010.03,1535.1 5999.5,1533C 5985.78,1531.24 5973.78,1534.91 5963.5,1544C 5962.5,1544.67 5961.5,1544.67 5960.5,1544C 5956.03,1538.86 5951.53,1533.69 5947,1528.5C 5946.51,1527.21 5946.34,1525.87 5946.5,1524.5C 5953.31,1520.26 5960.31,1516.26 5967.5,1512.5C 5981.5,1508.43 5995.83,1507.43 6010.5,1509.5C 6013.55,1510.38 6016.55,1511.38 6019.5,1512.5C 6024.57,1515.02 6029.23,1518.02 6033.5,1521.5 Z M 6000.5,1573.5 C 6005.51,1573.33 6010.51,1573.5 6015.5,1574C 6016,1592.82 6006.84,1602.66 5988,1603.5C 5984.63,1602.12 5981.13,1601.28 5977.5,1601C 5969.84,1596.14 5968.51,1589.81 5973.5,1582C 5976.59,1579.79 5979.92,1578.12 5983.5,1577C 5989.37,1576.16 5995.04,1574.99 6000.5,1573.5 Z"/></g>
<g><path style="opacity:0.004" fill="#fefffe" d="M 3543.5,1511.5 C 3542.83,1510.17 3542.83,1510.17 3543.5,1511.5 Z"/></g>
<g><path style="opacity:0.004" fill="#fefffe" d="M 3573.5,1510.5 C 3574.83,1511.17 3574.83,1511.17 3573.5,1510.5 Z"/></g>
<g><path style="opacity:0.004" fill="#fefffe" d="M 3617.5,1511.5 C 3616.83,1510.17 3616.83,1510.17 3617.5,1511.5 Z"/></g>
<g><path style="opacity:0.004" fill="#fefffe" d="M 3895.5,1511.5 C 3894.83,1510.17 3894.83,1510.17 3895.5,1511.5 Z"/></g>
<g><path style="opacity:0.004" fill="#fefffe" d="M 3924.5,1510.5 C 3925.83,1511.17 3925.83,1511.17 3924.5,1510.5 Z"/></g>
<g><path style="opacity:0.004" fill="#fefffe" d="M 4281.5,1510.5 C 4282.83,1511.17 4282.83,1511.17 4281.5,1510.5 Z"/></g>
<g><path style="opacity:0.004" fill="#fefffe" d="M 4299.5,1511.5 C 4298.83,1510.17 4298.83,1510.17 4299.5,1511.5 Z"/></g>
<g><path style="opacity:0.004" fill="#fefffe" d="M 4754.5,1511.5 C 4753.83,1510.17 4753.83,1510.17 4754.5,1511.5 Z"/></g>
<g><path style="opacity:0.004" fill="#fefffe" d="M 4784.5,1510.5 C 4785.83,1511.17 4785.83,1511.17 4784.5,1510.5 Z"/></g>
<g><path style="opacity:0.004" fill="#fefffe" d="M 5755.5,1511.5 C 5754.83,1510.17 5754.83,1510.17 5755.5,1511.5 Z"/></g>
<g><path style="opacity:0.91" fill="#fefefe" d="M 3543.5,1511.5 C 3553.5,1511.5 3563.5,1511.5 3573.5,1511.5C 3572.84,1537.57 3573.68,1563.57 3576,1589.5C 3580.68,1600.36 3588.85,1604.02 3600.5,1600.5C 3602.71,1599.08 3605.04,1597.92 3607.5,1597C 3608.98,1594.56 3610.81,1592.39 3613,1590.5C 3613.88,1587.74 3614.88,1585.08 3616,1582.5C 3617.45,1558.88 3617.95,1535.21 3617.5,1511.5C 3627.5,1511.5 3637.5,1511.5 3647.5,1511.5C 3647.5,1548.83 3647.5,1586.17 3647.5,1623.5C 3637.5,1623.5 3627.5,1623.5 3617.5,1623.5C 3617.67,1619.49 3617.5,1615.49 3617,1611.5C 3605.95,1624.89 3591.78,1629.89 3574.5,1626.5C 3557.69,1621.28 3547.53,1609.94 3544,1592.5C 3543.5,1565.5 3543.33,1538.5 3543.5,1511.5 Z"/></g>
<g><path style="opacity:0.901" fill="#fefefe" d="M 4299.5,1511.5 C 4309.5,1511.5 4319.5,1511.5 4329.5,1511.5C 4329.5,1548.83 4329.5,1586.17 4329.5,1623.5C 4319.5,1623.5 4309.5,1623.5 4299.5,1623.5C 4299.5,1586.17 4299.5,1548.83 4299.5,1511.5 Z"/></g>
<g><path style="opacity:0.935" fill="#fefefe" d="M 4754.5,1511.5 C 4764.5,1511.5 4774.5,1511.5 4784.5,1511.5C 4784.5,1548.83 4784.5,1586.17 4784.5,1623.5C 4774.5,1623.5 4764.5,1623.5 4754.5,1623.5C 4754.5,1586.17 4754.5,1548.83 4754.5,1511.5 Z"/></g>
<g><path style="opacity:0.926" fill="#fdfdfd" d="M 5608.5,1511.5 C 5618.5,1511.5 5628.5,1511.5 5638.5,1511.5C 5638.5,1548.83 5638.5,1586.17 5638.5,1623.5C 5628.5,1623.5 5618.5,1623.5 5608.5,1623.5C 5608.5,1586.17 5608.5,1548.83 5608.5,1511.5 Z"/></g>
<g><path style="opacity:0.004" fill="#fefffe" d="M 4003.5,1512.5 C 4004.83,1513.17 4004.83,1513.17 4003.5,1512.5 Z"/></g>
<g><path style="opacity:0.004" fill="#fefffe" d="M 4914.5,1512.5 C 4915.83,1513.17 4915.83,1513.17 4914.5,1512.5 Z"/></g>
<g><path style="opacity:0.004" fill="#fefffe" d="M 5225.5,1512.5 C 5226.83,1513.17 5226.83,1513.17 5225.5,1512.5 Z"/></g>
<g><path style="opacity:0.004" fill="#fefffe" d="M 5509.5,1512.5 C 5510.83,1513.17 5510.83,1513.17 5509.5,1512.5 Z"/></g>
<g><path style="opacity:0.004" fill="#fefffe" d="M 3769.5,1521.5 C 3768.83,1520.17 3768.83,1520.17 3769.5,1521.5 Z"/></g>
<g><path style="opacity:0.004" fill="#fefffe" d="M 6033.5,1520.5 C 6034.83,1521.17 6034.83,1521.17 6033.5,1520.5 Z"/></g>
<g><path style="opacity:0.004" fill="#fefffe" d="M 5946.5,1524.5 C 5945.83,1523.17 5945.83,1523.17 5946.5,1524.5 Z"/></g>
<g><path style="opacity:0.004" fill="#fefffe" d="M 5340.5,1545.5 C 5341.83,1546.17 5341.83,1546.17 5340.5,1545.5 Z"/></g>
<g><path style="opacity:0.004" fill="#fefffe" d="M 4107.5,1561.5 C 4108.83,1562.17 4108.83,1562.17 4107.5,1561.5 Z"/></g>
<g><path style="opacity:0.951" fill="#fefefe" d="M 612.5,1567.5 C 642.014,1566.64 671.348,1568.14 700.5,1572C 780.591,1586.88 849.924,1622.71 908.5,1679.5C 909.614,1680.72 909.781,1682.06 909,1683.5C 878.464,1714.2 847.964,1744.54 817.5,1774.5C 806.212,1765.38 795.045,1756.05 784,1746.5C 783.667,1746.83 783.333,1747.17 783,1747.5C 760.753,1731.02 736.253,1719.02 709.5,1711.5C 709.291,1710.91 708.957,1710.41 708.5,1710C 701.96,1709.01 695.626,1707.51 689.5,1705.5C 679.733,1703.18 669.733,1702.02 659.5,1702C 657.616,1701.78 655.949,1701.12 654.5,1700C 641.833,1699.33 629.167,1699.33 616.5,1700C 614.608,1700.97 612.608,1701.64 610.5,1702C 600.601,1702.05 590.934,1703.22 581.5,1705.5C 580.975,1706.19 580.308,1706.69 579.5,1707C 532.638,1716.44 491.971,1738.11 457.5,1772C 455.833,1772.83 454.167,1773.67 452.5,1774.5C 421.928,1744.43 391.428,1714.1 361,1683.5C 360.49,1681.17 361.156,1679.17 363,1677.5C 421.618,1622.19 490.451,1587.03 569.5,1572C 583.869,1569.82 598.202,1568.32 612.5,1567.5 Z"/></g>
<g><path style="opacity:0.004" fill="#fefffe" d="M 5490.5,1583.5 C 5491.83,1584.17 5491.83,1584.17 5490.5,1583.5 Z"/></g>
<g><path style="opacity:0.004" fill="#fefffe" d="M 4391.5,1586.5 C 4392.83,1587.17 4392.83,1587.17 4391.5,1586.5 Z"/></g>
<g><path style="opacity:0.004" fill="#fefffe" d="M 4440.5,1591.5 C 4441.83,1592.17 4441.83,1592.17 4440.5,1591.5 Z"/></g>
<g><path style="opacity:0.004" fill="#fefffe" d="M 4443.5,1594.5 C 4444.83,1595.17 4444.83,1595.17 4443.5,1594.5 Z"/></g>
<g><path style="opacity:0.004" fill="#fefffe" d="M 5119.5,1594.5 C 5120.83,1595.17 5120.83,1595.17 5119.5,1594.5 Z"/></g>
<g><path style="opacity:0.004" fill="#fefffe" d="M 5315.5,1595.5 C 5314.83,1594.17 5314.83,1594.17 5315.5,1595.5 Z"/></g>
<g><path style="opacity:0.004" fill="#fefffe" d="M 4451.5,1602.5 C 4452.83,1603.17 4452.83,1603.17 4451.5,1602.5 Z"/></g>
<g><path style="opacity:0.004" fill="#fefffe" d="M 4454.5,1605.5 C 4455.83,1606.17 4455.83,1606.17 4454.5,1605.5 Z"/></g>
<g><path style="opacity:0.004" fill="#fefffe" d="M 5304.5,1611.5 C 5305.83,1612.17 5305.83,1612.17 5304.5,1611.5 Z"/></g>
<g><path style="opacity:0.004" fill="#fefffe" d="M 5689.5,1640.5 C 5690.83,1641.17 5690.83,1641.17 5689.5,1640.5 Z"/></g>
<g><path style="opacity:0.004" fill="#fefffe" d="M 5771.5,1658.5 C 5772.83,1659.17 5772.83,1659.17 5771.5,1658.5 Z"/></g>
<g><path style="opacity:0.004" fill="#fefffe" d="M 4552.5,1723.5 C 4551.83,1722.17 4551.83,1722.17 4552.5,1723.5 Z"/></g>
<g><path style="opacity:0.92" fill="#fefefe" d="M 4552.5,1723.5 C 4562.5,1723.5 4572.5,1723.5 4582.5,1723.5C 4582.5,1781.83 4582.5,1840.17 4582.5,1898.5C 4572.5,1898.5 4562.5,1898.5 4552.5,1898.5C 4552.5,1840.17 4552.5,1781.83 4552.5,1723.5 Z"/></g>
<g><path style="opacity:0.902" fill="#fefefe" d="M 5421.5,1729.5 C 5443.17,1727.55 5462.51,1733.21 5479.5,1746.5C 5480.48,1748.1 5480.65,1749.76 5480,1751.5C 5473.95,1757.88 5467.95,1764.21 5462,1770.5C 5458.28,1768.04 5454.78,1765.21 5451.5,1762C 5445.13,1759.36 5438.47,1757.53 5431.5,1756.5C 5420.91,1756.46 5412.58,1760.63 5406.5,1769C 5405.17,1775 5405.17,1781 5406.5,1787C 5408.85,1789.68 5411.52,1792.02 5414.5,1794C 5428.45,1798.26 5442.12,1803.26 5455.5,1809C 5476.45,1819.79 5485.28,1836.96 5482,1860.5C 5475.29,1885.2 5459.12,1899.36 5433.5,1903C 5410.55,1905.3 5389.89,1899.64 5371.5,1886C 5368.9,1883.91 5366.9,1881.41 5365.5,1878.5C 5371.91,1870.75 5379.24,1864.09 5387.5,1858.5C 5394.39,1866.1 5403.22,1871.77 5414,1875.5C 5420.32,1875.41 5426.66,1875.41 5433,1875.5C 5435.92,1873.28 5439.08,1871.45 5442.5,1870C 5451.45,1861.48 5452.79,1851.82 5446.5,1841C 5443.02,1837.52 5439.02,1834.85 5434.5,1833C 5419.87,1829.26 5405.87,1824.09 5392.5,1817.5C 5388.53,1814.54 5384.87,1811.2 5381.5,1807.5C 5372.87,1794.44 5370.37,1780.11 5374,1764.5C 5378.06,1754.76 5384.39,1746.76 5393,1740.5C 5401.47,1735.48 5410.63,1732.32 5420.5,1731C 5421.06,1730.62 5421.39,1730.12 5421.5,1729.5 Z"/></g>
<g><path style="opacity:0.84" fill="#fefefe" d="M 4136.5,1732.5 C 4145.77,1730.61 4153.6,1732.94 4160,1739.5C 4166.16,1748.74 4164.99,1757.08 4156.5,1764.5C 4152.58,1766.41 4148.58,1768.08 4144.5,1769.5C 4140.97,1767.92 4137.3,1766.59 4133.5,1765.5C 4129.04,1762.22 4126.2,1757.89 4125,1752.5C 4125.67,1748.26 4126.51,1743.93 4127.5,1739.5C 4128.68,1739.72 4129.68,1739.39 4130.5,1738.5C 4132.88,1736.79 4134.88,1734.79 4136.5,1732.5 Z"/></g>
<g><path style="opacity:0.854" fill="#fefefe" d="M 4620.5,1732.5 C 4632.38,1729.9 4641.21,1733.9 4647,1744.5C 4647.67,1748.5 4647.67,1752.5 4647,1756.5C 4635.69,1772.53 4623.69,1773.2 4611,1758.5C 4609,1753.17 4609,1747.83 4611,1742.5C 4614.18,1739.03 4617.35,1735.7 4620.5,1732.5 Z"/></g>
<g><path style="opacity:0.855" fill="#fefefe" d="M 4992.5,1732.5 C 5004.19,1730.08 5012.69,1734.08 5018,1744.5C 5019.9,1753.16 5017.4,1760.16 5010.5,1765.5C 5006.7,1766.59 5003.03,1767.92 4999.5,1769.5C 4986.82,1766.99 4980.65,1759.32 4981,1746.5C 4981.97,1744.73 4982.8,1742.89 4983.5,1741C 4986.61,1738.14 4989.61,1735.31 4992.5,1732.5 Z"/></g>
<g><path style="opacity:0.004" fill="#fefffe" d="M 4004.5,1733.5 C 4005.83,1734.17 4005.83,1734.17 4004.5,1733.5 Z"/></g>
<g><path style="opacity:0.004" fill="#fefffe" d="M 5010.5,1733.5 C 5011.83,1734.17 5011.83,1734.17 5010.5,1733.5 Z"/></g>
<g><path style="opacity:0.908" fill="#fefefe" d="M 4004.5,1734.5 C 4018.58,1775.92 4033.08,1816.92 4048,1857.5C 4062.94,1816.66 4077.44,1775.66 4091.5,1734.5C 4103.17,1734.5 4114.83,1734.5 4126.5,1734.5C 4116.24,1759.31 4106.24,1784.64 4096.5,1810.5C 4095.31,1812.79 4093.97,1814.95 4092.5,1817C 4092.92,1819.38 4092.09,1821.54 4090,1823.5C 4088.12,1830.48 4085.45,1837.14 4082,1843.5C 4074.47,1861.97 4067.64,1880.31 4061.5,1898.5C 4051.92,1898.82 4042.42,1898.49 4033,1897.5C 4012.27,1845.14 3991.43,1792.8 3970.5,1740.5C 3969.53,1738.6 3969.2,1736.6 3969.5,1734.5C 3981.17,1734.5 3992.83,1734.5 4004.5,1734.5 Z"/></g>
<g><path style="opacity:0.004" fill="#fefffe" d="M 4939.5,1753.5 C 4940.83,1754.17 4940.83,1754.17 4939.5,1753.5 Z"/></g>
<g><path style="opacity:0.004" fill="#fefffe" d="M 5724.5,1753.5 C 5725.83,1754.17 5725.83,1754.17 5724.5,1753.5 Z"/></g>
<g><path style="opacity:0.9" fill="#fefefe" d="M 4966.5,1898.5 C 4952.3,1902.49 4938.3,1901.82 4924.5,1896.5C 4916.57,1890.19 4911.9,1882.02 4910.5,1872C 4909.75,1851.51 4909.25,1831.01 4909,1810.5C 4902.92,1811.48 4896.76,1811.81 4890.5,1811.5C 4890.5,1803.17 4890.5,1794.83 4890.5,1786.5C 4896.83,1786.5 4903.17,1786.5 4909.5,1786.5C 4909.5,1776.17 4909.5,1765.83 4909.5,1755.5C 4919.5,1755.5 4929.5,1755.5 4939.5,1755.5C 4939.5,1765.83 4939.5,1776.17 4939.5,1786.5C 4948.83,1786.5 4958.17,1786.5 4967.5,1786.5C 4967.67,1794.17 4967.5,1801.84 4967,1809.5C 4966.5,1810 4966,1810.5 4965.5,1811C 4956.92,1811.82 4948.42,1811.65 4940,1810.5C 4939.33,1829.17 4939.33,1847.83 4940,1866.5C 4940.39,1870.22 4942.05,1873.22 4945,1875.5C 4945.33,1875.17 4945.67,1874.83 4946,1874.5C 4947.74,1875.89 4949.74,1876.56 4952,1876.5C 4956.36,1875.5 4960.7,1874.5 4965,1873.5C 4965.33,1873.83 4965.67,1874.17 4966,1874.5C 4966.5,1882.49 4966.67,1890.49 4966.5,1898.5 Z"/></g>
<g><path style="opacity:0.906" fill="#fefefe" d="M 5782.5,1786.5 C 5782.5,1794.83 5782.5,1803.17 5782.5,1811.5C 5773.25,1811.82 5764.08,1811.48 5755,1810.5C 5754.33,1828.17 5754.33,1845.83 5755,1863.5C 5755.03,1868.41 5756.87,1872.41 5760.5,1875.5C 5761.09,1875.29 5761.59,1874.96 5762,1874.5C 5763.3,1875.98 5764.97,1876.65 5767,1876.5C 5771.39,1875.13 5775.89,1874.47 5780.5,1874.5C 5780.2,1881.56 5780.54,1888.56 5781.5,1895.5C 5780.72,1897.36 5779.39,1898.69 5777.5,1899.5C 5772.33,1900.24 5767.16,1900.9 5762,1901.5C 5750.59,1902.21 5740.93,1898.54 5733,1890.5C 5729.89,1886.65 5727.72,1882.31 5726.5,1877.5C 5725.67,1855.17 5725.17,1832.84 5725,1810.5C 5719.25,1811.64 5713.42,1811.81 5707.5,1811C 5707,1810.5 5706.5,1810 5706,1809.5C 5705.5,1801.84 5705.33,1794.17 5705.5,1786.5C 5712.17,1786.5 5718.83,1786.5 5725.5,1786.5C 5725.5,1776.17 5725.5,1765.83 5725.5,1755.5C 5735.17,1755.5 5744.83,1755.5 5754.5,1755.5C 5754.5,1765.83 5754.5,1776.17 5754.5,1786.5C 5763.83,1786.5 5773.17,1786.5 5782.5,1786.5 Z"/></g>
<g><path style="opacity:0.004" fill="#fefffe" d="M 4162.5,1758.5 C 4163.83,1759.17 4163.83,1759.17 4162.5,1758.5 Z"/></g>
<g><path style="opacity:0.891" fill="#fefefe" d="M 4263.5,1843.5 C 4265.11,1846.95 4266.94,1850.28 4269,1853.5C 4273.85,1876.01 4265.68,1891.51 4244.5,1900C 4228.61,1903.41 4212.94,1902.58 4197.5,1897.5C 4192.53,1895.11 4188.03,1892.11 4184,1888.5C 4183.67,1888.83 4183.33,1889.17 4183,1889.5C 4180.65,1887.32 4178.48,1884.98 4176.5,1882.5C 4183.18,1875.98 4190.02,1869.65 4197,1863.5C 4205.21,1874.91 4216.38,1879.74 4230.5,1878C 4236.41,1876.26 4240.07,1872.43 4241.5,1866.5C 4240.05,1864.78 4239.21,1862.78 4239,1860.5C 4237.75,1859.79 4236.58,1858.96 4235.5,1858C 4225.46,1854.07 4215.12,1850.9 4204.5,1848.5C 4183.71,1838.83 4178.05,1823.33 4187.5,1802C 4195.1,1791.59 4205.1,1785.59 4217.5,1784C 4224.83,1783.33 4232.17,1783.33 4239.5,1784C 4251.87,1785.22 4262.2,1790.72 4270.5,1800.5C 4270,1801.5 4269.5,1802.5 4269,1803.5C 4263.31,1808.69 4257.48,1813.69 4251.5,1818.5C 4247.54,1814.04 4242.87,1810.54 4237.5,1808C 4230.39,1807.08 4223.39,1807.41 4216.5,1809C 4211.35,1812.06 4210.35,1816.06 4213.5,1821C 4212.35,1821.91 4212.51,1822.75 4214,1823.5C 4214.33,1823.17 4214.67,1822.83 4215,1822.5C 4215.64,1823.65 4216.48,1824.65 4217.5,1825.5C 4227.34,1828.4 4237.17,1831.06 4247,1833.5C 4252.96,1836.22 4258.46,1839.56 4263.5,1843.5 Z"/></g>
<g><path style="opacity:0.898" fill="#fefefe" d="M 4522.5,1898.5 C 4513.17,1898.5 4503.83,1898.5 4494.5,1898.5C 4494.67,1894.49 4494.5,1890.49 4494,1886.5C 4492.16,1888.16 4490.99,1890.16 4490.5,1892.5C 4485.07,1896.21 4479.07,1898.88 4472.5,1900.5C 4451.89,1905.13 4435.06,1899.47 4422,1883.5C 4412.62,1860.71 4419.12,1844.37 4441.5,1834.5C 4458.47,1829.85 4475.8,1827.35 4493.5,1827C 4492.99,1816.21 4487.32,1809.87 4476.5,1808C 4467.75,1806.72 4459.42,1807.88 4451.5,1811.5C 4447.21,1813.8 4443.21,1816.47 4439.5,1819.5C 4435.24,1815.4 4431.07,1811.07 4427,1806.5C 4425.17,1804.52 4424.34,1802.19 4424.5,1799.5C 4428.42,1798.28 4431.59,1795.95 4434,1792.5C 4434.33,1792.83 4434.67,1793.17 4435,1793.5C 4442.73,1788.66 4450.9,1785.49 4459.5,1784C 4468.17,1783.33 4476.83,1783.33 4485.5,1784C 4507.23,1788.41 4519.39,1801.91 4522,1824.5C 4522.5,1849.16 4522.67,1873.83 4522.5,1898.5 Z M 4478.5,1848.5 C 4483.51,1848.33 4488.51,1848.5 4493.5,1849C 4492.38,1871.15 4481.04,1880.82 4459.5,1878C 4448.1,1874.4 4445.43,1867.4 4451.5,1857C 4454.5,1855.33 4457.5,1853.67 4460.5,1852C 4466.65,1850.87 4472.65,1849.7 4478.5,1848.5 Z"/></g>
<g><path style="opacity:0.905" fill="#fefefe" d="M 4868.5,1794.5 C 4868.5,1796.5 4869.5,1797.5 4871.5,1797.5C 4872.76,1800.52 4874.43,1803.35 4876.5,1806C 4877.71,1809.85 4878.87,1813.69 4880,1817.5C 4880.5,1844.5 4880.67,1871.5 4880.5,1898.5C 4871.17,1898.5 4861.83,1898.5 4852.5,1898.5C 4852.67,1895.15 4852.5,1891.82 4852,1888.5C 4841.01,1900.01 4827.51,1904.18 4811.5,1901C 4791.01,1898.34 4779.34,1886.84 4776.5,1866.5C 4778.01,1850.99 4786.01,1840.32 4800.5,1834.5C 4817.46,1829.8 4834.8,1827.47 4852.5,1827.5C 4852.44,1822.88 4851.28,1818.55 4849,1814.5C 4835.03,1805.38 4820.86,1805.22 4806.5,1814C 4804.43,1814.95 4802.93,1816.45 4802,1818.5C 4800.89,1817.29 4800.39,1817.62 4800.5,1819.5C 4798.1,1819.61 4796.26,1818.61 4795,1816.5C 4790.81,1811.96 4786.98,1807.13 4783.5,1802C 4788.43,1796.92 4794.09,1792.75 4800.5,1789.5C 4806.59,1787.07 4812.59,1785.24 4818.5,1784C 4827.17,1783.33 4835.83,1783.33 4844.5,1784C 4847.56,1784.22 4850.73,1785.06 4854,1786.5C 4859.23,1788.59 4864.06,1791.26 4868.5,1794.5 Z M 4837.5,1848.5 C 4842.5,1848.5 4847.5,1848.5 4852.5,1848.5C 4852.91,1867.91 4843.74,1877.91 4825,1878.5C 4820.42,1878.7 4816.42,1877.37 4813,1874.5C 4812.67,1874.83 4812.33,1875.17 4812,1875.5C 4806,1868.83 4806,1862.17 4812,1855.5C 4812.33,1855.83 4812.67,1856.17 4813,1856.5C 4814.41,1855.21 4815.91,1854.05 4817.5,1853C 4824.23,1851.16 4830.89,1849.66 4837.5,1848.5 Z"/></g>
<g><path style="opacity:0.906" fill="#fefefe" d="M 5088.5,1783.5 C 5111.04,1780.29 5130.54,1786.63 5147,1802.5C 5161.86,1821.87 5165.2,1843.2 5157,1866.5C 5142.11,1894.82 5117.94,1906.16 5084.5,1900.5C 5051.5,1889.84 5036.5,1867.17 5039.5,1832.5C 5044.85,1806.83 5059.85,1790.83 5084.5,1784.5C 5086.03,1785.42 5087.36,1785.09 5088.5,1783.5 Z M 5092.5,1808.5 C 5116.73,1806.73 5129.4,1818.06 5130.5,1842.5C 5128.37,1868.52 5114.87,1879.52 5090,1875.5C 5081.6,1871.43 5075.6,1865.1 5072,1856.5C 5067.52,1841.02 5070.36,1827.19 5080.5,1815C 5084.54,1812.49 5088.54,1810.32 5092.5,1808.5 Z"/></g>
<g><path style="opacity:0.925" fill="#fefefe" d="M 5215.5,1898.5 C 5205.5,1898.5 5195.5,1898.5 5185.5,1898.5C 5185.5,1861.17 5185.5,1823.83 5185.5,1786.5C 5195.17,1786.5 5204.83,1786.5 5214.5,1786.5C 5214.33,1790.85 5214.5,1795.18 5215,1799.5C 5228.86,1783.57 5246.02,1779.4 5266.5,1787C 5280.44,1794.71 5287.94,1806.54 5289,1822.5C 5289.5,1847.83 5289.67,1873.16 5289.5,1898.5C 5279.5,1898.5 5269.5,1898.5 5259.5,1898.5C 5259.92,1873.8 5259.42,1849.14 5258,1824.5C 5255.79,1814.96 5249.79,1809.63 5240,1808.5C 5226.41,1809.65 5218.41,1816.99 5216,1830.5C 5215.5,1853.16 5215.33,1875.83 5215.5,1898.5 Z"/></g>
<g><path style="opacity:0.89" fill="#fefefe" d="M 5646.5,1783.5 C 5660.88,1782.01 5674.38,1784.01 5687,1789.5C 5692.19,1792.34 5696.69,1796.01 5700.5,1800.5C 5694.81,1807.36 5688.31,1813.36 5681,1818.5C 5676.76,1814.27 5671.92,1810.77 5666.5,1808C 5660.5,1807.33 5654.5,1807.33 5648.5,1808C 5638.37,1813.4 5638.04,1819.4 5647.5,1826C 5655.05,1828.28 5662.71,1830.11 5670.5,1831.5C 5676.95,1833.7 5683.28,1836.86 5689.5,1841C 5700.17,1852.17 5702.83,1865 5697.5,1879.5C 5692.07,1890.56 5682.9,1897.56 5670,1900.5C 5651.3,1904.13 5633.63,1901.47 5617,1892.5C 5615.67,1891.2 5614.34,1889.87 5613,1888.5C 5612.67,1888.83 5612.33,1889.17 5612,1889.5C 5610.2,1887.36 5608.36,1885.19 5606.5,1883C 5612.82,1876.25 5619.49,1869.75 5626.5,1863.5C 5628.61,1867.45 5631.61,1870.62 5635.5,1873C 5639.28,1873.66 5642.95,1875.16 5646.5,1877.5C 5654.17,1879.63 5661.17,1878.46 5667.5,1874C 5671.7,1868.21 5671.04,1863.04 5665.5,1858.5C 5653.21,1854.18 5640.88,1850.01 5628.5,1846C 5615.59,1838.18 5610.59,1826.84 5613.5,1812C 5615.66,1802.34 5621,1795 5629.5,1790C 5633.83,1788.17 5638.17,1786.33 5642.5,1784.5C 5644.3,1785.93 5645.63,1785.6 5646.5,1783.5 Z"/></g>
<g><path style="opacity:0.903" fill="#fefefe" d="M 5891.5,1797.5 C 5896.27,1804.11 5900.44,1811.11 5904,1818.5C 5906.77,1829.66 5907.94,1840.99 5907.5,1852.5C 5879.5,1852.5 5851.5,1852.5 5823.5,1852.5C 5824.82,1856.43 5826.16,1860.43 5827.5,1864.5C 5831.61,1869.11 5836.45,1872.78 5842,1875.5C 5850.27,1876.8 5858.61,1876.8 5867,1875.5C 5872.17,1872.66 5876.67,1869 5880.5,1864.5C 5882.17,1863.17 5883.83,1863.17 5885.5,1864.5C 5889.67,1868.83 5894.34,1872.67 5899.5,1876C 5900.43,1877.19 5901.1,1878.53 5901.5,1880C 5889.34,1895.24 5873.34,1902.74 5853.5,1902.5C 5808.59,1898.4 5788.76,1873.73 5794,1828.5C 5805.06,1794.61 5828.22,1779.77 5863.5,1784C 5869.02,1784.95 5874.52,1786.78 5880,1789.5C 5884.01,1792.03 5887.85,1794.7 5891.5,1797.5 Z M 5842.5,1807.5 C 5848.84,1807.33 5855.18,1807.5 5861.5,1808C 5867.92,1810.09 5872.42,1814.26 5875,1820.5C 5874.98,1824.01 5875.81,1827.18 5877.5,1830C 5859.5,1830.5 5841.5,1830.67 5823.5,1830.5C 5824.73,1825.6 5826.56,1820.94 5829,1816.5C 5832.89,1812.42 5837.39,1809.42 5842.5,1807.5 Z"/></g>
<g><path style="opacity:0.903" fill="#fefefe" d="M 6033.5,1898.5 C 6023.5,1898.5 6013.5,1898.5 6003.5,1898.5C 6003.67,1874.5 6003.5,1850.5 6003,1826.5C 5999.98,1810.68 5990.48,1805.51 5974.5,1811C 5972.64,1812.69 5970.64,1814.19 5968.5,1815.5C 5965.45,1820.94 5962.95,1826.61 5961,1832.5C 5960.5,1854.5 5960.33,1876.5 5960.5,1898.5C 5950.58,1898.82 5940.75,1898.49 5931,1897.5C 5930.33,1860.83 5930.33,1824.17 5931,1787.5C 5940.75,1786.51 5950.58,1786.18 5960.5,1786.5C 5960.33,1790.85 5960.5,1795.18 5961,1799.5C 5971.82,1785.79 5985.65,1780.62 6002.5,1784C 6013.52,1786.69 6022.02,1792.85 6028,1802.5C 6039.27,1786.44 6054.44,1780.27 6073.5,1784C 6093.05,1789.42 6103.88,1802.58 6106,1823.5C 6106.5,1848.5 6106.67,1873.5 6106.5,1898.5C 6095.83,1898.5 6085.17,1898.5 6074.5,1898.5C 6074.67,1873.16 6074.5,1847.83 6074,1822.5C 6066.82,1807.7 6056.32,1804.86 6042.5,1814C 6037.66,1818.01 6034.99,1823.18 6034.5,1829.5C 6033.5,1852.49 6033.17,1875.49 6033.5,1898.5 Z"/></g>
<g><path style="opacity:0.004" fill="#fefffe" d="M 4129.5,1786.5 C 4128.83,1785.17 4128.83,1785.17 4129.5,1786.5 Z"/></g>
<g><path style="opacity:0.004" fill="#fefffe" d="M 4159.5,1785.5 C 4160.83,1786.17 4160.83,1786.17 4159.5,1785.5 Z"/></g>
<g><path style="opacity:0.004" fill="#fefffe" d="M 4364.5,1786.5 C 4363.83,1785.17 4363.83,1785.17 4364.5,1786.5 Z"/></g>
<g><path style="opacity:0.004" fill="#000000" d="M 4667.5,1786.5 C 4666.83,1785.17 4666.83,1785.17 4667.5,1786.5 Z"/></g>
<g><path style="opacity:0.004" fill="#fefffe" d="M 4890.5,1786.5 C 4889.83,1785.17 4889.83,1785.17 4890.5,1786.5 Z"/></g>
<g><path style="opacity:0.004" fill="#fefffe" d="M 5185.5,1786.5 C 5184.83,1785.17 5184.83,1785.17 5185.5,1786.5 Z"/></g>
<g><path style="opacity:0.004" fill="#fefffe" d="M 5214.5,1785.5 C 5215.83,1786.17 5215.83,1786.17 5214.5,1785.5 Z"/></g>
<g><path style="opacity:0.004" fill="#fefffe" d="M 5485.5,1786.5 C 5484.83,1785.17 5484.83,1785.17 5485.5,1786.5 Z"/></g>
<g><path style="opacity:0.004" fill="#fefffe" d="M 5605.5,1785.5 C 5606.83,1786.17 5606.83,1786.17 5605.5,1785.5 Z"/></g>
<g><path style="opacity:0.004" fill="#fefffe" d="M 5782.5,1785.5 C 5783.83,1786.17 5783.83,1786.17 5782.5,1785.5 Z"/></g>
<g><path style="opacity:0.004" fill="#fefffe" d="M 5929.5,1785.5 C 5930.83,1786.17 5930.83,1786.17 5929.5,1785.5 Z"/></g>
<g><path style="opacity:0.953" fill="#fefefe" d="M 4129.5,1786.5 C 4139.5,1786.5 4149.5,1786.5 4159.5,1786.5C 4159.5,1823.83 4159.5,1861.17 4159.5,1898.5C 4149.5,1898.5 4139.5,1898.5 4129.5,1898.5C 4129.5,1861.17 4129.5,1823.83 4129.5,1786.5 Z"/></g>
<g><path style="opacity:0.889" fill="#fefefe" d="M 4364.5,1786.5 C 4375.08,1786.18 4385.58,1786.51 4396,1787.5C 4396.67,1824.17 4396.67,1860.83 4396,1897.5C 4386.25,1898.49 4376.42,1898.82 4366.5,1898.5C 4366.67,1893.82 4366.5,1889.15 4366,1884.5C 4354.78,1900.3 4339.28,1905.64 4319.5,1900.5C 4304.25,1894.71 4295.08,1883.71 4292,1867.5C 4291.5,1840.5 4291.33,1813.5 4291.5,1786.5C 4301.5,1786.5 4311.5,1786.5 4321.5,1786.5C 4321.33,1811.17 4321.5,1835.84 4322,1860.5C 4324.69,1870.91 4331.03,1876.24 4341,1876.5C 4348.9,1876.46 4355.4,1872.96 4360.5,1866C 4360.17,1865.67 4359.83,1865.33 4359.5,1865C 4361.63,1862.58 4363.13,1859.74 4364,1856.5C 4364.5,1833.17 4364.67,1809.84 4364.5,1786.5 Z"/></g>
<g><path style="opacity:0.899" fill="#fcfcfc" d="M 4612.5,1786.5 C 4623.17,1786.5 4633.83,1786.5 4644.5,1786.5C 4644.5,1823.83 4644.5,1861.17 4644.5,1898.5C 4633.83,1898.5 4623.17,1898.5 4612.5,1898.5C 4612.5,1861.17 4612.5,1823.83 4612.5,1786.5 Z"/></g>
<g><path style="opacity:0.903" fill="#fefefe" d="M 4667.5,1786.5 C 4698.5,1786.5 4729.5,1786.5 4760.5,1786.5C 4760.67,1795.17 4760.5,1803.84 4760,1812.5C 4757.9,1814.75 4756.06,1817.09 4754.5,1819.5C 4737.47,1837.36 4720.14,1855.2 4702.5,1873C 4722.83,1873.33 4743.17,1873.67 4763.5,1874C 4764.48,1882.08 4764.82,1890.25 4764.5,1898.5C 4731.17,1898.5 4697.83,1898.5 4664.5,1898.5C 4664.33,1890.16 4664.5,1881.83 4665,1873.5C 4677.16,1861.19 4688.66,1848.52 4699.5,1835.5C 4700.5,1835.59 4701.33,1835.25 4702,1834.5C 4707.91,1826.75 4714.41,1819.41 4721.5,1812.5C 4703.84,1811.67 4686.18,1811.17 4668.5,1811C 4667.52,1802.92 4667.18,1794.75 4667.5,1786.5 Z"/></g>
<g><path style="opacity:0.874" fill="#fefefe" d="M 4984.5,1786.5 C 4994.83,1786.5 5005.17,1786.5 5015.5,1786.5C 5015.5,1823.83 5015.5,1861.17 5015.5,1898.5C 5005.17,1898.5 4994.83,1898.5 4984.5,1898.5C 4984.5,1861.17 4984.5,1823.83 4984.5,1786.5 Z"/></g>
<g><path style="opacity:0.903" fill="#fefefe" d="M 5485.5,1786.5 C 5496.5,1786.5 5507.5,1786.5 5518.5,1786.5C 5528.79,1812.01 5538.63,1837.68 5548,1863.5C 5557.15,1837.83 5565.99,1812.17 5574.5,1786.5C 5584.83,1786.5 5595.17,1786.5 5605.5,1786.5C 5605.41,1788.7 5605.08,1790.86 5604.5,1793C 5587.41,1834.14 5571.07,1875.97 5555.5,1918.5C 5551.54,1928.28 5546.21,1937.12 5539.5,1945C 5531.46,1951.74 5522.13,1954.57 5511.5,1953.5C 5506.15,1953.3 5500.82,1952.97 5495.5,1952.5C 5496.22,1943.52 5496.55,1934.52 5496.5,1925.5C 5500.45,1926.94 5504.62,1927.61 5509,1927.5C 5512.7,1927.38 5516.2,1926.54 5519.5,1925C 5525.01,1916.48 5529.34,1907.31 5532.5,1897.5C 5516.55,1860.61 5500.89,1823.61 5485.5,1786.5 Z"/></g>
<g><path style="opacity:0.004" fill="#fefffe" d="M 4868.5,1793.5 C 4869.83,1794.17 4869.83,1794.17 4868.5,1793.5 Z"/></g>
<g><path style="opacity:0.004" fill="#fefffe" d="M 5888.5,1793.5 C 5889.83,1794.17 5889.83,1794.17 5888.5,1793.5 Z"/></g>
<g><path style="opacity:0.004" fill="#fefffe" d="M 4871.5,1796.5 C 4872.83,1797.17 4872.83,1797.17 4871.5,1796.5 Z"/></g>
<g><path style="opacity:0.004" fill="#000000" d="M 5891.5,1796.5 C 5892.83,1797.17 5892.83,1797.17 5891.5,1796.5 Z"/></g>
<g><path style="opacity:0.004" fill="#fefffe" d="M 5700.5,1802.5 C 5701.83,1803.17 5701.83,1803.17 5700.5,1802.5 Z"/></g>
<g><path style="opacity:0.004" fill="#fefffe" d="M 5152.5,1807.5 C 5153.83,1808.17 5153.83,1808.17 5152.5,1807.5 Z"/></g>
<g><path style="opacity:0.004" fill="#000000" d="M 4712.5,1818.5 C 4713.83,1819.17 4713.83,1819.17 4712.5,1818.5 Z"/></g>
<g><path style="opacity:0.004" fill="#fefffe" d="M 4754.5,1819.5 C 4755.83,1820.17 4755.83,1820.17 4754.5,1819.5 Z"/></g>
<g><path style="opacity:0.004" fill="#fefffe" d="M 4800.5,1819.5 C 4801.83,1820.17 4801.83,1820.17 4800.5,1819.5 Z"/></g>
<g><path style="opacity:0.918" fill="#fefefe" d="M 632.5,1821.5 C 670.199,1821.33 702.199,1834.5 728.5,1861C 698.302,1892.7 667.302,1923.53 635.5,1953.5C 634.062,1953.28 632.729,1952.78 631.5,1952C 602.489,1922.63 573.489,1893.8 544.5,1865.5C 543.684,1863.71 542.684,1862.05 541.5,1860.5C 566.912,1835.62 597.245,1822.62 632.5,1821.5 Z"/></g>
<g><path style="opacity:0.004" fill="#fefffe" d="M 4699.5,1835.5 C 4698.83,1834.17 4698.83,1834.17 4699.5,1835.5 Z"/></g>
<g><path style="opacity:0.004" fill="#fefffe" d="M 4263.5,1842.5 C 4264.83,1843.17 4264.83,1843.17 4263.5,1842.5 Z"/></g>
<g><path style="opacity:0.004" fill="#fefffe" d="M 4707.5,1870.5 C 4708.83,1871.17 4708.83,1871.17 4707.5,1870.5 Z"/></g>
<g><path style="opacity:0.004" fill="#fefffe" d="M 4331.5,1872.5 C 4332.83,1873.17 4332.83,1873.17 4331.5,1872.5 Z"/></g>
<g><path style="opacity:0.004" fill="#fefffe" d="M 4917.5,1892.5 C 4918.83,1893.17 4918.83,1893.17 4917.5,1892.5 Z"/></g>
<g><path style="opacity:0.004" fill="#fefffe" d="M 4129.5,1898.5 C 4128.83,1899.17 4128.83,1899.17 4129.5,1898.5 Z"/></g>
<g><path style="opacity:0.004" fill="#fefffe" d="M 4159.5,1898.5 C 4160.83,1899.17 4160.83,1899.17 4159.5,1898.5 Z"/></g>
<g><path style="opacity:0.004" fill="#fefffe" d="M 4366.5,1898.5 C 4365.83,1899.17 4365.83,1899.17 4366.5,1898.5 Z"/></g>
<g><path style="opacity:0.004" fill="#fefffe" d="M 4522.5,1898.5 C 4523.83,1899.17 4523.83,1899.17 4522.5,1898.5 Z"/></g>
<g><path style="opacity:0.004" fill="#fefffe" d="M 4552.5,1898.5 C 4551.83,1899.17 4551.83,1899.17 4552.5,1898.5 Z"/></g>
<g><path style="opacity:0.004" fill="#fefffe" d="M 4582.5,1898.5 C 4583.83,1899.17 4583.83,1899.17 4582.5,1898.5 Z"/></g>
<g><path style="opacity:0.004" fill="#fefffe" d="M 4881.5,1898.5 C 4882.83,1899.17 4882.83,1899.17 4881.5,1898.5 Z"/></g>
<g><path style="opacity:0.004" fill="#fefffe" d="M 4966.5,1898.5 C 4967.83,1899.17 4967.83,1899.17 4966.5,1898.5 Z"/></g>
<g><path style="opacity:0.004" fill="#fefffe" d="M 5185.5,1898.5 C 5184.83,1899.17 5184.83,1899.17 5185.5,1898.5 Z"/></g>
<g><path style="opacity:0.004" fill="#fefffe" d="M 5215.5,1898.5 C 5216.83,1899.17 5216.83,1899.17 5215.5,1898.5 Z"/></g>
<g><path style="opacity:0.004" fill="#fefffe" d="M 5929.5,1898.5 C 5930.83,1899.17 5930.83,1899.17 5929.5,1898.5 Z"/></g>
<g><path style="opacity:0.004" fill="#fefffe" d="M 5961.5,1898.5 C 5962.83,1899.17 5962.83,1899.17 5961.5,1898.5 Z"/></g>
<g><path style="opacity:0.004" fill="#fefffe" d="M 6003.5,1898.5 C 6002.83,1899.17 6002.83,1899.17 6003.5,1898.5 Z"/></g>
<g><path style="opacity:0.004" fill="#fefffe" d="M 6033.5,1898.5 C 6034.83,1899.17 6034.83,1899.17 6033.5,1898.5 Z"/></g>
</svg>
