<?xml version="1.0" encoding="UTF-8"?>
<!DOCTYPE svg PUBLIC "-//W3C//DTD SVG 1.1//EN" "http://www.w3.org/Graphics/SVG/1.1/DTD/svg11.dtd">
<svg xmlns="http://www.w3.org/2000/svg" version="1.1" width="2143px" height="2143px" style="shape-rendering:geometricPrecision; text-rendering:geometricPrecision; image-rendering:optimizeQuality; fill-rule:evenodd; clip-rule:evenodd" xmlns:xlink="http://www.w3.org/1999/xlink">
<g><path style="opacity:0.999" fill="#3b3838" d="M 1026.5,-0.5 C 1056.17,-0.5 1085.83,-0.5 1115.5,-0.5C 1392.97,14.9438 1630.63,119.111 1828.5,312C 2022.26,510.101 2126.92,748.268 2142.5,1026.5C 2142.5,1056.17 2142.5,1085.83 2142.5,1115.5C 2127.06,1392.97 2022.89,1630.63 1830,1828.5C 1631.9,2022.26 1393.73,2126.92 1115.5,2142.5C 1085.83,2142.5 1056.17,2142.5 1026.5,2142.5C 749.034,2127.06 511.367,2022.89 313.5,1830C 119.743,1631.9 15.0759,1393.73 -0.5,1115.5C -0.5,1085.83 -0.5,1056.17 -0.5,1026.5C 14.9438,749.034 119.111,511.367 312,313.5C 510.101,119.743 748.268,15.0759 1026.5,-0.5 Z"/></g>
<g><path style="opacity:1" fill="#fcfcfb" d="M 1493.5,292.5 C 1492.6,317.233 1480.27,333.066 1456.5,340C 1448.09,340.324 1439.76,340.491 1431.5,340.5C 1405.23,401.028 1379.56,461.694 1354.5,522.5C 1308.3,629.877 1262.13,737.544 1216,845.5C 1215.2,847.259 1215.37,848.926 1216.5,850.5C 1232.44,859.053 1240.78,872.386 1241.5,890.5C 1240.43,920.907 1224.76,937.24 1194.5,939.5C 1173.69,938.167 1159.19,927.833 1151,908.5C 1149.65,902.905 1148.82,897.238 1148.5,891.5C 1148.5,891.167 1148.5,890.833 1148.5,890.5C 1148.75,879.926 1152.25,870.592 1159,862.5C 1159.67,861.5 1159.67,860.5 1159,859.5C 1117.29,810.056 1075.12,761.056 1032.5,712.5C 1032.5,712.167 1032.5,711.833 1032.5,711.5C 1010.83,686.161 989.16,660.828 967.5,635.5C 945.221,648.93 924.554,646.93 905.5,629.5C 886.247,644.613 867.247,659.946 848.5,675.5C 847.833,675.5 847.5,675.833 847.5,676.5C 806.315,708.271 765.649,740.771 725.5,774C 727.595,778.019 729.261,782.186 730.5,786.5C 730.41,789.152 731.076,791.485 732.5,793.5C 732.5,795.167 732.5,796.833 732.5,798.5C 731.948,824.213 719.281,840.38 694.5,847C 668.325,849.832 650.492,838.998 641,814.5C 639.729,809.246 639.229,803.913 639.5,798.5C 639.5,796.833 639.5,795.167 639.5,793.5C 642.67,774.479 653.337,761.813 671.5,755.5C 674.152,755.59 676.485,754.924 678.5,753.5C 693.793,752.483 707.127,756.983 718.5,767C 719.167,767.667 719.833,767.667 720.5,767C 763.065,732.257 805.732,697.757 848.5,663.5C 866.058,650.788 883.225,637.454 900,623.5C 897.857,618.488 896.19,613.155 895,607.5C 893.985,603.56 893.485,599.56 893.5,595.5C 894.64,577.533 902.973,564.033 918.5,555C 927.714,550.928 937.381,549.428 947.5,550.5C 949.599,551.612 951.933,552.279 954.5,552.5C 974.578,559.305 985.578,573.305 987.5,594.5C 987.5,594.833 987.5,595.167 987.5,595.5C 987.702,608.897 983.369,620.564 974.5,630.5C 993.177,653.172 1012.18,675.505 1031.5,697.5C 1031.5,698.167 1031.83,698.5 1032.5,698.5C 1076.62,750.461 1120.96,802.294 1165.5,854C 1166.5,854.667 1167.5,854.667 1168.5,854C 1173.06,850.555 1178.06,847.888 1183.5,846C 1191.22,845.2 1198.88,845.367 1206.5,846.5C 1256.7,730.45 1306.03,614.116 1354.5,497.5C 1355.5,497.167 1356.17,496.5 1356.5,495.5C 1378.57,442.007 1401.24,388.674 1424.5,335.5C 1408.44,325.728 1400.44,311.395 1400.5,292.5C 1402.21,269.949 1413.88,255.115 1435.5,248C 1462.44,244.381 1481.28,254.881 1492,279.5C 1493.19,283.751 1493.69,288.085 1493.5,292.5 Z"/></g>
<g><path style="opacity:1" fill="#9c1e1c" d="M 1399.5,292.5 C 1384.83,292.5 1370.17,292.5 1355.5,292.5C 1355.17,360.335 1355.5,428.002 1356.5,495.5C 1356.17,496.5 1355.5,497.167 1354.5,497.5C 1354.5,428.833 1354.5,360.167 1354.5,291.5C 1369.68,291.171 1384.68,291.504 1399.5,292.5 Z"/></g>
<g><path style="opacity:1" fill="#fe0201" d="M 1399.5,292.5 C 1399.83,292.5 1400.17,292.5 1400.5,292.5C 1400.44,311.395 1408.44,325.728 1424.5,335.5C 1401.24,388.674 1378.57,442.007 1356.5,495.5C 1355.5,428.002 1355.17,360.335 1355.5,292.5C 1370.17,292.5 1384.83,292.5 1399.5,292.5 Z"/></g>
<g><path style="opacity:1" fill="#fe0000" d="M 1493.5,292.5 C 1508.5,292.5 1523.5,292.5 1538.5,292.5C 1538.83,609.334 1538.5,926 1537.5,1242.5C 1483.05,1197.17 1422.22,1162.17 1355,1137.5C 1354.5,932.5 1354.33,727.5 1354.5,522.5C 1379.56,461.694 1405.23,401.028 1431.5,340.5C 1439.76,340.491 1448.09,340.324 1456.5,340C 1480.27,333.066 1492.6,317.233 1493.5,292.5 Z"/></g>
<g><path style="opacity:1" fill="#941e1e" d="M 1538.5,292.5 C 1539.17,450.833 1539.5,609.333 1539.5,768C 1539.17,926.5 1538.83,1085 1538.5,1243.5C 1537.89,1243.38 1537.56,1243.04 1537.5,1242.5C 1538.5,926 1538.83,609.334 1538.5,292.5 Z"/></g>
<g><path style="opacity:1" fill="#969494" d="M 947.5,550.5 C 950.228,550.171 952.562,550.837 954.5,552.5C 951.933,552.279 949.599,551.612 947.5,550.5 Z"/></g>
<g><path style="opacity:1" fill="#09b1f0" d="M 893.5,595.5 C 893.485,599.56 893.985,603.56 895,607.5C 896.19,613.155 897.857,618.488 900,623.5C 883.225,637.454 866.058,650.788 848.5,663.5C 848.5,640.833 848.5,618.167 848.5,595.5C 863.5,595.5 878.5,595.5 893.5,595.5 Z"/></g>
<g><path style="opacity:1" fill="#07b0f0" d="M 987.5,595.5 C 1002.17,595.5 1016.83,595.5 1031.5,595.5C 1031.5,629.5 1031.5,663.5 1031.5,697.5C 1012.18,675.505 993.177,653.172 974.5,630.5C 983.369,620.564 987.702,608.897 987.5,595.5 Z"/></g>
<g><path style="opacity:1" fill="#1f7da1" d="M 987.5,595.5 C 987.5,595.167 987.5,594.833 987.5,594.5C 1002.5,594.5 1017.5,594.5 1032.5,594.5C 1032.5,629.167 1032.5,663.833 1032.5,698.5C 1031.83,698.5 1031.5,698.167 1031.5,697.5C 1031.5,663.5 1031.5,629.5 1031.5,595.5C 1016.83,595.5 1002.17,595.5 987.5,595.5 Z"/></g>
<g><path style="opacity:1" fill="#00b0f0" d="M 1032.5,711.5 C 1031.5,834.999 1031.17,958.666 1031.5,1082.5C 1026.64,1082.18 1021.97,1082.51 1017.5,1083.5C 1000.37,1083.31 983.37,1084.65 966.5,1087.5C 956.234,1087.82 946.234,1089.16 936.5,1091.5C 919.682,1093.37 903.015,1096.2 886.5,1100C 874.425,1102.98 862.425,1106.15 850.5,1109.5C 848.502,965.171 847.835,820.504 848.5,675.5C 867.247,659.946 886.247,644.613 905.5,629.5C 924.554,646.93 945.221,648.93 967.5,635.5C 989.16,660.828 1010.83,686.161 1032.5,711.5 Z"/></g>
<g><path style="opacity:1" fill="#266278" d="M 848.5,675.5 C 847.835,820.504 848.502,965.171 850.5,1109.5C 849.791,1110.4 848.791,1110.74 847.5,1110.5C 847.5,965.833 847.5,821.167 847.5,676.5C 847.5,675.833 847.833,675.5 848.5,675.5 Z"/></g>
<g><path style="opacity:1" fill="#1585ae" d="M 1032.5,711.5 C 1032.5,711.833 1032.5,712.167 1032.5,712.5C 1032.5,836.167 1032.5,959.833 1032.5,1083.5C 1027.5,1083.5 1022.5,1083.5 1017.5,1083.5C 1021.97,1082.51 1026.64,1082.18 1031.5,1082.5C 1031.17,958.666 1031.5,834.999 1032.5,711.5 Z"/></g>
<g><path style="opacity:1" fill="#999797" d="M 678.5,753.5 C 676.485,754.924 674.152,755.59 671.5,755.5C 673.515,754.076 675.848,753.41 678.5,753.5 Z"/></g>
<g><path style="opacity:1" fill="#9a9999" d="M 730.5,786.5 C 731.924,788.515 732.59,790.848 732.5,793.5C 731.076,791.485 730.41,789.152 730.5,786.5 Z"/></g>
<g><path style="opacity:1" fill="#525d41" d="M 639.5,793.5 C 639.5,795.167 639.5,796.833 639.5,798.5C 624.5,798.5 609.5,798.5 594.5,798.5C 594.167,798.5 593.833,798.5 593.5,798.5C 608.324,797.504 623.324,797.171 638.5,797.5C 638.232,795.901 638.566,794.568 639.5,793.5 Z"/></g>
<g><path style="opacity:1" fill="#729847" d="M 593.5,798.5 C 593.833,798.5 594.167,798.5 594.5,798.5C 594.5,798.833 594.5,799.167 594.5,799.5C 594.167,945.334 594.5,1091 595.5,1236.5C 595.44,1237.04 595.107,1237.38 594.5,1237.5C 593.5,1091.17 593.167,944.835 593.5,798.5 Z"/></g>
<g><path style="opacity:1" fill="#99da53" d="M 594.5,799.5 C 609.17,799.333 623.837,799.5 638.5,800C 624.171,800.5 609.837,800.667 595.5,800.5C 595.5,945.833 595.5,1091.17 595.5,1236.5C 594.5,1091 594.167,945.334 594.5,799.5 Z"/></g>
<g><path style="opacity:1" fill="#92d050" d="M 594.5,799.5 C 594.5,799.167 594.5,798.833 594.5,798.5C 609.5,798.5 624.5,798.5 639.5,798.5C 639.229,803.913 639.729,809.246 641,814.5C 650.492,838.998 668.325,849.832 694.5,847C 719.281,840.38 731.948,824.213 732.5,798.5C 747.5,798.5 762.5,798.5 777.5,798.5C 777.5,910.167 777.5,1021.83 777.5,1133.5C 710.803,1157.51 650.136,1191.84 595.5,1236.5C 595.5,1091.17 595.5,945.833 595.5,800.5C 609.837,800.667 624.171,800.5 638.5,800C 623.837,799.5 609.17,799.333 594.5,799.5 Z"/></g>
<g><path style="opacity:1" fill="#daa70a" d="M 1148.5,890.5 C 1148.5,890.833 1148.5,891.167 1148.5,891.5C 1132.83,891.5 1117.17,891.5 1101.5,891.5C 1101.5,955.167 1101.5,1018.83 1101.5,1082.5C 1104.06,1082.2 1106.39,1082.53 1108.5,1083.5C 1105.83,1083.5 1103.17,1083.5 1100.5,1083.5C 1100.5,1019.17 1100.5,954.833 1100.5,890.5C 1116.5,890.5 1132.5,890.5 1148.5,890.5 Z"/></g>
<g><path style="opacity:1" fill="#fec000" d="M 1241.5,890.5 C 1255.83,890.5 1270.17,890.5 1284.5,890.5C 1284.5,963.833 1284.5,1037.17 1284.5,1110.5C 1283.5,1110.5 1282.5,1110.5 1281.5,1110.5C 1269.98,1107.79 1258.65,1104.79 1247.5,1101.5C 1244.63,1099.24 1241.3,1097.74 1237.5,1097C 1230.89,1095.79 1224.22,1095.29 1217.5,1095.5C 1211.43,1093.62 1205.1,1092.62 1198.5,1092.5C 1197.83,1092.5 1197.17,1092.5 1196.5,1092.5C 1191.17,1090.33 1185.5,1089.33 1179.5,1089.5C 1172.42,1089.42 1165.42,1088.75 1158.5,1087.5C 1158.08,1086.78 1157.42,1086.28 1156.5,1086C 1140.58,1083.94 1124.58,1083.11 1108.5,1083.5C 1106.39,1082.53 1104.06,1082.2 1101.5,1082.5C 1101.5,1018.83 1101.5,955.167 1101.5,891.5C 1117.17,891.5 1132.83,891.5 1148.5,891.5C 1148.82,897.238 1149.65,902.905 1151,908.5C 1159.19,927.833 1173.69,938.167 1194.5,939.5C 1224.76,937.24 1240.43,920.907 1241.5,890.5 Z"/></g>
<g><path style="opacity:1" fill="#60522c" d="M 1284.5,890.5 C 1285.5,963.998 1285.83,1037.66 1285.5,1111.5C 1283.9,1111.77 1282.57,1111.43 1281.5,1110.5C 1282.5,1110.5 1283.5,1110.5 1284.5,1110.5C 1284.5,1037.17 1284.5,963.833 1284.5,890.5 Z"/></g>
<g><path style="opacity:1" fill="#b8901a" d="M 1100.5,1083.5 C 1103.17,1083.5 1105.83,1083.5 1108.5,1083.5C 1124.58,1083.11 1140.58,1083.94 1156.5,1086C 1157.42,1086.28 1158.08,1086.78 1158.5,1087.5C 1139.08,1085.31 1119.75,1083.97 1100.5,1083.5 Z"/></g>
<g><path style="opacity:1" fill="#ae8a1b" d="M 1179.5,1089.5 C 1185.5,1089.33 1191.17,1090.33 1196.5,1092.5C 1190.63,1091.95 1184.96,1090.95 1179.5,1089.5 Z"/></g>
<g><path style="opacity:1" fill="#31596b" d="M 966.5,1087.5 C 956.719,1089.46 946.719,1090.79 936.5,1091.5C 946.234,1089.16 956.234,1087.82 966.5,1087.5 Z"/></g>
<g><path style="opacity:1" fill="#a7841f" d="M 1198.5,1092.5 C 1205.1,1092.62 1211.43,1093.62 1217.5,1095.5C 1210.89,1095.45 1204.56,1094.45 1198.5,1092.5 Z"/></g>
<g><path style="opacity:1" fill="#dcaa12" d="M 1217.5,1095.5 C 1224.22,1095.29 1230.89,1095.79 1237.5,1097C 1241.3,1097.74 1244.63,1099.24 1247.5,1101.5C 1237.2,1100.37 1227.2,1098.37 1217.5,1095.5 Z"/></g>
<g><path style="opacity:1" fill="#595757" d="M 1103.5,1130.5 C 1081.66,1130.17 1059.99,1130.5 1038.5,1131.5C 1038.17,1131.5 1037.83,1131.5 1037.5,1131.5C 1029.15,1131.48 1020.82,1131.81 1012.5,1132.5C 1019.27,1130.94 1026.27,1130.11 1033.5,1130C 1057,1129.17 1080.34,1129.34 1103.5,1130.5 Z"/></g>
<g><path style="opacity:1" fill="#afadad" d="M 1038.5,1131.5 C 1059.99,1130.5 1081.66,1130.17 1103.5,1130.5C 1109.48,1131.63 1115.48,1132.63 1121.5,1133.5C 1093.87,1132.04 1066.2,1131.37 1038.5,1131.5 Z"/></g>
<g><path style="opacity:1" fill="#fefefe" d="M 1037.5,1131.5 C 1037.83,1131.5 1038.17,1131.5 1038.5,1131.5C 1066.2,1131.37 1093.87,1132.04 1121.5,1133.5C 1130.36,1133.61 1139.02,1134.27 1147.5,1135.5C 1148.26,1136.27 1149.26,1136.77 1150.5,1137C 1159.99,1137.42 1169.32,1138.25 1178.5,1139.5C 1178.83,1139.5 1179.17,1139.5 1179.5,1139.5C 1180.26,1140.27 1181.26,1140.77 1182.5,1141C 1186.49,1141.5 1190.49,1141.67 1194.5,1141.5C 1199.01,1142.98 1203.68,1143.65 1208.5,1143.5C 1210.51,1144.92 1212.85,1145.59 1215.5,1145.5C 1226.92,1148.51 1238.59,1151.18 1250.5,1153.5C 1276.14,1160.24 1301.48,1167.91 1326.5,1176.5C 1332.37,1180.07 1338.7,1182.91 1345.5,1185C 1347.47,1185.5 1349.47,1185.66 1351.5,1185.5C 1370.17,1193.39 1388.51,1202.06 1406.5,1211.5C 1414.66,1216.01 1423,1220.34 1431.5,1224.5C 1437.25,1228.23 1443.25,1231.57 1449.5,1234.5C 1451.55,1237.03 1454.22,1238.7 1457.5,1239.5C 1463.11,1243.36 1468.78,1247.02 1474.5,1250.5C 1476.75,1253.39 1479.75,1255.06 1483.5,1255.5C 1508.07,1273.39 1532.4,1291.72 1556.5,1310.5C 1558.9,1313.9 1561.9,1316.57 1565.5,1318.5C 1575.2,1328.2 1585.2,1337.53 1595.5,1346.5C 1595.66,1347.87 1595.49,1349.21 1595,1350.5C 1581.58,1363.75 1568.42,1377.08 1555.5,1390.5C 1549.5,1395.17 1544.17,1400.5 1539.5,1406.5C 1535.5,1408.5 1532.5,1411.5 1530.5,1415.5C 1527.16,1417.68 1524.32,1420.34 1522,1423.5C 1518.34,1421.01 1515.18,1418.01 1512.5,1414.5C 1509.77,1410.77 1506.44,1407.77 1502.5,1405.5C 1490.69,1395.19 1478.69,1385.02 1466.5,1375C 1457.85,1369.03 1449.19,1363.03 1440.5,1357C 1438.83,1355.33 1437.17,1353.67 1435.5,1352C 1419.65,1342.29 1403.99,1332.46 1388.5,1322.5C 1388.05,1321.54 1387.38,1320.71 1386.5,1320C 1380.52,1317.06 1374.52,1314.23 1368.5,1311.5C 1365.2,1310.27 1362.2,1308.6 1359.5,1306.5C 1358.65,1304.91 1357.32,1303.74 1355.5,1303C 1347.39,1300.02 1339.39,1296.85 1331.5,1293.5C 1330.07,1292.46 1328.4,1291.8 1326.5,1291.5C 1321.9,1289.53 1317.57,1287.03 1313.5,1284C 1309.79,1282.01 1305.79,1281.18 1301.5,1281.5C 1277.11,1271.81 1252.11,1263.81 1226.5,1257.5C 1209.74,1253.09 1192.74,1249.43 1175.5,1246.5C 1173.11,1244.59 1170.28,1243.59 1167,1243.5C 1158.17,1242.71 1149.34,1242.04 1140.5,1241.5C 1134.91,1240.91 1129.24,1240.07 1123.5,1239C 1116.51,1238.5 1109.51,1238.33 1102.5,1238.5C 1102.08,1237.78 1101.42,1237.28 1100.5,1237C 1079.5,1236.33 1058.5,1236.33 1037.5,1237C 1035.62,1237.2 1033.95,1237.7 1032.5,1238.5C 1023.83,1238.33 1015.16,1238.5 1006.5,1239C 1005.26,1239.23 1004.26,1239.73 1003.5,1240.5C 992.431,1240.58 981.431,1241.42 970.5,1243C 965.728,1243.97 961.061,1245.14 956.5,1246.5C 953.99,1246.93 951.657,1247.59 949.5,1248.5C 923.707,1251.84 898.707,1257.84 874.5,1266.5C 874.167,1266.5 873.833,1266.5 873.5,1266.5C 869.01,1266.78 865.01,1268.12 861.5,1270.5C 856.03,1271.77 850.696,1273.43 845.5,1275.5C 840.225,1276.86 834.891,1278.36 829.5,1280C 827.608,1281.76 825.608,1283.26 823.5,1284.5C 818.804,1285.81 814.138,1287.31 809.5,1289C 808.944,1289.38 808.611,1289.88 808.5,1290.5C 807.127,1290.34 805.793,1290.51 804.5,1291C 800.742,1293.2 797.075,1295.37 793.5,1297.5C 786.91,1300.06 780.576,1303.06 774.5,1306.5C 771.546,1307.43 768.546,1308.26 765.5,1309C 763.681,1309.74 762.348,1310.91 761.5,1312.5C 754.134,1316.85 746.801,1321.18 739.5,1325.5C 735.089,1326.39 731.422,1328.39 728.5,1331.5C 722.459,1335.17 716.459,1338.84 710.5,1342.5C 708.688,1342.77 707.022,1343.44 705.5,1344.5C 702.352,1347.17 699.352,1349.84 696.5,1352.5C 695.5,1353.17 694.5,1353.83 693.5,1354.5C 688.707,1356.55 684.707,1359.55 681.5,1363.5C 677.935,1364.41 675.268,1366.41 673.5,1369.5C 670.039,1370.55 667.373,1372.55 665.5,1375.5C 663.205,1376.14 661.539,1377.47 660.5,1379.5C 653.01,1384.24 646.343,1389.9 640.5,1396.5C 637.527,1397.81 635.193,1399.81 633.5,1402.5C 629.394,1405.43 625.394,1408.6 621.5,1412C 620.177,1412.82 619.511,1413.98 619.5,1415.5C 616.912,1417.08 614.578,1419.08 612.5,1421.5C 611.232,1422.43 609.899,1422.59 608.5,1422C 583.94,1398.61 559.94,1374.77 536.5,1350.5C 536.351,1349.45 536.517,1348.45 537,1347.5C 541.703,1342.96 546.203,1338.3 550.5,1333.5C 553.516,1329.49 557.183,1326.15 561.5,1323.5C 569.449,1317.88 576.782,1311.55 583.5,1304.5C 584.539,1302.47 586.205,1301.14 588.5,1300.5C 592.146,1298.18 595.48,1295.52 598.5,1292.5C 600.918,1288.75 604.251,1286.09 608.5,1284.5C 613.746,1281.59 618.413,1277.92 622.5,1273.5C 623.167,1273.17 623.833,1272.83 624.5,1272.5C 630.471,1268.88 636.471,1265.21 642.5,1261.5C 644.521,1260.15 646.188,1258.48 647.5,1256.5C 649.772,1255.56 651.772,1254.23 653.5,1252.5C 660.48,1248.03 667.814,1244.19 675.5,1241C 676.381,1240.29 677.047,1239.46 677.5,1238.5C 677.953,1237.54 678.619,1236.71 679.5,1236C 689.327,1231.11 698.994,1225.95 708.5,1220.5C 718.306,1215.23 728.473,1210.56 739,1206.5C 740.31,1205.87 741.144,1204.87 741.5,1203.5C 742.167,1203.5 742.833,1203.5 743.5,1203.5C 745.482,1203 747.482,1202.5 749.5,1202C 755.417,1198.54 761.417,1195.37 767.5,1192.5C 770.753,1191.4 774.086,1190.74 777.5,1190.5C 777.5,1189.5 777.5,1188.5 777.5,1187.5C 779.38,1187.77 780.713,1187.1 781.5,1185.5C 785.327,1183.68 789.327,1182.35 793.5,1181.5C 795.527,1181.66 797.527,1181.5 799.5,1181C 803.056,1179.39 806.389,1177.56 809.5,1175.5C 816.773,1172.63 824.106,1169.96 831.5,1167.5C 834.456,1166.86 837.456,1166.36 840.5,1166C 842.066,1165.39 843.4,1164.56 844.5,1163.5C 850.42,1162.02 856.42,1160.86 862.5,1160C 866.196,1159.09 869.53,1157.59 872.5,1155.5C 890.999,1150.87 909.666,1146.87 928.5,1143.5C 935.461,1142.49 942.461,1141.66 949.5,1141C 952.31,1140.22 954.977,1139.38 957.5,1138.5C 975.466,1136.5 993.466,1134.84 1011.5,1133.5C 1020.39,1133.86 1029.06,1133.19 1037.5,1131.5 Z"/></g>
<g><path style="opacity:1" fill="#c8c7c7" d="M 1037.5,1131.5 C 1029.06,1133.19 1020.39,1133.86 1011.5,1133.5C 1011.5,1133.17 1011.5,1132.83 1011.5,1132.5C 1011.83,1132.5 1012.17,1132.5 1012.5,1132.5C 1020.82,1131.81 1029.15,1131.48 1037.5,1131.5 Z"/></g>
<g><path style="opacity:1" fill="#919090" d="M 1011.5,1132.5 C 1011.5,1132.83 1011.5,1133.17 1011.5,1133.5C 993.466,1134.84 975.466,1136.5 957.5,1138.5C 962.628,1137.01 967.962,1135.84 973.5,1135C 986.151,1133.84 998.817,1133 1011.5,1132.5 Z"/></g>
<g><path style="opacity:1" fill="#535050" d="M 1103.5,1130.5 C 1136.41,1131.38 1169.08,1134.71 1201.5,1140.5C 1203.62,1142.02 1205.95,1143.02 1208.5,1143.5C 1203.68,1143.65 1199.01,1142.98 1194.5,1141.5C 1189.73,1140.11 1184.73,1139.44 1179.5,1139.5C 1179.17,1139.5 1178.83,1139.5 1178.5,1139.5C 1168.48,1136.79 1158.15,1135.46 1147.5,1135.5C 1139.02,1134.27 1130.36,1133.61 1121.5,1133.5C 1115.48,1132.63 1109.48,1131.63 1103.5,1130.5 Z"/></g>
<g><path style="opacity:1" fill="#b7b6b6" d="M 1147.5,1135.5 C 1158.15,1135.46 1168.48,1136.79 1178.5,1139.5C 1169.32,1138.25 1159.99,1137.42 1150.5,1137C 1149.26,1136.77 1148.26,1136.27 1147.5,1135.5 Z"/></g>
<g><path style="opacity:1" fill="#a8a6a6" d="M 957.5,1138.5 C 954.977,1139.38 952.31,1140.22 949.5,1141C 942.461,1141.66 935.461,1142.49 928.5,1143.5C 930.663,1142.53 932.996,1141.7 935.5,1141C 942.776,1139.63 950.109,1138.8 957.5,1138.5 Z"/></g>
<g><path style="opacity:1" fill="#a19f9f" d="M 1179.5,1139.5 C 1184.73,1139.44 1189.73,1140.11 1194.5,1141.5C 1190.49,1141.67 1186.49,1141.5 1182.5,1141C 1181.26,1140.77 1180.26,1140.27 1179.5,1139.5 Z"/></g>
<g><path style="opacity:1" fill="#777575" d="M 1215.5,1145.5 C 1223.61,1146.08 1231.61,1147.24 1239.5,1149C 1243.45,1150.06 1247.12,1151.56 1250.5,1153.5C 1238.59,1151.18 1226.92,1148.51 1215.5,1145.5 Z"/></g>
<g><path style="opacity:1" fill="#a3a2a2" d="M 872.5,1155.5 C 869.53,1157.59 866.196,1159.09 862.5,1160C 856.42,1160.86 850.42,1162.02 844.5,1163.5C 844.611,1162.88 844.944,1162.38 845.5,1162C 854.643,1160.4 863.643,1158.23 872.5,1155.5 Z"/></g>
<g><path style="opacity:1" fill="#9b9999" d="M 844.5,1163.5 C 843.4,1164.56 842.066,1165.39 840.5,1166C 837.456,1166.36 834.456,1166.86 831.5,1167.5C 831.611,1166.88 831.944,1166.38 832.5,1166C 836.594,1165.44 840.594,1164.61 844.5,1163.5 Z"/></g>
<g><path style="opacity:1" fill="#cdcccc" d="M 809.5,1175.5 C 806.389,1177.56 803.056,1179.39 799.5,1181C 797.527,1181.5 795.527,1181.66 793.5,1181.5C 796.197,1179.56 799.197,1178.06 802.5,1177C 804.74,1176.02 807.073,1175.52 809.5,1175.5 Z"/></g>
<g><path style="opacity:1" fill="#777575" d="M 1326.5,1176.5 C 1332.71,1179.49 1339.37,1181.33 1346.5,1182C 1348.43,1182.9 1350.1,1184.07 1351.5,1185.5C 1349.47,1185.66 1347.47,1185.5 1345.5,1185C 1338.7,1182.91 1332.37,1180.07 1326.5,1176.5 Z"/></g>
<g><path style="opacity:1" fill="#696666" d="M 760.5,1194.5 C 754.911,1197.69 749.244,1200.69 743.5,1203.5C 742.833,1203.5 742.167,1203.5 741.5,1203.5C 741.953,1202.54 742.619,1201.71 743.5,1201C 746.285,1200.34 748.951,1199.51 751.5,1198.5C 751.5,1197.5 751.5,1196.5 751.5,1195.5C 754.518,1195.3 757.518,1194.96 760.5,1194.5 Z"/></g>
<g><path style="opacity:1" fill="#cbcaca" d="M 781.5,1185.5 C 780.713,1187.1 779.38,1187.77 777.5,1187.5C 777.5,1188.5 777.5,1189.5 777.5,1190.5C 774.086,1190.74 770.753,1191.4 767.5,1192.5C 761.417,1195.37 755.417,1198.54 749.5,1202C 747.482,1202.5 745.482,1203 743.5,1203.5C 749.244,1200.69 754.911,1197.69 760.5,1194.5C 767.261,1191.11 774.261,1188.11 781.5,1185.5 Z"/></g>
<g><path style="opacity:1" fill="#bfbebe" d="M 741.5,1203.5 C 741.144,1204.87 740.31,1205.87 739,1206.5C 728.473,1210.56 718.306,1215.23 708.5,1220.5C 710.316,1218.86 712.316,1217.36 714.5,1216C 723.521,1211.93 732.521,1207.77 741.5,1203.5 Z"/></g>
<g><path style="opacity:1" fill="#767373" d="M 1406.5,1211.5 C 1407.87,1211.34 1409.21,1211.51 1410.5,1212C 1415.83,1214.67 1421.17,1217.33 1426.5,1220C 1428.77,1220.89 1430.43,1222.39 1431.5,1224.5C 1423,1220.34 1414.66,1216.01 1406.5,1211.5 Z"/></g>
<g><path style="opacity:1" fill="#b9b8b8" d="M 1102.5,1238.5 C 1079.17,1237.17 1055.83,1237.17 1032.5,1238.5C 1033.95,1237.7 1035.62,1237.2 1037.5,1237C 1058.5,1236.33 1079.5,1236.33 1100.5,1237C 1101.42,1237.28 1102.08,1237.78 1102.5,1238.5 Z"/></g>
<g><path style="opacity:1" fill="#918f8f" d="M 1449.5,1234.5 C 1451.34,1235.58 1453.34,1236.42 1455.5,1237C 1456.38,1237.71 1457.05,1238.54 1457.5,1239.5C 1454.22,1238.7 1451.55,1237.03 1449.5,1234.5 Z"/></g>
<g><path style="opacity:1" fill="#7e7c7c" d="M 1102.5,1238.5 C 1109.51,1238.33 1116.51,1238.5 1123.5,1239C 1129.24,1240.07 1134.91,1240.91 1140.5,1241.5C 1115.38,1239.89 1090.21,1238.89 1065,1238.5C 1044.43,1238.66 1023.93,1239.66 1003.5,1241.5C 1003.5,1241.17 1003.5,1240.83 1003.5,1240.5C 1004.26,1239.73 1005.26,1239.23 1006.5,1239C 1015.16,1238.5 1023.83,1238.33 1032.5,1238.5C 1055.83,1237.17 1079.17,1237.17 1102.5,1238.5 Z"/></g>
<g><path style="opacity:1" fill="#cbcaca" d="M 1140.5,1241.5 C 1149.34,1242.04 1158.17,1242.71 1167,1243.5C 1170.28,1243.59 1173.11,1244.59 1175.5,1246.5C 1168.49,1245.59 1161.49,1244.59 1154.5,1243.5C 1149.57,1243.77 1144.9,1243.1 1140.5,1241.5 Z"/></g>
<g><path style="opacity:1" fill="#a9a7a7" d="M 1003.5,1240.5 C 1003.5,1240.83 1003.5,1241.17 1003.5,1241.5C 987.701,1242.42 972.034,1244.08 956.5,1246.5C 961.061,1245.14 965.728,1243.97 970.5,1243C 981.431,1241.42 992.431,1240.58 1003.5,1240.5 Z"/></g>
<g><path style="opacity:1" fill="#666363" d="M 1154.5,1243.5 C 1161.49,1244.59 1168.49,1245.59 1175.5,1246.5C 1192.74,1249.43 1209.74,1253.09 1226.5,1257.5C 1207.45,1254.33 1188.45,1250.83 1169.5,1247C 1164.51,1246.5 1159.51,1246.33 1154.5,1246.5C 1154.5,1245.5 1154.5,1244.5 1154.5,1243.5 Z"/></g>
<g><path style="opacity:1" fill="#8e8c8c" d="M 677.5,1238.5 C 677.047,1239.46 676.381,1240.29 675.5,1241C 667.814,1244.19 660.48,1248.03 653.5,1252.5C 656.122,1250.08 658.955,1247.75 662,1245.5C 666.079,1243.72 669.913,1241.56 673.5,1239C 674.793,1238.51 676.127,1238.34 677.5,1238.5 Z"/></g>
<g><path style="opacity:1" fill="#6d6a6a" d="M 949.5,1248.5 C 924.494,1253.78 899.494,1259.78 874.5,1266.5C 898.707,1257.84 923.707,1251.84 949.5,1248.5 Z"/></g>
<g><path style="opacity:1" fill="#8c8a8a" d="M 1474.5,1250.5 C 1478.17,1251.06 1481.17,1252.73 1483.5,1255.5C 1479.75,1255.06 1476.75,1253.39 1474.5,1250.5 Z"/></g>
<g><path style="opacity:1" fill="#acabab" d="M 647.5,1256.5 C 646.188,1258.48 644.521,1260.15 642.5,1261.5C 636.471,1265.21 630.471,1268.88 624.5,1272.5C 631.669,1266.42 639.335,1261.09 647.5,1256.5 Z"/></g>
<g><path style="opacity:1" fill="#7e7c7c" d="M 873.5,1266.5 C 869.809,1268.29 865.809,1269.63 861.5,1270.5C 865.01,1268.12 869.01,1266.78 873.5,1266.5 Z"/></g>
<g><path style="opacity:1" fill="#918f8f" d="M 622.5,1273.5 C 618.413,1277.92 613.746,1281.59 608.5,1284.5C 612.587,1280.08 617.254,1276.41 622.5,1273.5 Z"/></g>
<g><path style="opacity:1" fill="#a09e9e" d="M 845.5,1275.5 C 840.877,1278.24 835.877,1279.91 830.5,1280.5C 830.5,1281.5 830.5,1282.5 830.5,1283.5C 828.097,1283.45 825.764,1283.78 823.5,1284.5C 825.608,1283.26 827.608,1281.76 829.5,1280C 834.891,1278.36 840.225,1276.86 845.5,1275.5 Z"/></g>
<g><path style="opacity:1" fill="#b7b5b5" d="M 1301.5,1281.5 C 1305.79,1281.18 1309.79,1282.01 1313.5,1284C 1317.57,1287.03 1321.9,1289.53 1326.5,1291.5C 1317.64,1289.22 1309.31,1285.88 1301.5,1281.5 Z"/></g>
<g><path style="opacity:1" fill="#646161" d="M 808.5,1290.5 C 807.612,1292.27 806.279,1293.61 804.5,1294.5C 800.651,1295.13 796.984,1296.13 793.5,1297.5C 797.075,1295.37 800.742,1293.2 804.5,1291C 805.793,1290.51 807.127,1290.34 808.5,1290.5 Z"/></g>
<g><path style="opacity:1" fill="#a19f9f" d="M 598.5,1292.5 C 595.48,1295.52 592.146,1298.18 588.5,1300.5C 590.918,1296.75 594.251,1294.09 598.5,1292.5 Z"/></g>
<g><path style="opacity:1" fill="#c0bfbf" d="M 1331.5,1293.5 C 1339.39,1296.85 1347.39,1300.02 1355.5,1303C 1357.32,1303.74 1358.65,1304.91 1359.5,1306.5C 1354.64,1304.36 1349.64,1302.52 1344.5,1301C 1339.92,1298.77 1335.59,1296.27 1331.5,1293.5 Z"/></g>
<g><path style="opacity:1" fill="#b5b4b4" d="M 774.5,1306.5 C 770.311,1308.64 765.978,1310.64 761.5,1312.5C 762.348,1310.91 763.681,1309.74 765.5,1309C 768.546,1308.26 771.546,1307.43 774.5,1306.5 Z"/></g>
<g><path style="opacity:1" fill="#7a7878" d="M 1556.5,1310.5 C 1560.1,1312.43 1563.1,1315.1 1565.5,1318.5C 1561.9,1316.57 1558.9,1313.9 1556.5,1310.5 Z"/></g>
<g><path style="opacity:1" fill="#a7a5a5" d="M 1368.5,1311.5 C 1374.52,1314.23 1380.52,1317.06 1386.5,1320C 1387.38,1320.71 1388.05,1321.54 1388.5,1322.5C 1382.48,1319.77 1376.48,1316.94 1370.5,1314C 1369.62,1313.29 1368.95,1312.46 1368.5,1311.5 Z"/></g>
<g><path style="opacity:1" fill="#a7a5a5" d="M 583.5,1304.5 C 576.782,1311.55 569.449,1317.88 561.5,1323.5C 563.912,1320.58 566.579,1317.75 569.5,1315C 574.047,1311.24 578.714,1307.74 583.5,1304.5 Z"/></g>
<g><path style="opacity:1" fill="#a3a2a2" d="M 739.5,1325.5 C 736.075,1327.87 732.408,1329.87 728.5,1331.5C 731.422,1328.39 735.089,1326.39 739.5,1325.5 Z"/></g>
<g><path style="opacity:1" fill="#848282" d="M 1086.5,1342.5 C 1091.35,1342.81 1096.02,1343.48 1100.5,1344.5C 1077.83,1343.32 1055.16,1343.32 1032.5,1344.5C 1034.63,1343.69 1036.96,1343.19 1039.5,1343C 1055.16,1342.5 1070.83,1342.33 1086.5,1342.5 Z"/></g>
<g><path style="opacity:1" fill="#4e4b4b" d="M 1086.5,1342.5 C 1070.83,1342.33 1055.16,1342.5 1039.5,1343C 1036.96,1343.19 1034.63,1343.69 1032.5,1344.5C 1022.45,1344.51 1012.45,1345.17 1002.5,1346.5C 995.862,1347.38 989.195,1348.04 982.5,1348.5C 985.758,1347.83 989.091,1347 992.5,1346C 1006.84,1344.58 1021.17,1343.25 1035.5,1342C 1052.67,1341.17 1069.67,1341.34 1086.5,1342.5 Z"/></g>
<g><path style="opacity:1" fill="#cccccc" d="M 1100.5,1344.5 C 1102.17,1344.5 1103.83,1344.5 1105.5,1344.5C 1105.5,1344.83 1105.5,1345.17 1105.5,1345.5C 1077.83,1345.33 1050.16,1345.5 1022.5,1346C 1012.92,1347.23 1003.25,1348.39 993.5,1349.5C 996.353,1348.05 999.353,1347.05 1002.5,1346.5C 1012.45,1345.17 1022.45,1344.51 1032.5,1344.5C 1055.16,1343.32 1077.83,1343.32 1100.5,1344.5 Z"/></g>
<g><path style="opacity:1" fill="#fefefe" d="M 1105.5,1345.5 C 1119.18,1346.75 1132.85,1348.08 1146.5,1349.5C 1147.06,1350.79 1148.06,1351.62 1149.5,1352C 1155.49,1352.7 1161.49,1353.2 1167.5,1353.5C 1169.17,1353.5 1170.83,1353.5 1172.5,1353.5C 1172.61,1354.12 1172.94,1354.62 1173.5,1355C 1181.09,1356.68 1188.76,1358.18 1196.5,1359.5C 1197.49,1359.33 1198.16,1359.66 1198.5,1360.5C 1198.61,1361.12 1198.94,1361.62 1199.5,1362C 1209.35,1363.75 1219.02,1365.91 1228.5,1368.5C 1231.13,1369.1 1233.79,1369.6 1236.5,1370C 1245.99,1374.22 1255.65,1377.72 1265.5,1380.5C 1269.16,1383.84 1273.49,1385.84 1278.5,1386.5C 1280.06,1386.73 1281.4,1387.4 1282.5,1388.5C 1285.7,1391.69 1289.7,1393.52 1294.5,1394C 1301.14,1398.04 1308.14,1401.21 1315.5,1403.5C 1327.66,1410.8 1340,1417.97 1352.5,1425C 1370.92,1436.61 1388.59,1449.11 1405.5,1462.5C 1408.59,1466.59 1412.26,1469.93 1416.5,1472.5C 1416.83,1472.5 1417.17,1472.5 1417.5,1472.5C 1419.9,1475.9 1422.9,1478.57 1426.5,1480.5C 1432.5,1485.83 1438.17,1491.5 1443.5,1497.5C 1443.65,1498.55 1443.48,1499.55 1443,1500.5C 1419.17,1524.33 1395.33,1548.17 1371.5,1572C 1370.5,1572.67 1369.5,1572.67 1368.5,1572C 1365.9,1568.89 1362.9,1566.39 1359.5,1564.5C 1340.95,1547.61 1321.29,1532.27 1300.5,1518.5C 1297.86,1515.74 1294.86,1513.24 1291.5,1511C 1281.79,1505.44 1271.79,1500.6 1261.5,1496.5C 1261.5,1495.5 1261.5,1494.5 1261.5,1493.5C 1253.32,1489.96 1244.99,1486.96 1236.5,1484.5C 1216.05,1476.1 1195.05,1469.1 1173.5,1463.5C 1172.57,1462.69 1171.57,1461.85 1170.5,1461C 1166.83,1460.45 1163.16,1459.95 1159.5,1459.5C 1149.74,1456.91 1139.74,1455.25 1129.5,1454.5C 1129.17,1454.5 1128.83,1454.5 1128.5,1454.5C 1121.75,1452.77 1114.75,1451.6 1107.5,1451C 1102.18,1450.5 1096.84,1450.33 1091.5,1450.5C 1090.83,1450.5 1090.17,1450.5 1089.5,1450.5C 1066.99,1449.31 1044.32,1449.48 1021.5,1451C 1018.54,1451.28 1015.88,1452.11 1013.5,1453.5C 1012.5,1453.5 1011.5,1453.5 1010.5,1453.5C 1003.36,1453.84 996.355,1454.84 989.5,1456.5C 986.482,1456.34 983.482,1456.5 980.5,1457C 975.92,1458.07 971.587,1459.57 967.5,1461.5C 967.167,1461.5 966.833,1461.5 966.5,1461.5C 956.002,1463.24 946.002,1465.9 936.5,1469.5C 933.465,1469.54 930.798,1470.54 928.5,1472.5C 916.052,1475.09 904.385,1479.42 893.5,1485.5C 890.211,1486.41 886.878,1487.41 883.5,1488.5C 883.137,1489.18 882.804,1489.85 882.5,1490.5C 872.902,1494.8 863.569,1499.46 854.5,1504.5C 851.026,1505.5 848.026,1507.33 845.5,1510C 844.207,1510.49 842.873,1510.66 841.5,1510.5C 841.5,1511.5 841.5,1512.5 841.5,1513.5C 836.243,1515.46 831.243,1517.96 826.5,1521C 825.619,1521.71 824.953,1522.54 824.5,1523.5C 821.074,1525.08 817.74,1526.91 814.5,1529C 812.808,1530.31 811.475,1531.81 810.5,1533.5C 806.538,1535.81 802.871,1538.48 799.5,1541.5C 795.675,1544.48 791.675,1547.31 787.5,1550C 785.244,1552.08 783.244,1554.25 781.5,1556.5C 775.376,1561.41 769.376,1566.58 763.5,1572C 762.072,1572.58 760.738,1572.41 759.5,1571.5C 757.5,1567.5 754.5,1564.5 750.5,1562.5C 729.887,1542.22 709.22,1521.89 688.5,1501.5C 688.343,1500.13 688.51,1498.79 689,1497.5C 691.705,1494.96 694.205,1492.3 696.5,1489.5C 707.154,1480.84 717.488,1471.84 727.5,1462.5C 731.146,1460.18 734.48,1457.52 737.5,1454.5C 743.587,1451.46 748.921,1447.46 753.5,1442.5C 754.262,1440.74 755.596,1439.74 757.5,1439.5C 762.192,1437.82 766.192,1435.16 769.5,1431.5C 772.96,1428.6 776.627,1425.93 780.5,1423.5C 782.667,1422.21 785,1421.37 787.5,1421C 794.88,1415.77 802.547,1411.27 810.5,1407.5C 818.635,1404.36 826.301,1400.36 833.5,1395.5C 837.022,1393.69 840.689,1392.02 844.5,1390.5C 853.211,1386.83 861.878,1383.16 870.5,1379.5C 872.403,1379.2 874.07,1378.54 875.5,1377.5C 889.596,1373.88 903.596,1370.04 917.5,1366C 920.613,1364.58 923.613,1363.08 926.5,1361.5C 932.001,1360.44 937.334,1359.11 942.5,1357.5C 942.833,1357.5 943.167,1357.5 943.5,1357.5C 954.907,1355.16 966.24,1352.83 977.5,1350.5C 982.797,1349.73 988.13,1349.39 993.5,1349.5C 1003.25,1348.39 1012.92,1347.23 1022.5,1346C 1050.16,1345.5 1077.83,1345.33 1105.5,1345.5 Z"/></g>
<g><path style="opacity:1" fill="#8f8e8e" d="M 1105.5,1345.5 C 1105.5,1345.17 1105.5,1344.83 1105.5,1344.5C 1116.84,1345.15 1128.17,1345.98 1139.5,1347C 1142.31,1347.78 1144.98,1348.62 1147.5,1349.5C 1147.17,1349.5 1146.83,1349.5 1146.5,1349.5C 1132.85,1348.08 1119.18,1346.75 1105.5,1345.5 Z"/></g>
<g><path style="opacity:1" fill="#9c9a9a" d="M 550.5,1333.5 C 546.203,1338.3 541.703,1342.96 537,1347.5C 536.517,1348.45 536.351,1349.45 536.5,1350.5C 535.414,1350.38 534.747,1349.71 534.5,1348.5C 539.219,1342.78 544.552,1337.78 550.5,1333.5 Z"/></g>
<g><path style="opacity:1" fill="#929191" d="M 1002.5,1346.5 C 999.353,1347.05 996.353,1348.05 993.5,1349.5C 988.13,1349.39 982.797,1349.73 977.5,1350.5C 978.552,1348.74 980.219,1348.08 982.5,1348.5C 989.195,1348.04 995.862,1347.38 1002.5,1346.5 Z"/></g>
<g><path style="opacity:1" fill="#a8a6a6" d="M 710.5,1342.5 C 706.496,1346.73 701.83,1350.06 696.5,1352.5C 699.352,1349.84 702.352,1347.17 705.5,1344.5C 707.022,1343.44 708.688,1342.77 710.5,1342.5 Z"/></g>
<g><path style="opacity:1" fill="#cbcaca" d="M 1146.5,1349.5 C 1146.83,1349.5 1147.17,1349.5 1147.5,1349.5C 1154.5,1349.83 1161.16,1351.16 1167.5,1353.5C 1161.49,1353.2 1155.49,1352.7 1149.5,1352C 1148.06,1351.62 1147.06,1350.79 1146.5,1349.5 Z"/></g>
<g><path style="opacity:1" fill="#969494" d="M 977.5,1350.5 C 966.24,1352.83 954.907,1355.16 943.5,1357.5C 944.429,1356.69 945.429,1355.85 946.5,1355C 956.824,1353.36 967.157,1351.86 977.5,1350.5 Z"/></g>
<g><path style="opacity:1" fill="#8f8d8d" d="M 693.5,1354.5 C 689.848,1357.99 685.848,1360.99 681.5,1363.5C 684.707,1359.55 688.707,1356.55 693.5,1354.5 Z"/></g>
<g><path style="opacity:1" fill="#9a9999" d="M 1172.5,1353.5 C 1178.84,1354.56 1185.17,1355.72 1191.5,1357C 1193.49,1357.37 1195.16,1358.21 1196.5,1359.5C 1188.76,1358.18 1181.09,1356.68 1173.5,1355C 1172.94,1354.62 1172.61,1354.12 1172.5,1353.5 Z"/></g>
<g><path style="opacity:1" fill="#8a8989" d="M 942.5,1357.5 C 937.334,1359.11 932.001,1360.44 926.5,1361.5C 927.6,1360.44 928.934,1359.61 930.5,1359C 934.51,1358.5 938.51,1358 942.5,1357.5 Z"/></g>
<g><path style="opacity:1" fill="#cbcaca" d="M 1198.5,1360.5 C 1208.94,1362.11 1218.94,1364.78 1228.5,1368.5C 1219.02,1365.91 1209.35,1363.75 1199.5,1362C 1198.94,1361.62 1198.61,1361.12 1198.5,1360.5 Z"/></g>
<g><path style="opacity:1" fill="#7a7878" d="M 681.5,1363.5 C 679.541,1366.36 676.874,1368.36 673.5,1369.5C 675.268,1366.41 677.935,1364.41 681.5,1363.5 Z"/></g>
<g><path style="opacity:1" fill="#b2b1b1" d="M 926.5,1361.5 C 923.613,1363.08 920.613,1364.58 917.5,1366C 903.596,1370.04 889.596,1373.88 875.5,1377.5C 875.611,1376.88 875.944,1376.38 876.5,1376C 884.5,1373.33 892.5,1370.67 900.5,1368C 909.351,1366.45 918.018,1364.29 926.5,1361.5 Z"/></g>
<g><path style="opacity:1" fill="#8f8d8d" d="M 673.5,1369.5 C 671.23,1371.97 668.563,1373.97 665.5,1375.5C 667.373,1372.55 670.039,1370.55 673.5,1369.5 Z"/></g>
<g><path style="opacity:1" fill="#929090" d="M 665.5,1375.5 C 664.421,1377.54 662.754,1378.88 660.5,1379.5C 661.539,1377.47 663.205,1376.14 665.5,1375.5 Z"/></g>
<g><path style="opacity:1" fill="#939191" d="M 1265.5,1380.5 C 1270.29,1381.73 1274.63,1383.73 1278.5,1386.5C 1273.49,1385.84 1269.16,1383.84 1265.5,1380.5 Z"/></g>
<g><path style="opacity:1" fill="#797777" d="M 1595.5,1346.5 C 1597.34,1347.2 1597.84,1348.54 1597,1350.5C 1583.57,1364.44 1569.73,1377.77 1555.5,1390.5C 1568.42,1377.08 1581.58,1363.75 1595,1350.5C 1595.49,1349.21 1595.66,1347.87 1595.5,1346.5 Z"/></g>
<g><path style="opacity:1" fill="#8a8888" d="M 660.5,1379.5 C 654.194,1385.64 647.528,1391.31 640.5,1396.5C 646.343,1389.9 653.01,1384.24 660.5,1379.5 Z"/></g>
<g><path style="opacity:1" fill="#807e7e" d="M 870.5,1379.5 C 861.878,1383.16 853.211,1386.83 844.5,1390.5C 844.953,1389.54 845.619,1388.71 846.5,1388C 854.427,1384.86 862.427,1382.02 870.5,1379.5 Z"/></g>
<g><path style="opacity:1" fill="#9a9999" d="M 1282.5,1388.5 C 1294.18,1392.23 1305.18,1397.23 1315.5,1403.5C 1308.14,1401.21 1301.14,1398.04 1294.5,1394C 1289.7,1393.52 1285.7,1391.69 1282.5,1388.5 Z"/></g>
<g><path style="opacity:1" fill="#adacac" d="M 833.5,1395.5 C 826.301,1400.36 818.635,1404.36 810.5,1407.5C 810.953,1406.54 811.619,1405.71 812.5,1405C 819.639,1402.12 826.639,1398.95 833.5,1395.5 Z"/></g>
<g><path style="opacity:1" fill="#b1b0b0" d="M 1502.5,1405.5 C 1506.44,1407.77 1509.77,1410.77 1512.5,1414.5C 1508.56,1412.23 1505.23,1409.23 1502.5,1405.5 Z"/></g>
<g><path style="opacity:1" fill="#8c8a8a" d="M 633.5,1402.5 C 629.461,1407.54 624.794,1411.87 619.5,1415.5C 619.511,1413.98 620.177,1412.82 621.5,1412C 625.394,1408.6 629.394,1405.43 633.5,1402.5 Z"/></g>
<g><path style="opacity:1" fill="#9e9c9c" d="M 1539.5,1406.5 C 1536.83,1409.83 1533.83,1412.83 1530.5,1415.5C 1532.5,1411.5 1535.5,1408.5 1539.5,1406.5 Z"/></g>
<g><path style="opacity:1" fill="#959494" d="M 769.5,1431.5 C 766.192,1435.16 762.192,1437.82 757.5,1439.5C 761.072,1436.37 765.072,1433.7 769.5,1431.5 Z"/></g>
<g><path style="opacity:1" fill="#9e9c9c" d="M 753.5,1442.5 C 748.921,1447.46 743.587,1451.46 737.5,1454.5C 741.262,1450.92 745.262,1447.42 749.5,1444C 750.745,1443.21 752.078,1442.71 753.5,1442.5 Z"/></g>
<g><path style="opacity:1" fill="#aba9a9" d="M 1091.5,1450.5 C 1096.84,1450.33 1102.18,1450.5 1107.5,1451C 1114.75,1451.6 1121.75,1452.77 1128.5,1454.5C 1123.54,1453.75 1118.54,1453.41 1113.5,1453.5C 1106.21,1452.15 1098.88,1451.15 1091.5,1450.5 Z"/></g>
<g><path style="opacity:1" fill="#504d4d" d="M 1089.5,1450.5 C 1090.17,1450.5 1090.83,1450.5 1091.5,1450.5C 1098.88,1451.15 1106.21,1452.15 1113.5,1453.5C 1086.51,1452.62 1059.51,1452.28 1032.5,1452.5C 1036.98,1451.67 1041.65,1451.17 1046.5,1451C 1060.83,1450.5 1075.16,1450.33 1089.5,1450.5 Z"/></g>
<g><path style="opacity:1" fill="#8f8e8e" d="M 1089.5,1450.5 C 1075.16,1450.33 1060.83,1450.5 1046.5,1451C 1041.65,1451.17 1036.98,1451.67 1032.5,1452.5C 1026.19,1453.19 1019.86,1453.52 1013.5,1453.5C 1015.88,1452.11 1018.54,1451.28 1021.5,1451C 1044.32,1449.48 1066.99,1449.31 1089.5,1450.5 Z"/></g>
<g><path style="opacity:1" fill="#b0afaf" d="M 1129.5,1454.5 C 1139.74,1455.25 1149.74,1456.91 1159.5,1459.5C 1149.28,1458.38 1139.28,1456.71 1129.5,1454.5 Z"/></g>
<g><path style="opacity:1" fill="#979696" d="M 737.5,1454.5 C 734.48,1457.52 731.146,1460.18 727.5,1462.5C 729.918,1458.75 733.251,1456.09 737.5,1454.5 Z"/></g>
<g><path style="opacity:1" fill="#a7a6a6" d="M 989.5,1456.5 C 984.402,1457.42 979.402,1458.75 974.5,1460.5C 972.194,1460.99 969.861,1461.33 967.5,1461.5C 971.587,1459.57 975.92,1458.07 980.5,1457C 983.482,1456.5 986.482,1456.34 989.5,1456.5 Z"/></g>
<g><path style="opacity:1" fill="#5b5858" d="M 1010.5,1453.5 C 1010.39,1454.12 1010.06,1454.62 1009.5,1455C 1006.17,1455.33 1002.83,1455.67 999.5,1456C 998.328,1456.42 997.328,1457.09 996.5,1458C 989.142,1458.76 981.809,1459.59 974.5,1460.5C 979.402,1458.75 984.402,1457.42 989.5,1456.5C 996.355,1454.84 1003.36,1453.84 1010.5,1453.5 Z"/></g>
<g><path style="opacity:1" fill="#b4b3b3" d="M 1159.5,1459.5 C 1163.16,1459.95 1166.83,1460.45 1170.5,1461C 1171.57,1461.85 1172.57,1462.69 1173.5,1463.5C 1168.47,1463.08 1163.8,1461.75 1159.5,1459.5 Z"/></g>
<g><path style="opacity:1" fill="#a4a3a3" d="M 727.5,1462.5 C 717.488,1471.84 707.154,1480.84 696.5,1489.5C 704.827,1481.13 713.494,1472.97 722.5,1465C 724.078,1463.91 725.745,1463.07 727.5,1462.5 Z"/></g>
<g><path style="opacity:1" fill="#6d6b6b" d="M 966.5,1461.5 C 966.196,1462.15 965.863,1462.82 965.5,1463.5C 955.873,1465.79 946.206,1467.79 936.5,1469.5C 946.002,1465.9 956.002,1463.24 966.5,1461.5 Z"/></g>
<g><path style="opacity:1" fill="#aaa9a9" d="M 1405.5,1462.5 C 1409.8,1465.13 1413.46,1468.46 1416.5,1472.5C 1412.26,1469.93 1408.59,1466.59 1405.5,1462.5 Z"/></g>
<g><path style="opacity:1" fill="#757373" d="M 1417.5,1472.5 C 1421.1,1474.43 1424.1,1477.1 1426.5,1480.5C 1422.9,1478.57 1419.9,1475.9 1417.5,1472.5 Z"/></g>
<g><path style="opacity:1" fill="#646262" d="M 928.5,1472.5 C 924.798,1474.32 920.798,1475.82 916.5,1477C 915.149,1478.62 913.482,1479.78 911.5,1480.5C 904.975,1481.34 898.975,1483.34 893.5,1486.5C 893.5,1486.17 893.5,1485.83 893.5,1485.5C 904.385,1479.42 916.052,1475.09 928.5,1472.5 Z"/></g>
<g><path style="opacity:1" fill="#aaa9a9" d="M 893.5,1485.5 C 893.5,1485.83 893.5,1486.17 893.5,1486.5C 889.833,1487.83 886.167,1489.17 882.5,1490.5C 882.804,1489.85 883.137,1489.18 883.5,1488.5C 886.878,1487.41 890.211,1486.41 893.5,1485.5 Z"/></g>
<g><path style="opacity:1" fill="#989696" d="M 696.5,1489.5 C 694.205,1492.3 691.705,1494.96 689,1497.5C 688.51,1498.79 688.343,1500.13 688.5,1501.5C 686.656,1500.8 686.156,1499.46 687,1497.5C 689.766,1494.22 692.933,1491.56 696.5,1489.5 Z"/></g>
<g><path style="opacity:1" fill="#aeadad" d="M 1236.5,1484.5 C 1244.99,1486.96 1253.32,1489.96 1261.5,1493.5C 1261.5,1494.5 1261.5,1495.5 1261.5,1496.5C 1271.79,1500.6 1281.79,1505.44 1291.5,1511C 1294.86,1513.24 1297.86,1515.74 1300.5,1518.5C 1293.81,1513.87 1286.81,1509.71 1279.5,1506C 1265.32,1498.34 1250.98,1491.17 1236.5,1484.5 Z"/></g>
<g><path style="opacity:1" fill="#696767" d="M 854.5,1504.5 C 851.301,1509.12 846.967,1512.12 841.5,1513.5C 841.5,1512.5 841.5,1511.5 841.5,1510.5C 842.873,1510.66 844.207,1510.49 845.5,1510C 848.026,1507.33 851.026,1505.5 854.5,1504.5 Z"/></g>
<g><path style="opacity:1" fill="#959393" d="M 824.5,1523.5 C 820.223,1527.31 815.557,1530.65 810.5,1533.5C 811.475,1531.81 812.808,1530.31 814.5,1529C 817.74,1526.91 821.074,1525.08 824.5,1523.5 Z"/></g>
<g><path style="opacity:1" fill="#848181" d="M 799.5,1541.5 C 794.109,1547.22 788.109,1552.22 781.5,1556.5C 783.244,1554.25 785.244,1552.08 787.5,1550C 791.675,1547.31 795.675,1544.48 799.5,1541.5 Z"/></g>
<g><path style="opacity:1" fill="#525050" d="M 1108.5,1558.5 C 1100.51,1557.74 1092.51,1557.07 1084.5,1556.5C 1078.4,1555.03 1072.07,1554.36 1065.5,1554.5C 1058.93,1554.36 1052.6,1555.03 1046.5,1556.5C 1036.18,1557.41 1025.85,1558.25 1015.5,1559C 1014.26,1559.23 1013.26,1559.73 1012.5,1560.5C 1008.01,1560.27 1003.67,1560.94 999.5,1562.5C 1000.35,1561.03 1001.68,1560.2 1003.5,1560C 1029.27,1555.56 1055.27,1553.56 1081.5,1554C 1088.78,1555.13 1096.12,1555.8 1103.5,1556C 1105.65,1556.1 1107.32,1556.93 1108.5,1558.5 Z"/></g>
<g><path style="opacity:1" fill="#747272" d="M 1084.5,1556.5 C 1071.83,1556.5 1059.17,1556.5 1046.5,1556.5C 1052.6,1555.03 1058.93,1554.36 1065.5,1554.5C 1072.07,1554.36 1078.4,1555.03 1084.5,1556.5 Z"/></g>
<g><path style="opacity:1" fill="#fefefe" d="M 1046.5,1556.5 C 1059.17,1556.5 1071.83,1556.5 1084.5,1556.5C 1092.51,1557.07 1100.51,1557.74 1108.5,1558.5C 1119.6,1560.03 1130.6,1562.03 1141.5,1564.5C 1146.5,1566.76 1151.84,1568.43 1157.5,1569.5C 1166.03,1572.47 1174.7,1575.13 1183.5,1577.5C 1183.95,1578.46 1184.62,1579.29 1185.5,1580C 1189.18,1581.17 1192.84,1582.34 1196.5,1583.5C 1199.58,1583.62 1202.24,1584.62 1204.5,1586.5C 1210.22,1590.19 1216.22,1593.53 1222.5,1596.5C 1247.69,1610.29 1270.69,1627.29 1291.5,1647.5C 1291.66,1648.87 1291.49,1650.21 1291,1651.5C 1275.25,1667.08 1259.75,1682.75 1244.5,1698.5C 1240.26,1700.95 1236.93,1704.28 1234.5,1708.5C 1229.09,1712.4 1224.09,1716.9 1219.5,1722C 1218.21,1722.49 1216.87,1722.66 1215.5,1722.5C 1208.74,1717.24 1202.4,1711.41 1196.5,1705C 1194.17,1704 1191.83,1703 1189.5,1702C 1185.42,1698.31 1181.09,1695.15 1176.5,1692.5C 1176.05,1691.54 1175.38,1690.71 1174.5,1690C 1169.58,1687.57 1164.58,1685.4 1159.5,1683.5C 1153.7,1678.72 1147.03,1675.72 1139.5,1674.5C 1135.2,1672.73 1130.86,1671.4 1126.5,1670.5C 1123.34,1669.03 1120,1667.53 1116.5,1666C 1095.93,1661.54 1075.26,1660.37 1054.5,1662.5C 1049.49,1662.33 1044.49,1662.5 1039.5,1663C 1034.29,1663.84 1029.29,1665.01 1024.5,1666.5C 1017.55,1667.16 1010.88,1668.82 1004.5,1671.5C 993.864,1674.19 983.864,1678.19 974.5,1683.5C 967.764,1686.03 961.097,1688.86 954.5,1692C 952.937,1692.76 951.937,1693.93 951.5,1695.5C 951.167,1695.5 950.833,1695.5 950.5,1695.5C 946.561,1697.45 942.894,1699.78 939.5,1702.5C 935.907,1704.48 932.907,1707.15 930.5,1710.5C 924.552,1713.45 919.885,1717.78 916.5,1723.5C 915.127,1723.66 913.793,1723.49 912.5,1723C 905.964,1716.63 899.631,1710.13 893.5,1703.5C 876.202,1685.7 858.702,1668.03 841,1650.5C 840.333,1649.5 840.333,1648.5 841,1647.5C 845.669,1644 849.836,1640 853.5,1635.5C 857.12,1633.55 860.12,1630.88 862.5,1627.5C 870.709,1622.56 878.376,1616.9 885.5,1610.5C 885.973,1609.09 886.973,1608.43 888.5,1608.5C 891.324,1607.06 894.324,1605.89 897.5,1605C 905.946,1599.03 914.612,1593.53 923.5,1588.5C 927.999,1588 931.999,1586.33 935.5,1583.5C 942.184,1579.16 949.518,1576.5 957.5,1575.5C 964.68,1574.05 971.346,1571.55 977.5,1568C 989.372,1565.75 1001.04,1563.25 1012.5,1560.5C 1013.26,1559.73 1014.26,1559.23 1015.5,1559C 1025.85,1558.25 1036.18,1557.41 1046.5,1556.5 Z"/></g>
<g><path style="opacity:1" fill="#b4b2b2" d="M 750.5,1562.5 C 754.5,1564.5 757.5,1567.5 759.5,1571.5C 756.167,1568.83 753.167,1565.83 750.5,1562.5 Z"/></g>
<g><path style="opacity:1" fill="#9d9c9c" d="M 1012.5,1560.5 C 1001.04,1563.25 989.372,1565.75 977.5,1568C 971.346,1571.55 964.68,1574.05 957.5,1575.5C 959.674,1573.92 962.007,1572.42 964.5,1571C 968.27,1570.13 971.936,1568.97 975.5,1567.5C 981.196,1567.12 986.529,1565.62 991.5,1563C 994.146,1562.5 996.813,1562.34 999.5,1562.5C 1003.67,1560.94 1008.01,1560.27 1012.5,1560.5 Z"/></g>
<g><path style="opacity:1" fill="#8a8888" d="M 1443.5,1497.5 C 1445.23,1497.84 1445.73,1498.84 1445,1500.5C 1420.83,1524.67 1396.67,1548.83 1372.5,1573C 1370.83,1573.67 1369.17,1573.67 1367.5,1573C 1364.63,1570.3 1361.96,1567.46 1359.5,1564.5C 1362.9,1566.39 1365.9,1568.89 1368.5,1572C 1369.5,1572.67 1370.5,1572.67 1371.5,1572C 1395.33,1548.17 1419.17,1524.33 1443,1500.5C 1443.48,1499.55 1443.65,1498.55 1443.5,1497.5 Z"/></g>
<g><path style="opacity:1" fill="#7b7979" d="M 1141.5,1564.5 C 1147.53,1564.25 1152.86,1565.92 1157.5,1569.5C 1151.84,1568.43 1146.5,1566.76 1141.5,1564.5 Z"/></g>
<g><path style="opacity:1" fill="#767373" d="M 1183.5,1577.5 C 1189,1577.29 1193.33,1579.29 1196.5,1583.5C 1192.84,1582.34 1189.18,1581.17 1185.5,1580C 1184.62,1579.29 1183.95,1578.46 1183.5,1577.5 Z"/></g>
<g><path style="opacity:1" fill="#b4b3b3" d="M 935.5,1583.5 C 931.999,1586.33 927.999,1588 923.5,1588.5C 926.464,1587.74 929.13,1586.24 931.5,1584C 932.793,1583.51 934.127,1583.34 935.5,1583.5 Z"/></g>
<g><path style="opacity:1" fill="#878585" d="M 1204.5,1586.5 C 1211.24,1588.59 1217.24,1591.92 1222.5,1596.5C 1216.22,1593.53 1210.22,1590.19 1204.5,1586.5 Z"/></g>
<g><path style="opacity:1" fill="#a19f9f" d="M 923.5,1588.5 C 914.612,1593.53 905.946,1599.03 897.5,1605C 894.324,1605.89 891.324,1607.06 888.5,1608.5C 899.331,1600.58 910.997,1593.91 923.5,1588.5 Z"/></g>
<g><path style="opacity:1" fill="#9c9b9b" d="M 885.5,1610.5 C 878.376,1616.9 870.709,1622.56 862.5,1627.5C 867.06,1622.88 872.06,1618.71 877.5,1615C 880.059,1613.22 882.726,1611.72 885.5,1610.5 Z"/></g>
<g><path style="opacity:1" fill="#a7a5a5" d="M 862.5,1627.5 C 860.12,1630.88 857.12,1633.55 853.5,1635.5C 855.854,1632.15 858.854,1629.48 862.5,1627.5 Z"/></g>
<g><path style="opacity:1" fill="#abaaaa" d="M 853.5,1635.5 C 849.836,1640 845.669,1644 841,1647.5C 840.333,1648.5 840.333,1649.5 841,1650.5C 858.702,1668.03 876.202,1685.7 893.5,1703.5C 874.918,1686.42 856.752,1668.75 839,1650.5C 838.333,1649.5 838.333,1648.5 839,1647.5C 843.618,1643.13 848.452,1639.13 853.5,1635.5 Z"/></g>
<g><path style="opacity:1" fill="#dbdada" d="M 1054.5,1662.5 C 1075.26,1660.37 1095.93,1661.54 1116.5,1666C 1120,1667.53 1123.34,1669.03 1126.5,1670.5C 1125.17,1670.5 1123.83,1670.5 1122.5,1670.5C 1119.04,1669.07 1115.37,1667.9 1111.5,1667C 1102.81,1665.9 1094.15,1664.73 1085.5,1663.5C 1075.35,1662.51 1065.01,1662.17 1054.5,1662.5 Z"/></g>
<g><path style="opacity:1" fill="#848282" d="M 1054.5,1662.5 C 1065.01,1662.17 1075.35,1662.51 1085.5,1663.5C 1065.06,1662.93 1044.73,1663.93 1024.5,1666.5C 1029.29,1665.01 1034.29,1663.84 1039.5,1663C 1044.49,1662.5 1049.49,1662.33 1054.5,1662.5 Z"/></g>
<g><path style="opacity:1" fill="#838181" d="M 1024.5,1666.5 C 1018.19,1669.01 1011.53,1670.67 1004.5,1671.5C 1010.88,1668.82 1017.55,1667.16 1024.5,1666.5 Z"/></g>
<g><path style="opacity:1" fill="#838282" d="M 1122.5,1670.5 C 1123.83,1670.5 1125.17,1670.5 1126.5,1670.5C 1130.86,1671.4 1135.2,1672.73 1139.5,1674.5C 1139.5,1674.83 1139.5,1675.17 1139.5,1675.5C 1133.67,1674.21 1128.01,1672.54 1122.5,1670.5 Z"/></g>
<g><path style="opacity:1" fill="#cdcccc" d="M 1139.5,1675.5 C 1139.5,1675.17 1139.5,1674.83 1139.5,1674.5C 1147.03,1675.72 1153.7,1678.72 1159.5,1683.5C 1152.83,1680.83 1146.17,1678.17 1139.5,1675.5 Z"/></g>
<g><path style="opacity:1" fill="#7a7878" d="M 1291.5,1647.5 C 1293.91,1648.78 1294.08,1650.44 1292,1652.5C 1276.52,1668.48 1260.69,1683.81 1244.5,1698.5C 1259.75,1682.75 1275.25,1667.08 1291,1651.5C 1291.49,1650.21 1291.66,1648.87 1291.5,1647.5 Z"/></g>
<g><path style="opacity:1" fill="#b0afaf" d="M 1159.5,1683.5 C 1164.58,1685.4 1169.58,1687.57 1174.5,1690C 1175.38,1690.71 1176.05,1691.54 1176.5,1692.5C 1170.48,1690.06 1164.82,1687.06 1159.5,1683.5 Z"/></g>
<g><path style="opacity:1" fill="#858383" d="M 974.5,1683.5 C 966.881,1687.42 959.215,1691.42 951.5,1695.5C 951.937,1693.93 952.937,1692.76 954.5,1692C 961.097,1688.86 967.764,1686.03 974.5,1683.5 Z"/></g>
<g><path style="opacity:1" fill="#9e9c9c" d="M 950.5,1695.5 C 947.613,1699.05 943.947,1701.39 939.5,1702.5C 942.894,1699.78 946.561,1697.45 950.5,1695.5 Z"/></g>
<g><path style="opacity:1" fill="#969595" d="M 1234.5,1708.5 C 1229.46,1714.55 1223.79,1719.88 1217.5,1724.5C 1216.29,1724.25 1215.62,1723.59 1215.5,1722.5C 1216.87,1722.66 1218.21,1722.49 1219.5,1722C 1224.09,1716.9 1229.09,1712.4 1234.5,1708.5 Z"/></g>
<g><path style="opacity:1" fill="#848282" d="M 930.5,1710.5 C 925.859,1714.81 921.193,1719.14 916.5,1723.5C 919.885,1717.78 924.552,1713.45 930.5,1710.5 Z"/></g>
<g><path style="opacity:1" fill="#afadad" d="M 1090.5,1771.5 C 1077.91,1769.64 1065.24,1769.14 1052.5,1770C 1044.82,1771.84 1037.15,1773.68 1029.5,1775.5C 1029.8,1774.85 1030.14,1774.18 1030.5,1773.5C 1035.95,1771.41 1041.62,1769.91 1047.5,1769C 1059.5,1768.33 1071.5,1768.33 1083.5,1769C 1086,1769.7 1088.34,1770.53 1090.5,1771.5 Z"/></g>
<g><path style="opacity:1" fill="#fdfdfd" d="M 1090.5,1771.5 C 1098.5,1773.39 1106.17,1776.06 1113.5,1779.5C 1116.69,1782.24 1120.35,1784.24 1124.5,1785.5C 1127.48,1788.32 1130.81,1790.66 1134.5,1792.5C 1136.68,1794.85 1138.68,1797.35 1140.5,1800C 1138.92,1801.73 1137.58,1803.57 1136.5,1805.5C 1129.17,1810.83 1122.83,1817.17 1117.5,1824.5C 1116.76,1824.37 1116.09,1824.54 1115.5,1825C 1099.63,1841.04 1083.63,1856.87 1067.5,1872.5C 1066.45,1872.65 1065.45,1872.48 1064.5,1872C 1055.25,1862.24 1045.58,1853.08 1035.5,1844.5C 1020.84,1830.01 1006.01,1815.67 991,1801.5C 991.372,1797.61 993.539,1794.94 997.5,1793.5C 1002.93,1788.7 1009.1,1785.03 1016,1782.5C 1017.31,1781.87 1018.14,1780.87 1018.5,1779.5C 1021.95,1777.79 1025.62,1776.46 1029.5,1775.5C 1037.15,1773.68 1044.82,1771.84 1052.5,1770C 1065.24,1769.14 1077.91,1769.64 1090.5,1771.5 Z"/></g>
<g><path style="opacity:1" fill="#8d8b8b" d="M 1113.5,1779.5 C 1116.71,1780.18 1119.71,1781.35 1122.5,1783C 1123.38,1783.71 1124.05,1784.54 1124.5,1785.5C 1120.35,1784.24 1116.69,1782.24 1113.5,1779.5 Z"/></g>
<g><path style="opacity:1" fill="#b6b4b4" d="M 1018.5,1779.5 C 1018.14,1780.87 1017.31,1781.87 1016,1782.5C 1009.1,1785.03 1002.93,1788.7 997.5,1793.5C 999.953,1790.22 1002.95,1787.38 1006.5,1785C 1010.67,1783.41 1014.67,1781.58 1018.5,1779.5 Z"/></g>
<g><path style="opacity:1" fill="#686565" d="M 1134.5,1792.5 C 1139.09,1794.41 1141.76,1797.75 1142.5,1802.5C 1141.5,1802.5 1140.5,1802.5 1139.5,1802.5C 1139.5,1803.5 1139.5,1804.5 1139.5,1805.5C 1138.5,1805.5 1137.5,1805.5 1136.5,1805.5C 1137.58,1803.57 1138.92,1801.73 1140.5,1800C 1138.68,1797.35 1136.68,1794.85 1134.5,1792.5 Z"/></g>
<g><path style="opacity:1" fill="#989696" d="M 1136.5,1805.5 C 1130.5,1812.17 1124.17,1818.5 1117.5,1824.5C 1122.83,1817.17 1129.17,1810.83 1136.5,1805.5 Z"/></g>
<g><path style="opacity:1" fill="#b8b7b7" d="M 1035.5,1844.5 C 1045.58,1853.08 1055.25,1862.24 1064.5,1872C 1065.45,1872.48 1066.45,1872.65 1067.5,1872.5C 1066.79,1873.4 1065.79,1873.74 1064.5,1873.5C 1054.5,1864.17 1044.83,1854.5 1035.5,1844.5 Z"/></g>
<g><path style="opacity:1" fill="#848282" d="M 1117.5,1824.5 C 1101.37,1841.13 1085.04,1857.63 1068.5,1874C 1066.93,1874.76 1065.6,1874.6 1064.5,1873.5C 1065.79,1873.74 1066.79,1873.4 1067.5,1872.5C 1083.63,1856.87 1099.63,1841.04 1115.5,1825C 1116.09,1824.54 1116.76,1824.37 1117.5,1824.5 Z"/></g>
</svg>
